<?xml version='1.0' encoding='UTF-8' standalone='no'?>
<svg xmlns:inkscape="http://www.inkscape.org/namespaces/inkscape" xmlns="http://www.w3.org/2000/svg" baseProfile="tiny" version="1.2" width="296.926mm" height="209.973mm" xmlns:xlink="http://www.w3.org/1999/xlink" xmlns:cc="http://creativecommons.org/ns#" viewBox="0 0 3507 2480">
 <defs/>
 <g stroke-width="1" fill-rule="evenodd" inkscape:groupmode="layer" stroke-linecap="square" stroke="black" stroke-linejoin="bevel" fill="none" inkscape:label="Page" id="Page">
  <g stroke-width="1" font-style="normal" stroke-opacity="1" stroke-linecap="square" font-family=".AppleSystemUIFont" stroke="#000000" stroke-linejoin="bevel" fill="none" font-size="54.1667" transform="matrix(1,0,0,1,0,0)" font-weight="400"/>
  <g stroke-width="1" font-style="normal" stroke-opacity="1" stroke-linecap="square" font-family=".AppleSystemUIFont" stroke="#000000" stroke-linejoin="bevel" fill="none" font-size="54.1667" transform="matrix(1,0,0,1,0,0)" font-weight="400"/>
  <g stroke-width="1" font-style="normal" stroke-opacity="1" stroke-linecap="square" font-family=".AppleSystemUIFont" stroke="#000000" stroke-linejoin="bevel" fill="none" font-size="54.1667" transform="matrix(11.8081,0,0,11.8081,0,0)" font-weight="400"/>
  <g stroke-width="1" font-style="normal" stroke-opacity="1" stroke-linecap="square" font-family=".AppleSystemUIFont" stroke="#000000" stroke-linejoin="bevel" fill="none" font-size="54.1667" transform="matrix(0.999751,0,0,0.999751,0,0)" font-weight="400"/>
  <g font-style="normal" font-family=".AppleSystemUIFont" stroke="none" fill="#ffffff" fill-opacity="1" font-size="54.1667" transform="matrix(0.999751,0,0,0.999751,0,0)" font-weight="400">
   <path vector-effect="none" fill-rule="evenodd" d="M-2,-2 L3510,-2 L3510,2483 L-2,2483 L-2,-2"/>
  </g>
  <g stroke-width="1" font-style="normal" stroke-opacity="1" stroke-linecap="square" font-family=".AppleSystemUIFont" stroke="#000000" stroke-linejoin="bevel" fill="none" font-size="54.1667" transform="matrix(0.999751,0,0,0.999751,0,0)" font-weight="400"/>
  <g stroke-width="1" font-style="normal" stroke-opacity="1" stroke-linecap="square" font-family=".AppleSystemUIFont" stroke="#000000" stroke-linejoin="bevel" fill="none" font-size="54.1667" transform="matrix(11.8081,0,0,11.8081,0,0)" font-weight="400"/>
  <g stroke-width="1" font-style="normal" stroke-opacity="1" stroke-linecap="square" font-family=".AppleSystemUIFont" stroke="#000000" stroke-linejoin="bevel" fill="none" font-size="54.1667" transform="matrix(11.8081,0,0,11.8081,0,0)" font-weight="400"/>
  <g stroke-width="1" font-style="normal" stroke-opacity="1" stroke-linecap="square" font-family=".AppleSystemUIFont" stroke="#000000" stroke-linejoin="bevel" fill="none" font-size="54.1667" transform="matrix(1,0,0,1,0,0)" font-weight="400"/>
 </g>
 <defs/>
 <g stroke-width="1" fill-rule="evenodd" inkscape:groupmode="layer" stroke-linecap="square" stroke="black" stroke-linejoin="bevel" fill="none" inkscape:label="Legend" id="Legend">
  <g stroke-width="1" font-style="normal" stroke-opacity="1" stroke-linecap="square" font-family=".AppleSystemUIFont" stroke="#000000" stroke-linejoin="bevel" fill="none" font-size="54.1667" transform="matrix(1,0,0,1,0,0)" font-weight="400"/>
  <g stroke-width="1" font-style="normal" stroke-opacity="1" stroke-linecap="square" font-family=".AppleSystemUIFont" stroke="#000000" stroke-linejoin="bevel" fill="none" font-size="54.1667" transform="matrix(1,0,0,1,0,0)" font-weight="400"/>
  <g stroke-width="1" font-style="normal" stroke-opacity="1" stroke-linecap="square" font-family=".AppleSystemUIFont" stroke="#000000" stroke-linejoin="bevel" fill="none" font-size="54.1667" transform="matrix(11.8081,0,0,11.8081,222.63,580.297)" font-weight="400"/>
  <g stroke-width="1" font-style="normal" stroke-opacity="1" stroke-linecap="square" font-family=".AppleSystemUIFont" stroke="#000000" stroke-linejoin="bevel" fill="none" font-size="54.1667" transform="matrix(11.8081,0,0,11.8081,222.63,580.297)" font-weight="400"/>
  <g stroke-width="1" font-style="normal" stroke-opacity="1" stroke-linecap="square" font-family=".AppleSystemUIFont" stroke="#000000" stroke-linejoin="bevel" fill="none" font-size="54.1667" transform="matrix(11.8081,0,0,11.8081,222.63,580.297)" font-weight="400"/>
  <g font-style="normal" font-family=".AppleSystemUIFont" stroke="none" fill="#ffffff" fill-opacity="1" font-size="54.1667" transform="matrix(11.8081,0,0,11.8081,222.63,580.297)" font-weight="400">
   <path vector-effect="none" fill-rule="evenodd" d="M0,0 L50.3696,0 L50.3696,37.5918 L0,37.5918 L0,0"/>
  </g>
  <g stroke-width="1" font-style="normal" stroke-opacity="1" stroke-linecap="square" font-family=".AppleSystemUIFont" stroke="#000000" stroke-linejoin="bevel" fill="none" font-size="54.1667" transform="matrix(11.8081,0,0,11.8081,222.63,580.297)" font-weight="400"/>
  <g stroke-width="1" font-style="normal" stroke-opacity="1" stroke-linecap="square" font-family=".AppleSystemUIFont" stroke="#000000" stroke-linejoin="bevel" fill="none" font-size="54.1667" transform="matrix(0.999751,0,0,0.999751,222.63,580.297)" font-weight="400"/>
  <g stroke-width="1" font-style="normal" stroke-opacity="1" stroke-linecap="square" font-family=".AppleSystemUIFont" stroke="#000000" stroke-linejoin="bevel" fill="none" font-size="54.1667" transform="matrix(0.999751,0,0,0.999751,222.63,580.297)" font-weight="400"/>
  <g stroke-width="1" font-style="normal" stroke-opacity="1" stroke-linecap="square" font-family=".AppleSystemUIFont" stroke="#000000" stroke-linejoin="bevel" fill="none" font-size="54.1667" transform="matrix(0.23994,0,0,0.23994,246.246,691.023)" font-weight="400"/>
  <g font-style="normal" font-family=".AppleSystemUIFont" stroke="none" fill="#000000" fill-opacity="1" font-size="54.1667" transform="matrix(0.999751,0,0,0.999751,246.246,691.023)" font-weight="400">
   <path vector-effect="none" fill-rule="nonzero" d="M3.41797,0 L7.51953,0 L7.51953,-27.2217 L9.52148,-27.2217 L4.76074,-34.2529 L18.9209,0 L22.6318,0 L36.792,-34.2529 L32.0313,-27.2217 L34.0332,-27.2217 L34.0332,0 L38.1348,0 L38.1348,-35.2295 L33.0566,-35.2295 L20.8496,-5.54199 L20.7031,-5.54199 L8.49609,-35.2295 L3.41797,-35.2295 L3.41797,0 M55.0986,0.488281 C56.4821,0.488281 57.7679,0.297038 58.9561,-0.0854492 C60.1442,-0.467936 61.2021,-1.00505 62.1299,-1.69678 C63.0576,-2.38851 63.8185,-3.1901 64.4126,-4.10156 C65.0067,-5.01302 65.4095,-5.98958 65.6211,-7.03125 L65.6699,-7.27539 L61.4951,-7.27539 L61.4219,-7.05566 C61.1777,-6.32324 60.7708,-5.6722 60.2012,-5.10254 C59.6315,-4.53288 58.9235,-4.08529 58.0771,-3.75977 C57.2308,-3.43424 56.2705,-3.27148 55.1963,-3.27148 C53.6663,-3.27148 52.3398,-3.60921 51.2168,-4.28467 C50.0938,-4.96012 49.2271,-5.93262 48.6167,-7.20215 C48.0063,-8.47168 47.7012,-10.0016 47.7012,-11.792 L47.7012,-13.4277 C47.7012,-15.3158 48.0104,-16.9067 48.6289,-18.2007 C49.2474,-19.4946 50.0938,-20.4712 51.168,-21.1304 C52.2422,-21.7896 53.4548,-22.1191 54.8057,-22.1191 C56.1566,-22.1191 57.3529,-21.8058 58.3945,-21.1792 C59.4362,-20.5526 60.2541,-19.5964 60.8481,-18.3105 C61.4422,-17.0247 61.7393,-15.3971 61.7393,-13.4277 L61.7393,-11.792 L63.8877,-14.8682 L45.5283,-14.8682 L45.5283,-11.5479 L65.9873,-11.5479 L65.9873,-13.1104 C65.9873,-15.6494 65.5397,-17.8792 64.6445,-19.7998 C63.7493,-21.7204 62.4676,-23.2137 60.7993,-24.2798 C59.131,-25.3459 57.1413,-25.8789 54.8301,-25.8789 C52.5189,-25.8789 50.5088,-25.3215 48.7998,-24.2065 C47.0908,-23.0916 45.7643,-21.5373 44.8203,-19.5435 C43.8763,-17.5496 43.4043,-15.2425 43.4043,-12.6221 L43.4043,-12.5977 C43.4043,-9.94466 43.8722,-7.63753 44.8081,-5.67627 C45.744,-3.71501 47.0868,-2.19727 48.8364,-1.12305 C50.5861,-0.0488281 52.6735,0.488281 55.0986,0.488281 M80.1328,0.488281 C81.3535,0.488281 82.4725,0.292969 83.4897,-0.0976563 C84.507,-0.488281 85.4144,-1.0376 86.2119,-1.74561 C87.0094,-2.45361 87.6686,-3.30404 88.1895,-4.29688 L88.2871,-4.29688 L88.2871,0 L92.5352,0 L92.5352,-35.2295 L88.2871,-35.2295 L88.2871,-21.1426 L88.1895,-21.1426 C87.6686,-22.1191 87.0013,-22.9614 86.1875,-23.6694 C85.3737,-24.3774 84.45,-24.9227 83.4165,-25.3052 C82.383,-25.6877 81.264,-25.8789 80.0596,-25.8789 C77.9437,-25.8789 76.0801,-25.3377 74.4688,-24.2554 C72.8574,-23.173 71.6001,-21.6471 70.6968,-19.6777 C69.7935,-17.7083 69.3418,-15.389 69.3418,-12.7197 L69.3418,-12.6953 C69.3418,-10.026 69.7894,-7.70264 70.6846,-5.7251 C71.5798,-3.74756 72.8371,-2.21761 74.4565,-1.13525 C76.076,-0.0528971 77.9681,0.488281 80.1328,0.488281 M80.9629,-3.27148 C79.4655,-3.27148 78.1715,-3.6499 77.0811,-4.40674 C75.9906,-5.16357 75.1523,-6.25 74.5664,-7.66602 C73.9805,-9.08203 73.6875,-10.7585 73.6875,-12.6953 L73.6875,-12.7197 C73.6875,-14.6566 73.9805,-16.3249 74.5664,-17.7246 C75.1523,-19.1243 75.9906,-20.2067 77.0811,-20.9717 C78.1715,-21.7367 79.4655,-22.1191 80.9629,-22.1191 C82.3952,-22.1191 83.6606,-21.7285 84.7593,-20.9473 C85.8579,-20.166 86.7246,-19.0715 87.3594,-17.6636 C87.9941,-16.2557 88.3115,-14.6077 88.3115,-12.7197 L88.3115,-12.6953 C88.3115,-10.8073 87.9982,-9.15527 87.3716,-7.73926 C86.745,-6.32324 85.8783,-5.22461 84.7715,-4.44336 C83.6647,-3.66211 82.3952,-3.27148 80.9629,-3.27148 M98.8711,0 L103.119,0 L103.119,-25.3906 L98.8711,-25.3906 L98.8711,0 M100.995,-29.6875 C101.744,-29.6875 102.375,-29.9479 102.887,-30.4688 C103.4,-30.9896 103.656,-31.6162 103.656,-32.3486 C103.656,-33.0973 103.4,-33.728 102.887,-34.2407 C102.375,-34.7534 101.744,-35.0098 100.995,-35.0098 C100.263,-35.0098 99.6361,-34.7534 99.1152,-34.2407 C98.5944,-33.728 98.334,-33.0973 98.334,-32.3486 C98.334,-31.6162 98.5944,-30.9896 99.1152,-30.4688 C99.6361,-29.9479 100.263,-29.6875 100.995,-29.6875 M116.665,0.488281 C117.804,0.488281 118.883,0.297038 119.9,-0.0854492 C120.917,-0.467936 121.833,-1.00505 122.646,-1.69678 C123.46,-2.38851 124.111,-3.19824 124.6,-4.12598 L124.697,-4.12598 L124.697,0 L128.945,0 L128.945,-17.5537 C128.945,-19.2464 128.547,-20.7153 127.749,-21.9604 C126.951,-23.2056 125.824,-24.1699 124.368,-24.8535 C122.911,-25.5371 121.182,-25.8789 119.18,-25.8789 C117.194,-25.8789 115.477,-25.5412 114.028,-24.8657 C112.58,-24.1903 111.444,-23.2829 110.623,-22.1436 C109.801,-21.0042 109.325,-19.7347 109.194,-18.335 L109.17,-18.0664 L113.271,-18.0664 L113.32,-18.2861 C113.564,-19.4255 114.187,-20.3491 115.188,-21.0571 C116.189,-21.7651 117.503,-22.1191 119.131,-22.1191 C120.905,-22.1191 122.276,-21.6756 123.245,-20.7886 C124.213,-19.9015 124.697,-18.6849 124.697,-17.1387 L124.697,-9.64355 C124.697,-8.42285 124.384,-7.32422 123.757,-6.34766 C123.131,-5.37109 122.284,-4.60205 121.218,-4.04053 C120.152,-3.479 118.952,-3.19824 117.617,-3.19824 C116.087,-3.19824 114.862,-3.55632 113.943,-4.27246 C113.023,-4.98861 112.563,-5.95703 112.563,-7.17773 L112.563,-7.22656 C112.563,-8.41471 113.031,-9.36686 113.967,-10.083 C114.903,-10.7992 116.217,-11.2061 117.91,-11.3037 L126.821,-11.8408 L126.821,-15.1367 L117.422,-14.5996 C115.485,-14.4857 113.829,-14.1195 112.454,-13.501 C111.078,-12.8825 110.028,-12.0443 109.304,-10.9863 C108.58,-9.92839 108.218,-8.67513 108.218,-7.22656 L108.218,-7.17773 C108.218,-5.64779 108.572,-4.30501 109.28,-3.14941 C109.988,-1.99382 110.977,-1.09863 112.246,-0.463867 C113.516,0.170898 114.989,0.488281 116.665,0.488281 M134.681,0 L138.929,0 L138.929,-14.9414 C138.929,-16.39 139.201,-17.6514 139.747,-18.7256 C140.292,-19.7998 141.061,-20.634 142.054,-21.228 C143.047,-21.8221 144.21,-22.1191 145.545,-22.1191 C147.498,-22.1191 148.959,-21.5698 149.927,-20.4712 C150.896,-19.3726 151.38,-17.7897 151.38,-15.7227 L151.38,0 L155.628,0 L155.628,-16.4795 C155.628,-19.3766 154.859,-21.6675 153.321,-23.3521 C151.783,-25.0366 149.622,-25.8789 146.839,-25.8789 C144.918,-25.8789 143.307,-25.4924 142.005,-24.7192 C140.703,-23.9461 139.71,-22.9655 139.026,-21.7773 L138.929,-21.7773 L138.929,-25.3906 L134.681,-25.3906 L134.681,0 M172.215,0 L176.463,0 L176.463,-25.3906 L172.215,-25.3906 L172.215,0 M174.339,-29.6875 C175.088,-29.6875 175.718,-29.9479 176.231,-30.4688 C176.744,-30.9896 177,-31.6162 177,-32.3486 C177,-33.0973 176.744,-33.728 176.231,-34.2407 C175.718,-34.7534 175.088,-35.0098 174.339,-35.0098 C173.606,-35.0098 172.98,-34.7534 172.459,-34.2407 C171.938,-33.728 171.678,-33.0973 171.678,-32.3486 C171.678,-31.6162 171.938,-30.9896 172.459,-30.4688 C172.98,-29.9479 173.606,-29.6875 174.339,-29.6875 M182.587,0 L186.835,0 L186.835,-14.9414 C186.835,-16.39 187.108,-17.6514 187.653,-18.7256 C188.198,-19.7998 188.967,-20.634 189.96,-21.228 C190.953,-21.8221 192.117,-22.1191 193.451,-22.1191 C195.404,-22.1191 196.865,-21.5698 197.833,-20.4712 C198.802,-19.3726 199.286,-17.7897 199.286,-15.7227 L199.286,0 L203.534,0 L203.534,-16.4795 C203.534,-19.3766 202.765,-21.6675 201.227,-23.3521 C199.689,-25.0366 197.528,-25.8789 194.745,-25.8789 C192.825,-25.8789 191.213,-25.4924 189.911,-24.7192 C188.609,-23.9461 187.616,-22.9655 186.933,-21.7773 L186.835,-21.7773 L186.835,-25.3906 L182.587,-25.3906 L182.587,0 M219.781,0.488281 C221.702,0.488281 223.415,0.109863 224.92,-0.646973 C226.426,-1.40381 227.655,-2.4292 228.607,-3.72314 C229.559,-5.01709 230.149,-6.46973 230.377,-8.08105 L230.401,-8.25195 L226.227,-8.25195 L226.178,-8.05664 C225.82,-6.64063 225.099,-5.4891 224.017,-4.60205 C222.935,-3.71501 221.523,-3.27148 219.781,-3.27148 C218.316,-3.27148 217.027,-3.64583 215.912,-4.39453 C214.797,-5.14323 213.926,-6.21745 213.299,-7.61719 C212.673,-9.01693 212.359,-10.7015 212.359,-12.6709 L212.359,-12.6953 C212.359,-14.6159 212.669,-16.2801 213.287,-17.688 C213.906,-19.0959 214.768,-20.1864 215.875,-20.9595 C216.982,-21.7326 218.268,-22.1191 219.732,-22.1191 C221.604,-22.1191 223.065,-21.639 224.115,-20.6787 C225.165,-19.7184 225.844,-18.6035 226.153,-17.334 L226.202,-17.1387 L230.353,-17.1387 L230.328,-17.334 C230.149,-18.7826 229.624,-20.1579 228.753,-21.46 C227.883,-22.762 226.69,-23.8241 225.177,-24.646 C223.663,-25.4679 221.848,-25.8789 219.732,-25.8789 C217.389,-25.8789 215.338,-25.3418 213.58,-24.2676 C211.822,-23.1934 210.455,-21.6715 209.479,-19.7021 C208.502,-17.7327 208.014,-15.4134 208.014,-12.7441 L208.014,-12.7197 C208.014,-10.0342 208.494,-7.70264 209.454,-5.7251 C210.414,-3.74756 211.778,-2.21761 213.543,-1.13525 C215.309,-0.0528971 217.389,0.488281 219.781,0.488281 M245.172,0.488281 C247.516,0.488281 249.566,-0.0488281 251.324,-1.12305 C253.082,-2.19727 254.453,-3.71908 255.438,-5.68848 C256.423,-7.65788 256.915,-9.99349 256.915,-12.6953 L256.915,-12.7441 C256.915,-15.446 256.423,-17.7775 255.438,-19.7388 C254.453,-21.7 253.078,-23.2137 251.312,-24.2798 C249.546,-25.3459 247.491,-25.8789 245.147,-25.8789 C242.82,-25.8789 240.773,-25.3459 239.007,-24.2798 C237.241,-23.2137 235.866,-21.7 234.881,-19.7388 C233.897,-17.7775 233.404,-15.446 233.404,-12.7441 L233.404,-12.6953 C233.404,-10.0098 233.897,-7.67822 234.881,-5.70068 C235.866,-3.72314 237.241,-2.19727 239.007,-1.12305 C240.773,-0.0488281 242.828,0.488281 245.172,0.488281 M245.196,-3.27148 C243.699,-3.27148 242.393,-3.64176 241.278,-4.38232 C240.163,-5.12288 239.296,-6.1971 238.678,-7.60498 C238.059,-9.01286 237.75,-10.7096 237.75,-12.6953 L237.75,-12.7441 C237.75,-14.7298 238.059,-16.4185 238.678,-17.8101 C239.296,-19.2017 240.163,-20.2677 241.278,-21.0083 C242.393,-21.7489 243.683,-22.1191 245.147,-22.1191 C246.645,-22.1191 247.951,-21.7529 249.066,-21.0205 C250.181,-20.2881 251.043,-19.222 251.654,-17.8223 C252.264,-16.4225 252.569,-14.7298 252.569,-12.7441 L252.569,-12.6953 C252.569,-10.7096 252.264,-9.01286 251.654,-7.60498 C251.043,-6.1971 250.189,-5.12288 249.09,-4.38232 C247.992,-3.64176 246.694,-3.27148 245.196,-3.27148 M261.524,0 L265.772,0 L265.772,-15.918 C265.772,-17.1061 266.025,-18.1641 266.529,-19.0918 C267.034,-20.0195 267.722,-20.756 268.592,-21.3013 C269.463,-21.8465 270.46,-22.1191 271.583,-22.1191 C272.641,-22.1191 273.556,-21.9076 274.33,-21.4844 C275.103,-21.0612 275.705,-20.4671 276.136,-19.7021 C276.568,-18.9372 276.783,-18.042 276.783,-17.0166 L276.783,0 L281.031,0 L281.031,-16.1377 C281.031,-17.2933 281.275,-18.3228 281.764,-19.2261 C282.252,-20.1294 282.927,-20.8374 283.79,-21.3501 C284.653,-21.8628 285.646,-22.1191 286.769,-22.1191 C287.892,-22.1191 288.844,-21.8994 289.625,-21.46 C290.406,-21.0205 291.004,-20.3857 291.419,-19.5557 C291.834,-18.7256 292.042,-17.7246 292.042,-16.5527 L292.042,0 L296.29,0 L296.29,-17.5293 C296.29,-19.222 295.948,-20.6909 295.265,-21.936 C294.581,-23.1812 293.621,-24.1496 292.384,-24.8413 C291.147,-25.533 289.69,-25.8789 288.014,-25.8789 C286.826,-25.8789 285.715,-25.6836 284.681,-25.293 C283.648,-24.9023 282.736,-24.3449 281.947,-23.6206 C281.157,-22.8963 280.527,-22.0215 280.055,-20.9961 L279.957,-20.9961 C279.599,-22.0378 279.078,-22.9207 278.395,-23.645 C277.711,-24.3693 276.901,-24.9227 275.965,-25.3052 C275.029,-25.6877 273.984,-25.8789 272.828,-25.8789 C271.201,-25.8789 269.776,-25.4924 268.556,-24.7192 C267.335,-23.9461 266.44,-22.9329 265.87,-21.6797 L265.772,-21.6797 L265.772,-25.3906 L261.524,-25.3906 L261.524,0 M312.474,0.488281 C313.857,0.488281 315.143,0.297038 316.331,-0.0854492 C317.519,-0.467936 318.577,-1.00505 319.505,-1.69678 C320.433,-2.38851 321.194,-3.1901 321.788,-4.10156 C322.382,-5.01302 322.785,-5.98958 322.996,-7.03125 L323.045,-7.27539 L318.87,-7.27539 L318.797,-7.05566 C318.553,-6.32324 318.146,-5.6722 317.576,-5.10254 C317.007,-4.53288 316.299,-4.08529 315.452,-3.75977 C314.606,-3.43424 313.646,-3.27148 312.571,-3.27148 C311.041,-3.27148 309.715,-3.60921 308.592,-4.28467 C307.469,-4.96012 306.602,-5.93262 305.992,-7.20215 C305.381,-8.47168 305.076,-10.0016 305.076,-11.792 L305.076,-13.4277 C305.076,-15.3158 305.385,-16.9067 306.004,-18.2007 C306.622,-19.4946 307.469,-20.4712 308.543,-21.1304 C309.617,-21.7896 310.83,-22.1191 312.181,-22.1191 C313.532,-22.1191 314.728,-21.8058 315.77,-21.1792 C316.811,-20.5526 317.629,-19.5964 318.223,-18.3105 C318.817,-17.0247 319.114,-15.3971 319.114,-13.4277 L319.114,-11.792 L321.263,-14.8682 L302.903,-14.8682 L302.903,-11.5479 L323.362,-11.5479 L323.362,-13.1104 C323.362,-15.6494 322.915,-17.8792 322.02,-19.7998 C321.124,-21.7204 319.843,-23.2137 318.174,-24.2798 C316.506,-25.3459 314.516,-25.8789 312.205,-25.8789 C309.894,-25.8789 307.884,-25.3215 306.175,-24.2065 C304.466,-23.0916 303.139,-21.5373 302.195,-19.5435 C301.251,-17.5496 300.779,-15.2425 300.779,-12.6221 L300.779,-12.5977 C300.779,-9.94466 301.247,-7.63753 302.183,-5.67627 C303.119,-3.71501 304.462,-2.19727 306.211,-1.12305 C307.961,-0.0488281 310.049,0.488281 312.474,0.488281 M347.369,8.54492 L350.934,8.54492 C350.055,7.51953 349.241,6.19303 348.492,4.56543 C347.743,2.93783 347.088,1.12712 346.527,-0.866699 C345.965,-2.86051 345.53,-4.93164 345.221,-7.08008 C344.911,-9.22852 344.757,-11.32 344.757,-13.3545 C344.757,-15.389 344.911,-17.4764 345.221,-19.6167 C345.53,-21.757 345.965,-23.8241 346.527,-25.8179 C347.088,-27.8117 347.743,-29.6224 348.492,-31.25 C349.241,-32.8776 350.055,-34.2041 350.934,-35.2295 L347.369,-35.2295 C345.79,-33.2113 344.488,-31.0669 343.463,-28.7964 C342.438,-26.5259 341.677,-24.1089 341.18,-21.5454 C340.684,-18.9819 340.436,-16.2516 340.436,-13.3545 C340.436,-10.4574 340.684,-7.72298 341.18,-5.15137 C341.677,-2.57975 342.433,-0.158691 343.451,2.11182 C344.468,4.38232 345.774,6.52669 347.369,8.54492 M353.031,0 L357.743,0 L363.871,-9.66797 L363.969,-9.66797 L370.048,0 L374.76,0 L366.313,-12.8662 L374.882,-25.3906 L370.146,-25.3906 L364.115,-15.8691 L364.018,-15.8691 L357.914,-25.3906 L353.178,-25.3906 L361.674,-12.6953 L353.031,0 M409.763,-0.512695 C410.593,-0.512695 411.48,-0.561523 412.424,-0.65918 C413.368,-0.756836 414.068,-0.887044 414.523,-1.0498 L414.523,-5.00488 C414.035,-4.8584 413.327,-4.74854 412.399,-4.67529 C411.472,-4.60205 410.593,-4.56543 409.763,-4.56543 C407.956,-4.56543 406.288,-4.82178 404.758,-5.33447 C403.228,-5.84717 401.897,-6.63656 400.766,-7.70264 C399.635,-8.76872 398.752,-10.1156 398.117,-11.7432 C397.482,-13.3708 397.165,-15.2995 397.165,-17.5293 L397.165,-17.5781 C397.165,-19.8242 397.478,-21.7692 398.105,-23.4131 C398.732,-25.057 399.615,-26.416 400.754,-27.4902 C401.893,-28.5645 403.228,-29.362 404.758,-29.8828 C406.288,-30.4036 407.956,-30.6641 409.763,-30.6641 C410.593,-30.6641 411.472,-30.6234 412.399,-30.542 C413.327,-30.4606 414.035,-30.3548 414.523,-30.2246 L414.523,-34.1797 C414.068,-34.3424 413.368,-34.4727 412.424,-34.5703 C411.48,-34.668 410.593,-34.7168 409.763,-34.7168 C407.451,-34.7168 405.266,-34.3791 403.208,-33.7036 C401.149,-33.0282 399.326,-31.9906 397.739,-30.5908 C396.152,-29.1911 394.907,-27.417 394.003,-25.2686 C393.1,-23.1201 392.648,-20.5811 392.648,-17.6514 L392.648,-17.6025 C392.648,-14.6729 393.1,-12.1338 394.003,-9.98535 C394.907,-7.83691 396.148,-6.06283 397.727,-4.66309 C399.305,-3.26335 401.128,-2.22168 403.195,-1.53809 C405.262,-0.854492 407.451,-0.512695 409.763,-0.512695 M387.912,-12.6953 L411.008,-12.6953 L411.008,-15.625 L387.912,-15.625 L387.912,-12.6953 M387.912,-19.7754 L411.008,-19.7754 L411.008,-22.7051 L387.912,-22.7051 L387.912,-19.7754 M428.997,0 L433.245,0 L433.245,-35.2295 L428.948,-35.2295 L419.573,-28.4912 L419.573,-24.0723 L428.899,-30.5664 L428.997,-30.5664 L428.997,0 M454.387,0.585938 C457.089,0.585938 459.408,-0.154622 461.345,-1.63574 C463.282,-3.11686 464.767,-5.21647 465.8,-7.93457 C466.834,-10.6527 467.351,-13.8753 467.351,-17.6025 L467.351,-17.6514 C467.351,-21.3786 466.834,-24.6012 465.8,-27.3193 C464.767,-30.0374 463.282,-32.133 461.345,-33.606 C459.408,-35.0789 457.089,-35.8154 454.387,-35.8154 C451.685,-35.8154 449.37,-35.0789 447.441,-33.606 C445.512,-32.133 444.035,-30.0374 443.01,-27.3193 C441.984,-24.6012 441.472,-21.3786 441.472,-17.6514 L441.472,-17.6025 C441.472,-13.8753 441.984,-10.6527 443.01,-7.93457 C444.035,-5.21647 445.512,-3.11686 447.441,-1.63574 C449.37,-0.154622 451.685,0.585938 454.387,0.585938 M454.387,-3.24707 C452.596,-3.24707 451.066,-3.82894 449.797,-4.99268 C448.527,-6.15641 447.559,-7.8125 446.892,-9.96094 C446.224,-12.1094 445.891,-14.6566 445.891,-17.6025 L445.891,-17.6514 C445.891,-20.5973 446.224,-23.1405 446.892,-25.2808 C447.559,-27.4211 448.527,-29.069 449.797,-30.2246 C451.066,-31.3802 452.596,-31.958 454.387,-31.958 C456.177,-31.958 457.711,-31.3802 458.989,-30.2246 C460.266,-29.069 461.243,-27.4211 461.918,-25.2808 C462.594,-23.1405 462.932,-20.5973 462.932,-17.6514 L462.932,-17.6025 C462.932,-14.6566 462.594,-12.1094 461.918,-9.96094 C461.243,-7.8125 460.266,-6.15641 458.989,-4.99268 C457.711,-3.82894 456.177,-3.24707 454.387,-3.24707 M485.043,0.585938 C487.745,0.585938 490.064,-0.154622 492.001,-1.63574 C493.938,-3.11686 495.423,-5.21647 496.457,-7.93457 C497.49,-10.6527 498.007,-13.8753 498.007,-17.6025 L498.007,-17.6514 C498.007,-21.3786 497.49,-24.6012 496.457,-27.3193 C495.423,-30.0374 493.938,-32.133 492.001,-33.606 C490.064,-35.0789 487.745,-35.8154 485.043,-35.8154 C482.341,-35.8154 480.026,-35.0789 478.097,-33.606 C476.168,-32.133 474.691,-30.0374 473.666,-27.3193 C472.641,-24.6012 472.128,-21.3786 472.128,-17.6514 L472.128,-17.6025 C472.128,-13.8753 472.641,-10.6527 473.666,-7.93457 C474.691,-5.21647 476.168,-3.11686 478.097,-1.63574 C480.026,-0.154622 482.341,0.585938 485.043,0.585938 M485.043,-3.24707 C483.253,-3.24707 481.723,-3.82894 480.453,-4.99268 C479.184,-6.15641 478.215,-7.8125 477.548,-9.96094 C476.881,-12.1094 476.547,-14.6566 476.547,-17.6025 L476.547,-17.6514 C476.547,-20.5973 476.881,-23.1405 477.548,-25.2808 C478.215,-27.4211 479.184,-29.069 480.453,-30.2246 C481.723,-31.3802 483.253,-31.958 485.043,-31.958 C486.833,-31.958 488.367,-31.3802 489.645,-30.2246 C490.923,-29.069 491.899,-27.4211 492.575,-25.2808 C493.25,-23.1405 493.588,-20.5973 493.588,-17.6514 L493.588,-17.6025 C493.588,-14.6566 493.25,-12.1094 492.575,-9.96094 C491.899,-7.8125 490.923,-6.15641 489.645,-4.99268 C488.367,-3.82894 486.833,-3.24707 485.043,-3.24707 M515.699,0.585938 C518.401,0.585938 520.72,-0.154622 522.657,-1.63574 C524.594,-3.11686 526.079,-5.21647 527.113,-7.93457 C528.146,-10.6527 528.663,-13.8753 528.663,-17.6025 L528.663,-17.6514 C528.663,-21.3786 528.146,-24.6012 527.113,-27.3193 C526.079,-30.0374 524.594,-32.133 522.657,-33.606 C520.72,-35.0789 518.401,-35.8154 515.699,-35.8154 C512.997,-35.8154 510.682,-35.0789 508.753,-33.606 C506.825,-32.133 505.348,-30.0374 504.322,-27.3193 C503.297,-24.6012 502.784,-21.3786 502.784,-17.6514 L502.784,-17.6025 C502.784,-13.8753 503.297,-10.6527 504.322,-7.93457 C505.348,-5.21647 506.825,-3.11686 508.753,-1.63574 C510.682,-0.154622 512.997,0.585938 515.699,0.585938 M515.699,-3.24707 C513.909,-3.24707 512.379,-3.82894 511.109,-4.99268 C509.84,-6.15641 508.871,-7.8125 508.204,-9.96094 C507.537,-12.1094 507.203,-14.6566 507.203,-17.6025 L507.203,-17.6514 C507.203,-20.5973 507.537,-23.1405 508.204,-25.2808 C508.871,-27.4211 509.84,-29.069 511.109,-30.2246 C512.379,-31.3802 513.909,-31.958 515.699,-31.958 C517.49,-31.958 519.024,-31.3802 520.301,-30.2246 C521.579,-29.069 522.556,-27.4211 523.231,-25.2808 C523.906,-23.1405 524.244,-20.5973 524.244,-17.6514 L524.244,-17.6025 C524.244,-14.6566 523.906,-12.1094 523.231,-9.96094 C522.556,-7.8125 521.579,-6.15641 520.301,-4.99268 C519.024,-3.82894 517.49,-3.24707 515.699,-3.24707 M535.76,8.54492 C537.355,6.54297 538.661,4.40267 539.678,2.12402 C540.695,-0.154622 541.452,-2.57975 541.949,-5.15137 C542.445,-7.72298 542.693,-10.4574 542.693,-13.3545 C542.693,-16.2516 542.445,-18.9819 541.949,-21.5454 C541.452,-24.1089 540.695,-26.5259 539.678,-28.7964 C538.661,-31.0669 537.355,-33.2113 535.76,-35.2295 L532.195,-35.2295 C533.074,-34.2041 533.888,-32.8776 534.637,-31.25 C535.385,-29.6224 536.041,-27.8117 536.602,-25.8179 C537.164,-23.8241 537.599,-21.757 537.908,-19.6167 C538.217,-17.4764 538.372,-15.389 538.372,-13.3545 C538.372,-11.32 538.217,-9.23258 537.908,-7.09229 C537.599,-4.95199 537.164,-2.88086 536.602,-0.878906 C536.041,1.12305 535.385,2.93783 534.637,4.56543 C533.888,6.19303 533.074,7.51953 532.195,8.54492 L535.76,8.54492"/>
  </g>
  <g stroke-width="1" font-style="normal" stroke-opacity="1" stroke-linecap="square" font-family=".AppleSystemUIFont" stroke="#000000" stroke-linejoin="bevel" fill="none" font-size="54.1667" transform="matrix(0.23994,0,0,0.23994,246.246,691.023)" font-weight="400"/>
  <g stroke-width="1" font-style="normal" stroke-opacity="1" stroke-linecap="square" font-family=".AppleSystemUIFont" stroke="#000000" stroke-linejoin="bevel" fill="none" font-size="54.1667" transform="matrix(0.999751,0,0,0.999751,222.63,580.297)" font-weight="400"/>
  <g stroke-width="1" font-style="normal" stroke-opacity="1" stroke-linecap="square" font-family=".AppleSystemUIFont" stroke="#000000" stroke-linejoin="bevel" fill="none" font-size="54.1667" transform="matrix(11.8081,0,0,11.8081,222.63,580.297)" font-weight="400"/>
  <g stroke-width="3.07087" font-style="normal" stroke-opacity="1" stroke-linecap="square" font-family=".AppleSystemUIFont" stroke="#232323" stroke-linejoin="bevel" fill="#def5e5" fill-opacity="1" font-size="54.1667" transform="matrix(0.999751,0,0,0.999751,246.246,723.078)" font-weight="400">
   <path vector-effect="none" fill-rule="evenodd" d="M0,0 L83,0 L83,47 L0,47 L0,0"/>
  </g>
  <g stroke-width="3.07087" font-style="normal" stroke-opacity="1" stroke-linecap="square" font-family=".AppleSystemUIFont" stroke="#232323" stroke-linejoin="bevel" fill="#def5e5" fill-opacity="1" font-size="54.1667" transform="matrix(0.999751,0,0,0.999751,246.246,723.078)" font-weight="400">
   <path vector-effect="none" fill-rule="evenodd" d="M0,0 L83,0 L83,47 L0,47 L0,0"/>
  </g>
  <g stroke-width="1" font-style="normal" stroke-opacity="1" stroke-linecap="square" font-family=".AppleSystemUIFont" stroke="#000000" stroke-linejoin="bevel" fill="none" font-size="54.1667" transform="matrix(11.8081,0,0,11.8081,222.63,580.297)" font-weight="400"/>
  <g stroke-width="1" font-style="normal" stroke-opacity="1" stroke-linecap="square" font-family=".AppleSystemUIFont" stroke="#000000" stroke-linejoin="bevel" fill="none" font-size="54.1667" transform="matrix(0.999751,0,0,0.999751,222.63,580.297)" font-weight="400"/>
  <g stroke-width="1" font-style="normal" stroke-opacity="1" stroke-linecap="square" font-family=".AppleSystemUIFont" stroke="#000000" stroke-linejoin="bevel" fill="none" font-size="54.1667" transform="matrix(0.23994,0,0,0.23994,352.519,764.47)" font-weight="400"/>
  <g font-style="normal" font-family=".AppleSystemUIFont" stroke="none" fill="#000000" fill-opacity="1" font-size="54.1667" transform="matrix(0.999751,0,0,0.999751,352.519,764.47)" font-weight="400">
   <path vector-effect="none" fill-rule="nonzero" d="M15.1367,0.585938 C17.8385,0.585938 20.1579,-0.154622 22.0947,-1.63574 C24.0316,-3.11686 25.5168,-5.21647 26.5503,-7.93457 C27.5838,-10.6527 28.1006,-13.8753 28.1006,-17.6025 L28.1006,-17.6514 C28.1006,-21.3786 27.5838,-24.6012 26.5503,-27.3193 C25.5168,-30.0374 24.0316,-32.133 22.0947,-33.606 C20.1579,-35.0789 17.8385,-35.8154 15.1367,-35.8154 C12.4349,-35.8154 10.1196,-35.0789 8.19092,-33.606 C6.26221,-32.133 4.78516,-30.0374 3.75977,-27.3193 C2.73438,-24.6012 2.22168,-21.3786 2.22168,-17.6514 L2.22168,-17.6025 C2.22168,-13.8753 2.73438,-10.6527 3.75977,-7.93457 C4.78516,-5.21647 6.26221,-3.11686 8.19092,-1.63574 C10.1196,-0.154622 12.4349,0.585938 15.1367,0.585938 M15.1367,-3.24707 C13.3464,-3.24707 11.8164,-3.82894 10.5469,-4.99268 C9.27734,-6.15641 8.30892,-7.8125 7.6416,-9.96094 C6.97428,-12.1094 6.64063,-14.6566 6.64063,-17.6025 L6.64063,-17.6514 C6.64063,-20.5973 6.97428,-23.1405 7.6416,-25.2808 C8.30892,-27.4211 9.27734,-29.069 10.5469,-30.2246 C11.8164,-31.3802 13.3464,-31.958 15.1367,-31.958 C16.9271,-31.958 18.4611,-31.3802 19.7388,-30.2246 C21.0164,-29.069 21.993,-27.4211 22.6685,-25.2808 C23.3439,-23.1405 23.6816,-20.5973 23.6816,-17.6514 L23.6816,-17.6025 C23.6816,-14.6566 23.3439,-12.1094 22.6685,-9.96094 C21.993,-7.8125 21.0164,-6.15641 19.7388,-4.99268 C18.4611,-3.82894 16.9271,-3.24707 15.1367,-3.24707 M44.1553,-12.3047 L59.7803,-12.3047 L59.7803,-16.2598 L44.1553,-16.2598 L44.1553,-12.3047 M76.4658,0 L99.708,0 L99.708,-3.90625 L81.2021,-3.90625 L82.4961,-2.68555 L82.4961,-5.39551 L81.2021,-2.68555 L90.8701,-12.5977 C93.0348,-14.8112 94.7113,-16.6707 95.8994,-18.1763 C97.0876,-19.6818 97.9217,-21.0368 98.4019,-22.2412 C98.882,-23.4456 99.1221,-24.6908 99.1221,-25.9766 L99.1221,-26.0254 C99.1221,-27.8646 98.646,-29.5247 97.6938,-31.0059 C96.7417,-32.487 95.4355,-33.6589 93.7754,-34.5215 C92.1152,-35.3841 90.2191,-35.8154 88.0869,-35.8154 C85.9059,-35.8154 83.9162,-35.3556 82.1177,-34.436 C80.3192,-33.5164 78.891,-32.255 77.833,-30.6519 C76.7751,-29.0487 76.2461,-27.2298 76.2461,-25.1953 L76.2461,-25.0488 L80.4941,-25.0488 L80.4941,-25.1709 C80.4941,-26.4404 80.8278,-27.5879 81.4951,-28.6133 C82.1624,-29.6387 83.0739,-30.4565 84.2295,-31.0669 C85.3851,-31.6772 86.6953,-31.9824 88.1602,-31.9824 C89.446,-31.9824 90.5812,-31.7179 91.5659,-31.189 C92.5506,-30.66 93.3237,-29.9316 93.8853,-29.0039 C94.4468,-28.0762 94.7275,-27.0101 94.7275,-25.8057 L94.7275,-25.7568 C94.7275,-24.7803 94.5688,-23.8607 94.2515,-22.998 C93.9341,-22.1354 93.3563,-21.1629 92.5181,-20.0806 C91.6799,-18.9982 90.4632,-17.627 88.8682,-15.9668 L76.4658,-3.02734 L76.4658,0 M114.841,0.585938 C117.282,0.585938 119.447,0.0773112 121.335,-0.939941 C123.223,-1.95719 124.704,-3.36914 125.778,-5.17578 C126.853,-6.98242 127.39,-9.05762 127.39,-11.4014 L127.39,-11.4502 C127.39,-13.7126 126.889,-15.7186 125.888,-17.4683 C124.887,-19.2179 123.512,-20.5973 121.762,-21.6064 C120.013,-22.6156 118.007,-23.1201 115.744,-23.1201 C114.605,-23.1201 113.531,-22.9818 112.521,-22.7051 C111.512,-22.4284 110.601,-22.0215 109.787,-21.4844 C108.973,-20.9473 108.29,-20.2799 107.736,-19.4824 L107.639,-19.4824 L108.835,-31.3232 L125.388,-31.3232 L125.388,-35.2295 L105.222,-35.2295 L103.415,-15.1367 L107.297,-15.1367 C107.525,-15.5436 107.781,-15.918 108.066,-16.2598 C108.351,-16.6016 108.648,-16.9189 108.957,-17.2119 C109.738,-17.9281 110.638,-18.4611 111.655,-18.811 C112.672,-19.161 113.775,-19.3359 114.963,-19.3359 C116.525,-19.3359 117.909,-18.9941 119.113,-18.3105 C120.318,-17.627 121.266,-16.687 121.958,-15.4907 C122.649,-14.2944 122.995,-12.9232 122.995,-11.377 L122.995,-11.3281 C122.995,-9.74935 122.653,-8.35368 121.97,-7.14111 C121.286,-5.92855 120.334,-4.98047 119.113,-4.29688 C117.893,-3.61328 116.485,-3.27148 114.89,-3.27148 C113.49,-3.27148 112.229,-3.54004 111.105,-4.07715 C109.982,-4.61426 109.071,-5.35075 108.371,-6.28662 C107.671,-7.22249 107.248,-8.26823 107.102,-9.42383 L107.077,-9.61914 L102.756,-9.61914 L102.78,-9.35059 C102.959,-7.44629 103.578,-5.74544 104.636,-4.24805 C105.694,-2.75065 107.097,-1.57064 108.847,-0.708008 C110.597,0.154622 112.595,0.585938 114.841,0.585938 "/>
  </g>
  <g stroke-width="1" font-style="normal" stroke-opacity="1" stroke-linecap="square" font-family=".AppleSystemUIFont" stroke="#000000" stroke-linejoin="bevel" fill="none" font-size="54.1667" transform="matrix(0.23994,0,0,0.23994,352.519,764.47)" font-weight="400"/>
  <g stroke-width="1" font-style="normal" stroke-opacity="1" stroke-linecap="square" font-family=".AppleSystemUIFont" stroke="#000000" stroke-linejoin="bevel" fill="none" font-size="54.1667" transform="matrix(0.999751,0,0,0.999751,222.63,580.297)" font-weight="400"/>
  <g stroke-width="1" font-style="normal" stroke-opacity="1" stroke-linecap="square" font-family=".AppleSystemUIFont" stroke="#000000" stroke-linejoin="bevel" fill="none" font-size="54.1667" transform="matrix(11.8081,0,0,11.8081,222.63,580.297)" font-weight="400"/>
  <g stroke-width="3.07087" font-style="normal" stroke-opacity="1" stroke-linecap="square" font-family=".AppleSystemUIFont" stroke="#232323" stroke-linejoin="bevel" fill="#39abac" fill-opacity="1" font-size="54.1667" transform="matrix(0.999751,0,0,0.999751,246.246,799.831)" font-weight="400">
   <path vector-effect="none" fill-rule="evenodd" d="M0,0 L83,0 L83,47 L0,47 L0,0"/>
  </g>
  <g stroke-width="3.07087" font-style="normal" stroke-opacity="1" stroke-linecap="square" font-family=".AppleSystemUIFont" stroke="#232323" stroke-linejoin="bevel" fill="#39abac" fill-opacity="1" font-size="54.1667" transform="matrix(0.999751,0,0,0.999751,246.246,799.831)" font-weight="400">
   <path vector-effect="none" fill-rule="evenodd" d="M0,0 L83,0 L83,47 L0,47 L0,0"/>
  </g>
  <g stroke-width="1" font-style="normal" stroke-opacity="1" stroke-linecap="square" font-family=".AppleSystemUIFont" stroke="#000000" stroke-linejoin="bevel" fill="none" font-size="54.1667" transform="matrix(11.8081,0,0,11.8081,222.63,580.297)" font-weight="400"/>
  <g stroke-width="1" font-style="normal" stroke-opacity="1" stroke-linecap="square" font-family=".AppleSystemUIFont" stroke="#000000" stroke-linejoin="bevel" fill="none" font-size="54.1667" transform="matrix(0.999751,0,0,0.999751,222.63,580.297)" font-weight="400"/>
  <g stroke-width="1" font-style="normal" stroke-opacity="1" stroke-linecap="square" font-family=".AppleSystemUIFont" stroke="#000000" stroke-linejoin="bevel" fill="none" font-size="54.1667" transform="matrix(0.23994,0,0,0.23994,352.519,841.451)" font-weight="400"/>
  <g font-style="normal" font-family=".AppleSystemUIFont" stroke="none" fill="#000000" fill-opacity="1" font-size="54.1667" transform="matrix(0.999751,0,0,0.999751,352.519,841.451)" font-weight="400">
   <path vector-effect="none" fill-rule="nonzero" d="M2.85645,0 L26.0986,0 L26.0986,-3.90625 L7.59277,-3.90625 L8.88672,-2.68555 L8.88672,-5.39551 L7.59277,-2.68555 L17.2607,-12.5977 C19.4255,-14.8112 21.1019,-16.6707 22.29,-18.1763 C23.4782,-19.6818 24.3123,-21.0368 24.7925,-22.2412 C25.2726,-23.4456 25.5127,-24.6908 25.5127,-25.9766 L25.5127,-26.0254 C25.5127,-27.8646 25.0366,-29.5247 24.0845,-31.0059 C23.1323,-32.487 21.8262,-33.6589 20.166,-34.5215 C18.5059,-35.3841 16.6097,-35.8154 14.4775,-35.8154 C12.2965,-35.8154 10.3068,-35.3556 8.5083,-34.436 C6.7098,-33.5164 5.28158,-32.255 4.22363,-30.6519 C3.16569,-29.0487 2.63672,-27.2298 2.63672,-25.1953 L2.63672,-25.0488 L6.88477,-25.0488 L6.88477,-25.1709 C6.88477,-26.4404 7.21842,-27.5879 7.88574,-28.6133 C8.55306,-29.6387 9.46452,-30.4565 10.6201,-31.0669 C11.7757,-31.6772 13.0859,-31.9824 14.5508,-31.9824 C15.8366,-31.9824 16.9718,-31.7179 17.9565,-31.189 C18.9412,-30.66 19.7144,-29.9316 20.2759,-29.0039 C20.8374,-28.0762 21.1182,-27.0101 21.1182,-25.8057 L21.1182,-25.7568 C21.1182,-24.7803 20.9595,-23.8607 20.6421,-22.998 C20.3247,-22.1354 19.7469,-21.1629 18.9087,-20.0806 C18.0705,-18.9982 16.8538,-17.627 15.2588,-15.9668 L2.85645,-3.02734 L2.85645,0 M41.2314,0.585938 C43.6729,0.585938 45.8376,0.0773112 47.7256,-0.939941 C49.6136,-1.95719 51.0947,-3.36914 52.1689,-5.17578 C53.2432,-6.98242 53.7803,-9.05762 53.7803,-11.4014 L53.7803,-11.4502 C53.7803,-13.7126 53.2798,-15.7186 52.2788,-17.4683 C51.2778,-19.2179 49.9025,-20.5973 48.1528,-21.6064 C46.4032,-22.6156 44.3971,-23.1201 42.1348,-23.1201 C40.9954,-23.1201 39.9212,-22.9818 38.9121,-22.7051 C37.903,-22.4284 36.9915,-22.0215 36.1777,-21.4844 C35.3639,-20.9473 34.6803,-20.2799 34.127,-19.4824 L34.0293,-19.4824 L35.2256,-31.3232 L51.7783,-31.3232 L51.7783,-35.2295 L31.6123,-35.2295 L29.8057,-15.1367 L33.6875,-15.1367 C33.9154,-15.5436 34.1717,-15.918 34.4565,-16.2598 C34.7414,-16.6016 35.0384,-16.9189 35.3477,-17.2119 C36.1289,-17.9281 37.0282,-18.4611 38.0454,-18.811 C39.0627,-19.161 40.1654,-19.3359 41.3535,-19.3359 C42.916,-19.3359 44.2995,-18.9941 45.5039,-18.3105 C46.7083,-17.627 47.6564,-16.687 48.3481,-15.4907 C49.0399,-14.2944 49.3857,-12.9232 49.3857,-11.377 L49.3857,-11.3281 C49.3857,-9.74935 49.0439,-8.35368 48.3604,-7.14111 C47.6768,-5.92855 46.7246,-4.98047 45.5039,-4.29688 C44.2832,-3.61328 42.8753,-3.27148 41.2803,-3.27148 C39.8805,-3.27148 38.6191,-3.54004 37.4961,-4.07715 C36.373,-4.61426 35.4616,-5.35075 34.7617,-6.28662 C34.0618,-7.22249 33.6387,-8.26823 33.4922,-9.42383 L33.4678,-9.61914 L29.1465,-9.61914 L29.1709,-9.35059 C29.3499,-7.44629 29.9684,-5.74544 31.0264,-4.24805 C32.0843,-2.75065 33.4881,-1.57064 35.2378,-0.708008 C36.9875,0.154622 38.9854,0.585938 41.2314,0.585938 M69.3428,-12.3047 L84.9678,-12.3047 L84.9678,-16.2598 L69.3428,-16.2598 L69.3428,-12.3047 M113.519,0.585938 C115.879,0.585938 117.978,0.142415 119.817,-0.744629 C121.657,-1.63167 123.105,-2.84831 124.163,-4.39453 C125.221,-5.94076 125.75,-7.69043 125.75,-9.64355 L125.75,-9.69238 C125.75,-12.1989 124.957,-14.2131 123.37,-15.7349 C121.783,-17.2567 119.703,-18.1234 117.132,-18.335 L117.132,-18.4326 C118.597,-18.7419 119.891,-19.2708 121.014,-20.0195 C122.137,-20.7682 123.016,-21.7041 123.65,-22.8271 C124.285,-23.9502 124.603,-25.236 124.603,-26.6846 L124.603,-26.7334 C124.603,-28.5238 124.143,-30.0985 123.223,-31.4575 C122.304,-32.8166 121.01,-33.8826 119.341,-34.6558 C117.673,-35.4289 115.716,-35.8154 113.47,-35.8154 C111.272,-35.8154 109.332,-35.4167 107.647,-34.6191 C105.962,-33.8216 104.611,-32.7067 103.594,-31.2744 C102.577,-29.8421 101.971,-28.1657 101.775,-26.2451 L101.751,-26.001 L105.975,-26.001 L105.999,-26.2451 C106.129,-27.4333 106.52,-28.4587 107.171,-29.3213 C107.822,-30.1839 108.689,-30.8472 109.771,-31.311 C110.853,-31.7749 112.086,-32.0068 113.47,-32.0068 C114.902,-32.0068 116.119,-31.779 117.12,-31.3232 C118.121,-30.8675 118.882,-30.2083 119.402,-29.3457 C119.923,-28.4831 120.184,-27.4333 120.184,-26.1963 L120.184,-26.1475 C120.184,-24.9756 119.882,-23.9299 119.28,-23.0103 C118.678,-22.0907 117.84,-21.3664 116.766,-20.8374 C115.691,-20.3084 114.454,-20.0439 113.055,-20.0439 L108.831,-20.0439 L108.831,-16.333 L113.25,-16.333 C115.724,-16.333 117.681,-15.7511 119.122,-14.5874 C120.562,-13.4237 121.282,-11.7594 121.282,-9.59473 L121.282,-9.5459 C121.282,-8.30892 120.957,-7.21436 120.306,-6.26221 C119.655,-5.31006 118.747,-4.56543 117.583,-4.02832 C116.42,-3.49121 115.065,-3.22266 113.519,-3.22266 C111.956,-3.22266 110.581,-3.47087 109.393,-3.96729 C108.204,-4.4637 107.256,-5.15137 106.548,-6.03027 C105.84,-6.90918 105.421,-7.92643 105.291,-9.08203 L105.267,-9.32617 L101.043,-9.32617 L101.067,-9.0332 C101.23,-7.17773 101.836,-5.52572 102.886,-4.07715 C103.936,-2.62858 105.364,-1.48926 107.171,-0.65918 C108.978,0.170898 111.093,0.585938 113.519,0.585938 M139.638,0 L143.886,0 L143.886,-35.2295 L139.589,-35.2295 L130.214,-28.4912 L130.214,-24.0723 L139.54,-30.5664 L139.638,-30.5664 L139.638,0 M158.324,0.341797 C159.105,0.341797 159.765,0.0732422 160.302,-0.463867 C160.839,-1.00098 161.107,-1.66016 161.107,-2.44141 C161.107,-3.22266 160.839,-3.88184 160.302,-4.41895 C159.765,-4.95605 159.105,-5.22461 158.324,-5.22461 C157.543,-5.22461 156.884,-4.95605 156.347,-4.41895 C155.81,-3.88184 155.541,-3.22266 155.541,-2.44141 C155.541,-1.66016 155.81,-1.00098 156.347,-0.463867 C156.884,0.0732422 157.543,0.341797 158.324,0.341797 M168.586,0 L173.2,0 L188.874,-31.1523 L188.874,-35.2295 L165.559,-35.2295 L165.559,-31.3232 L184.528,-31.3232 L184.528,-31.2256 L168.586,0"/>
  </g>
  <g stroke-width="1" font-style="normal" stroke-opacity="1" stroke-linecap="square" font-family=".AppleSystemUIFont" stroke="#000000" stroke-linejoin="bevel" fill="none" font-size="54.1667" transform="matrix(0.23994,0,0,0.23994,352.519,841.451)" font-weight="400"/>
  <g stroke-width="1" font-style="normal" stroke-opacity="1" stroke-linecap="square" font-family=".AppleSystemUIFont" stroke="#000000" stroke-linejoin="bevel" fill="none" font-size="54.1667" transform="matrix(0.999751,0,0,0.999751,222.63,580.297)" font-weight="400"/>
  <g stroke-width="1" font-style="normal" stroke-opacity="1" stroke-linecap="square" font-family=".AppleSystemUIFont" stroke="#000000" stroke-linejoin="bevel" fill="none" font-size="54.1667" transform="matrix(11.8081,0,0,11.8081,222.63,580.297)" font-weight="400"/>
  <g stroke-width="3.07087" font-style="normal" stroke-opacity="1" stroke-linecap="square" font-family=".AppleSystemUIFont" stroke="#232323" stroke-linejoin="bevel" fill="#40498e" fill-opacity="1" font-size="54.1667" transform="matrix(0.999751,0,0,0.999751,246.246,876.583)" font-weight="400">
   <path vector-effect="none" fill-rule="evenodd" d="M0,0 L83,0 L83,47 L0,47 L0,0"/>
  </g>
  <g stroke-width="3.07087" font-style="normal" stroke-opacity="1" stroke-linecap="square" font-family=".AppleSystemUIFont" stroke="#232323" stroke-linejoin="bevel" fill="#40498e" fill-opacity="1" font-size="54.1667" transform="matrix(0.999751,0,0,0.999751,246.246,876.583)" font-weight="400">
   <path vector-effect="none" fill-rule="evenodd" d="M0,0 L83,0 L83,47 L0,47 L0,0"/>
  </g>
  <g stroke-width="1" font-style="normal" stroke-opacity="1" stroke-linecap="square" font-family=".AppleSystemUIFont" stroke="#000000" stroke-linejoin="bevel" fill="none" font-size="54.1667" transform="matrix(11.8081,0,0,11.8081,222.63,580.297)" font-weight="400"/>
  <g stroke-width="1" font-style="normal" stroke-opacity="1" stroke-linecap="square" font-family=".AppleSystemUIFont" stroke="#000000" stroke-linejoin="bevel" fill="none" font-size="54.1667" transform="matrix(0.999751,0,0,0.999751,222.63,580.297)" font-weight="400"/>
  <g stroke-width="1" font-style="normal" stroke-opacity="1" stroke-linecap="square" font-family=".AppleSystemUIFont" stroke="#000000" stroke-linejoin="bevel" fill="none" font-size="54.1667" transform="matrix(0.23994,0,0,0.23994,352.519,917.432)" font-weight="400"/>
  <g font-style="normal" font-family=".AppleSystemUIFont" stroke="none" fill="#000000" fill-opacity="1" font-size="54.1667" transform="matrix(0.999751,0,0,0.999751,352.519,917.432)" font-weight="400">
   <path vector-effect="none" fill-rule="nonzero" d="M14.7217,0.585938 C17.0817,0.585938 19.1813,0.142415 21.0205,-0.744629 C22.8597,-1.63167 24.3083,-2.84831 25.3662,-4.39453 C26.4242,-5.94076 26.9531,-7.69043 26.9531,-9.64355 L26.9531,-9.69238 C26.9531,-12.1989 26.1597,-14.2131 24.5728,-15.7349 C22.9858,-17.2567 20.9066,-18.1234 18.335,-18.335 L18.335,-18.4326 C19.7998,-18.7419 21.0938,-19.2708 22.2168,-20.0195 C23.3398,-20.7682 24.2188,-21.7041 24.8535,-22.8271 C25.4883,-23.9502 25.8057,-25.236 25.8057,-26.6846 L25.8057,-26.7334 C25.8057,-28.5238 25.3459,-30.0985 24.4263,-31.4575 C23.5067,-32.8166 22.2127,-33.8826 20.5444,-34.6558 C18.8761,-35.4289 16.9189,-35.8154 14.6729,-35.8154 C12.4756,-35.8154 10.5347,-35.4167 8.8501,-34.6191 C7.16553,-33.8216 5.81462,-32.7067 4.79736,-31.2744 C3.78011,-29.8421 3.17383,-28.1657 2.97852,-26.2451 L2.9541,-26.001 L7.17773,-26.001 L7.20215,-26.2451 C7.33236,-27.4333 7.72298,-28.4587 8.37402,-29.3213 C9.02507,-30.1839 9.89176,-30.8472 10.9741,-31.311 C12.0565,-31.7749 13.2894,-32.0068 14.6729,-32.0068 C16.1051,-32.0068 17.3218,-31.779 18.3228,-31.3232 C19.3237,-30.8675 20.0846,-30.2083 20.6055,-29.3457 C21.1263,-28.4831 21.3867,-27.4333 21.3867,-26.1963 L21.3867,-26.1475 C21.3867,-24.9756 21.0856,-23.9299 20.4834,-23.0103 C19.8812,-22.0907 19.043,-21.3664 17.9688,-20.8374 C16.8945,-20.3084 15.6576,-20.0439 14.2578,-20.0439 L10.0342,-20.0439 L10.0342,-16.333 L14.4531,-16.333 C16.9271,-16.333 18.8843,-15.7511 20.3247,-14.5874 C21.7651,-13.4237 22.4854,-11.7594 22.4854,-9.59473 L22.4854,-9.5459 C22.4854,-8.30892 22.1598,-7.21436 21.5088,-6.26221 C20.8577,-5.31006 19.9504,-4.56543 18.7866,-4.02832 C17.6229,-3.49121 16.2679,-3.22266 14.7217,-3.22266 C13.1592,-3.22266 11.7839,-3.47087 10.5957,-3.96729 C9.40755,-4.4637 8.45947,-5.15137 7.75146,-6.03027 C7.04346,-6.90918 6.62435,-7.92643 6.49414,-9.08203 L6.46973,-9.32617 L2.24609,-9.32617 L2.27051,-9.0332 C2.43327,-7.17773 3.03955,-5.52572 4.08936,-4.07715 C5.13916,-2.62858 6.56738,-1.48926 8.37402,-0.65918 C10.1807,0.170898 12.2965,0.585938 14.7217,0.585938 M40.8408,0 L45.0889,0 L45.0889,-35.2295 L40.792,-35.2295 L31.417,-28.4912 L31.417,-24.0723 L40.7432,-30.5664 L40.8408,-30.5664 L40.8408,0 M59.5273,0.341797 C60.3086,0.341797 60.9678,0.0732422 61.5049,-0.463867 C62.042,-1.00098 62.3105,-1.66016 62.3105,-2.44141 C62.3105,-3.22266 62.042,-3.88184 61.5049,-4.41895 C60.9678,-4.95605 60.3086,-5.22461 59.5273,-5.22461 C58.7461,-5.22461 58.0869,-4.95605 57.5498,-4.41895 C57.0127,-3.88184 56.7441,-3.22266 56.7441,-2.44141 C56.7441,-1.66016 57.0127,-1.00098 57.5498,-0.463867 C58.0869,0.0732422 58.7461,0.341797 59.5273,0.341797 M69.7891,0 L74.4033,0 L90.0771,-31.1523 L90.0771,-35.2295 L66.7617,-35.2295 L66.7617,-31.3232 L85.7314,-31.3232 L85.7314,-31.2256 L69.7891,0 M106.077,-12.3047 L121.702,-12.3047 L121.702,-16.2598 L106.077,-16.2598 L106.077,-12.3047 M150.253,0.585938 C152.613,0.585938 154.713,0.142415 156.552,-0.744629 C158.391,-1.63167 159.84,-2.84831 160.897,-4.39453 C161.955,-5.94076 162.484,-7.69043 162.484,-9.64355 L162.484,-9.69238 C162.484,-12.1989 161.691,-14.2131 160.104,-15.7349 C158.517,-17.2567 156.438,-18.1234 153.866,-18.335 L153.866,-18.4326 C155.331,-18.7419 156.625,-19.2708 157.748,-20.0195 C158.871,-20.7682 159.75,-21.7041 160.385,-22.8271 C161.02,-23.9502 161.337,-25.236 161.337,-26.6846 L161.337,-26.7334 C161.337,-28.5238 160.877,-30.0985 159.958,-31.4575 C159.038,-32.8166 157.744,-33.8826 156.076,-34.6558 C154.407,-35.4289 152.45,-35.8154 150.204,-35.8154 C148.007,-35.8154 146.066,-35.4167 144.381,-34.6191 C142.697,-33.8216 141.346,-32.7067 140.329,-31.2744 C139.311,-29.8421 138.705,-28.1657 138.51,-26.2451 L138.485,-26.001 L142.709,-26.001 L142.733,-26.2451 C142.864,-27.4333 143.254,-28.4587 143.905,-29.3213 C144.556,-30.1839 145.423,-30.8472 146.505,-31.311 C147.588,-31.7749 148.821,-32.0068 150.204,-32.0068 C151.636,-32.0068 152.853,-31.779 153.854,-31.3232 C154.855,-30.8675 155.616,-30.2083 156.137,-29.3457 C156.658,-28.4831 156.918,-27.4333 156.918,-26.1963 L156.918,-26.1475 C156.918,-24.9756 156.617,-23.9299 156.015,-23.0103 C155.412,-22.0907 154.574,-21.3664 153.5,-20.8374 C152.426,-20.3084 151.189,-20.0439 149.789,-20.0439 L145.565,-20.0439 L145.565,-16.333 L149.984,-16.333 C152.458,-16.333 154.416,-15.7511 155.856,-14.5874 C157.296,-13.4237 158.017,-11.7594 158.017,-9.59473 L158.017,-9.5459 C158.017,-8.30892 157.691,-7.21436 157.04,-6.26221 C156.389,-5.31006 155.482,-4.56543 154.318,-4.02832 C153.154,-3.49121 151.799,-3.22266 150.253,-3.22266 C148.69,-3.22266 147.315,-3.47087 146.127,-3.96729 C144.939,-4.4637 143.991,-5.15137 143.283,-6.03027 C142.575,-6.90918 142.156,-7.92643 142.025,-9.08203 L142.001,-9.32617 L137.777,-9.32617 L137.802,-9.0332 C137.965,-7.17773 138.571,-5.52572 139.621,-4.07715 C140.67,-2.62858 142.099,-1.48926 143.905,-0.65918 C145.712,0.170898 147.828,0.585938 150.253,0.585938 M180.419,0.585938 C182.86,0.585938 185.025,0.0773112 186.913,-0.939941 C188.801,-1.95719 190.282,-3.36914 191.356,-5.17578 C192.431,-6.98242 192.968,-9.05762 192.968,-11.4014 L192.968,-11.4502 C192.968,-13.7126 192.467,-15.7186 191.466,-17.4683 C190.465,-19.2179 189.09,-20.5973 187.34,-21.6064 C185.591,-22.6156 183.585,-23.1201 181.322,-23.1201 C180.183,-23.1201 179.109,-22.9818 178.1,-22.7051 C177.09,-22.4284 176.179,-22.0215 175.365,-21.4844 C174.551,-20.9473 173.868,-20.2799 173.314,-19.4824 L173.217,-19.4824 L174.413,-31.3232 L190.966,-31.3232 L190.966,-35.2295 L170.8,-35.2295 L168.993,-15.1367 L172.875,-15.1367 C173.103,-15.5436 173.359,-15.918 173.644,-16.2598 C173.929,-16.6016 174.226,-16.9189 174.535,-17.2119 C175.316,-17.9281 176.216,-18.4611 177.233,-18.811 C178.25,-19.161 179.353,-19.3359 180.541,-19.3359 C182.104,-19.3359 183.487,-18.9941 184.691,-18.3105 C185.896,-17.627 186.844,-16.687 187.536,-15.4907 C188.227,-14.2944 188.573,-12.9232 188.573,-11.377 L188.573,-11.3281 C188.573,-9.74935 188.231,-8.35368 187.548,-7.14111 C186.864,-5.92855 185.912,-4.98047 184.691,-4.29688 C183.471,-3.61328 182.063,-3.27148 180.468,-3.27148 C179.068,-3.27148 177.807,-3.54004 176.684,-4.07715 C175.561,-4.61426 174.649,-5.35075 173.949,-6.28662 C173.249,-7.22249 172.826,-8.26823 172.68,-9.42383 L172.655,-9.61914 L168.334,-9.61914 L168.358,-9.35059 C168.537,-7.44629 169.156,-5.74544 170.214,-4.24805 C171.272,-2.75065 172.676,-1.57064 174.425,-0.708008 C176.175,0.154622 178.173,0.585938 180.419,0.585938 M202.668,0.341797 C203.449,0.341797 204.108,0.0732422 204.646,-0.463867 C205.183,-1.00098 205.451,-1.66016 205.451,-2.44141 C205.451,-3.22266 205.183,-3.88184 204.646,-4.41895 C204.108,-4.95605 203.449,-5.22461 202.668,-5.22461 C201.887,-5.22461 201.228,-4.95605 200.69,-4.41895 C200.153,-3.88184 199.885,-3.22266 199.885,-2.44141 C199.885,-1.66016 200.153,-1.00098 200.69,-0.463867 C201.228,0.0732422 201.887,0.341797 202.668,0.341797 M219.481,0 L223.729,0 L223.729,-35.2295 L219.433,-35.2295 L210.058,-28.4912 L210.058,-24.0723 L219.384,-30.5664 L219.481,-30.5664 L219.481,0"/>
  </g>
  <g stroke-width="1" font-style="normal" stroke-opacity="1" stroke-linecap="square" font-family=".AppleSystemUIFont" stroke="#000000" stroke-linejoin="bevel" fill="none" font-size="54.1667" transform="matrix(0.23994,0,0,0.23994,352.519,917.432)" font-weight="400"/>
  <g stroke-width="1" font-style="normal" stroke-opacity="1" stroke-linecap="square" font-family=".AppleSystemUIFont" stroke="#000000" stroke-linejoin="bevel" fill="none" font-size="54.1667" transform="matrix(0.999751,0,0,0.999751,222.63,580.297)" font-weight="400"/>
  <g stroke-width="1" font-style="normal" stroke-opacity="1" stroke-linecap="square" font-family=".AppleSystemUIFont" stroke="#000000" stroke-linejoin="bevel" fill="none" font-size="54.1667" transform="matrix(11.8081,0,0,11.8081,222.63,580.297)" font-weight="400"/>
  <g stroke-width="3.07087" font-style="normal" stroke-opacity="1" stroke-linecap="square" font-family=".AppleSystemUIFont" stroke="#232323" stroke-linejoin="bevel" fill="#0b0405" fill-opacity="1" font-size="54.1667" transform="matrix(0.999751,0,0,0.999751,246.246,953.336)" font-weight="400">
   <path vector-effect="none" fill-rule="evenodd" d="M0,0 L83,0 L83,47 L0,47 L0,0"/>
  </g>
  <g stroke-width="3.07087" font-style="normal" stroke-opacity="1" stroke-linecap="square" font-family=".AppleSystemUIFont" stroke="#232323" stroke-linejoin="bevel" fill="#0b0405" fill-opacity="1" font-size="54.1667" transform="matrix(0.999751,0,0,0.999751,246.246,953.336)" font-weight="400">
   <path vector-effect="none" fill-rule="evenodd" d="M0,0 L83,0 L83,47 L0,47 L0,0"/>
  </g>
  <g stroke-width="1" font-style="normal" stroke-opacity="1" stroke-linecap="square" font-family=".AppleSystemUIFont" stroke="#000000" stroke-linejoin="bevel" fill="none" font-size="54.1667" transform="matrix(11.8081,0,0,11.8081,222.63,580.297)" font-weight="400"/>
  <g stroke-width="1" font-style="normal" stroke-opacity="1" stroke-linecap="square" font-family=".AppleSystemUIFont" stroke="#000000" stroke-linejoin="bevel" fill="none" font-size="54.1667" transform="matrix(0.999751,0,0,0.999751,222.63,580.297)" font-weight="400"/>
  <g stroke-width="1" font-style="normal" stroke-opacity="1" stroke-linecap="square" font-family=".AppleSystemUIFont" stroke="#000000" stroke-linejoin="bevel" fill="none" font-size="54.1667" transform="matrix(0.23994,0,0,0.23994,352.519,994.413)" font-weight="400"/>
  <g font-style="normal" font-family=".AppleSystemUIFont" stroke="none" fill="#000000" fill-opacity="1" font-size="54.1667" transform="matrix(0.999751,0,0,0.999751,352.519,994.413)" font-weight="400">
   <path vector-effect="none" fill-rule="nonzero" d="M14.7217,0.585938 C17.0817,0.585938 19.1813,0.142415 21.0205,-0.744629 C22.8597,-1.63167 24.3083,-2.84831 25.3662,-4.39453 C26.4242,-5.94076 26.9531,-7.69043 26.9531,-9.64355 L26.9531,-9.69238 C26.9531,-12.1989 26.1597,-14.2131 24.5728,-15.7349 C22.9858,-17.2567 20.9066,-18.1234 18.335,-18.335 L18.335,-18.4326 C19.7998,-18.7419 21.0938,-19.2708 22.2168,-20.0195 C23.3398,-20.7682 24.2188,-21.7041 24.8535,-22.8271 C25.4883,-23.9502 25.8057,-25.236 25.8057,-26.6846 L25.8057,-26.7334 C25.8057,-28.5238 25.3459,-30.0985 24.4263,-31.4575 C23.5067,-32.8166 22.2127,-33.8826 20.5444,-34.6558 C18.8761,-35.4289 16.9189,-35.8154 14.6729,-35.8154 C12.4756,-35.8154 10.5347,-35.4167 8.8501,-34.6191 C7.16553,-33.8216 5.81462,-32.7067 4.79736,-31.2744 C3.78011,-29.8421 3.17383,-28.1657 2.97852,-26.2451 L2.9541,-26.001 L7.17773,-26.001 L7.20215,-26.2451 C7.33236,-27.4333 7.72298,-28.4587 8.37402,-29.3213 C9.02507,-30.1839 9.89176,-30.8472 10.9741,-31.311 C12.0565,-31.7749 13.2894,-32.0068 14.6729,-32.0068 C16.1051,-32.0068 17.3218,-31.779 18.3228,-31.3232 C19.3237,-30.8675 20.0846,-30.2083 20.6055,-29.3457 C21.1263,-28.4831 21.3867,-27.4333 21.3867,-26.1963 L21.3867,-26.1475 C21.3867,-24.9756 21.0856,-23.9299 20.4834,-23.0103 C19.8812,-22.0907 19.043,-21.3664 17.9688,-20.8374 C16.8945,-20.3084 15.6576,-20.0439 14.2578,-20.0439 L10.0342,-20.0439 L10.0342,-16.333 L14.4531,-16.333 C16.9271,-16.333 18.8843,-15.7511 20.3247,-14.5874 C21.7651,-13.4237 22.4854,-11.7594 22.4854,-9.59473 L22.4854,-9.5459 C22.4854,-8.30892 22.1598,-7.21436 21.5088,-6.26221 C20.8577,-5.31006 19.9504,-4.56543 18.7866,-4.02832 C17.6229,-3.49121 16.2679,-3.22266 14.7217,-3.22266 C13.1592,-3.22266 11.7839,-3.47087 10.5957,-3.96729 C9.40755,-4.4637 8.45947,-5.15137 7.75146,-6.03027 C7.04346,-6.90918 6.62435,-7.92643 6.49414,-9.08203 L6.46973,-9.32617 L2.24609,-9.32617 L2.27051,-9.0332 C2.43327,-7.17773 3.03955,-5.52572 4.08936,-4.07715 C5.13916,-2.62858 6.56738,-1.48926 8.37402,-0.65918 C10.1807,0.170898 12.2965,0.585938 14.7217,0.585938 M44.8877,0.585938 C47.3291,0.585938 49.4938,0.0773112 51.3818,-0.939941 C53.2699,-1.95719 54.751,-3.36914 55.8252,-5.17578 C56.8994,-6.98242 57.4365,-9.05762 57.4365,-11.4014 L57.4365,-11.4502 C57.4365,-13.7126 56.936,-15.7186 55.9351,-17.4683 C54.9341,-19.2179 53.5588,-20.5973 51.8091,-21.6064 C50.0594,-22.6156 48.0534,-23.1201 45.791,-23.1201 C44.6517,-23.1201 43.5775,-22.9818 42.5684,-22.7051 C41.5592,-22.4284 40.6478,-22.0215 39.834,-21.4844 C39.0202,-20.9473 38.3366,-20.2799 37.7832,-19.4824 L37.6855,-19.4824 L38.8818,-31.3232 L55.4346,-31.3232 L55.4346,-35.2295 L35.2686,-35.2295 L33.4619,-15.1367 L37.3438,-15.1367 C37.5716,-15.5436 37.828,-15.918 38.1128,-16.2598 C38.3976,-16.6016 38.6947,-16.9189 39.0039,-17.2119 C39.7852,-17.9281 40.6844,-18.4611 41.7017,-18.811 C42.7189,-19.161 43.8216,-19.3359 45.0098,-19.3359 C46.5723,-19.3359 47.9557,-18.9941 49.1602,-18.3105 C50.3646,-17.627 51.3127,-16.687 52.0044,-15.4907 C52.6961,-14.2944 53.042,-12.9232 53.042,-11.377 L53.042,-11.3281 C53.042,-9.74935 52.7002,-8.35368 52.0166,-7.14111 C51.333,-5.92855 50.3809,-4.98047 49.1602,-4.29688 C47.9395,-3.61328 46.5316,-3.27148 44.9365,-3.27148 C43.5368,-3.27148 42.2754,-3.54004 41.1523,-4.07715 C40.0293,-4.61426 39.1178,-5.35075 38.418,-6.28662 C37.7181,-7.22249 37.2949,-8.26823 37.1484,-9.42383 L37.124,-9.61914 L32.8027,-9.61914 L32.8271,-9.35059 C33.0062,-7.44629 33.6247,-5.74544 34.6826,-4.24805 C35.7406,-2.75065 37.1444,-1.57064 38.894,-0.708008 C40.6437,0.154622 42.6416,0.585938 44.8877,0.585938 M67.1367,0.341797 C67.918,0.341797 68.5771,0.0732422 69.1143,-0.463867 C69.6514,-1.00098 69.9199,-1.66016 69.9199,-2.44141 C69.9199,-3.22266 69.6514,-3.88184 69.1143,-4.41895 C68.5771,-4.95605 67.918,-5.22461 67.1367,-5.22461 C66.3555,-5.22461 65.6963,-4.95605 65.1592,-4.41895 C64.6221,-3.88184 64.3535,-3.22266 64.3535,-2.44141 C64.3535,-1.66016 64.6221,-1.00098 65.1592,-0.463867 C65.6963,0.0732422 66.3555,0.341797 67.1367,0.341797 M83.9502,0 L88.1982,0 L88.1982,-35.2295 L83.9014,-35.2295 L74.5264,-28.4912 L74.5264,-24.0723 L83.8525,-30.5664 L83.9502,-30.5664 L83.9502,0 M108.108,-12.3047 L123.733,-12.3047 L123.733,-16.2598 L108.108,-16.2598 L108.108,-12.3047 M157.167,0 L161.415,0 L161.415,-7.32422 L166.396,-7.32422 L166.396,-11.1816 L161.415,-11.1816 L161.415,-35.2295 L154.921,-35.2295 C153.896,-33.6344 152.866,-32.0394 151.833,-30.4443 C150.799,-28.8493 149.77,-27.2542 148.744,-25.6592 C147.719,-24.0641 146.689,-22.4691 145.656,-20.874 C144.622,-19.279 143.589,-17.6839 142.555,-16.0889 C141.522,-14.4938 140.492,-12.8988 139.467,-11.3037 L139.467,-7.32422 L157.167,-7.32422 L157.167,0 M143.813,-11.1816 L143.813,-11.2793 C144.691,-12.6302 145.57,-13.9771 146.449,-15.3198 C147.328,-16.6626 148.211,-18.0094 149.098,-19.3604 C149.985,-20.7113 150.868,-22.0581 151.747,-23.4009 C152.626,-24.7437 153.505,-26.0864 154.384,-27.4292 C155.263,-28.772 156.142,-30.1188 157.021,-31.4697 L157.167,-31.4697 L157.167,-11.1816 L143.813,-11.1816 M184.091,0.585938 C186.532,0.585938 188.697,0.0773112 190.585,-0.939941 C192.473,-1.95719 193.954,-3.36914 195.028,-5.17578 C196.103,-6.98242 196.64,-9.05762 196.64,-11.4014 L196.64,-11.4502 C196.64,-13.7126 196.139,-15.7186 195.138,-17.4683 C194.137,-19.2179 192.762,-20.5973 191.012,-21.6064 C189.263,-22.6156 187.257,-23.1201 184.994,-23.1201 C183.855,-23.1201 182.781,-22.9818 181.771,-22.7051 C180.762,-22.4284 179.851,-22.0215 179.037,-21.4844 C178.223,-20.9473 177.54,-20.2799 176.986,-19.4824 L176.889,-19.4824 L178.085,-31.3232 L194.638,-31.3232 L194.638,-35.2295 L174.472,-35.2295 L172.665,-15.1367 L176.547,-15.1367 C176.775,-15.5436 177.031,-15.918 177.316,-16.2598 C177.601,-16.6016 177.898,-16.9189 178.207,-17.2119 C178.988,-17.9281 179.888,-18.4611 180.905,-18.811 C181.922,-19.161 183.025,-19.3359 184.213,-19.3359 C185.775,-19.3359 187.159,-18.9941 188.363,-18.3105 C189.568,-17.627 190.516,-16.687 191.208,-15.4907 C191.899,-14.2944 192.245,-12.9232 192.245,-11.377 L192.245,-11.3281 C192.245,-9.74935 191.903,-8.35368 191.22,-7.14111 C190.536,-5.92855 189.584,-4.98047 188.363,-4.29688 C187.143,-3.61328 185.735,-3.27148 184.14,-3.27148 C182.74,-3.27148 181.479,-3.54004 180.355,-4.07715 C179.232,-4.61426 178.321,-5.35075 177.621,-6.28662 C176.921,-7.22249 176.498,-8.26823 176.352,-9.42383 L176.327,-9.61914 L172.006,-9.61914 L172.03,-9.35059 C172.209,-7.44629 172.828,-5.74544 173.886,-4.24805 C174.944,-2.75065 176.347,-1.57064 178.097,-0.708008 C179.847,0.154622 181.845,0.585938 184.091,0.585938 M206.34,0.341797 C207.121,0.341797 207.78,0.0732422 208.317,-0.463867 C208.854,-1.00098 209.123,-1.66016 209.123,-2.44141 C209.123,-3.22266 208.854,-3.88184 208.317,-4.41895 C207.78,-4.95605 207.121,-5.22461 206.34,-5.22461 C205.559,-5.22461 204.899,-4.95605 204.362,-4.41895 C203.825,-3.88184 203.557,-3.22266 203.557,-2.44141 C203.557,-1.66016 203.825,-1.00098 204.362,-0.463867 C204.899,0.0732422 205.559,0.341797 206.34,0.341797 M232.084,0.585938 C234.574,0.585938 236.784,0.154622 238.712,-0.708008 C240.641,-1.57064 242.151,-2.76286 243.241,-4.28467 C244.332,-5.80648 244.877,-7.55208 244.877,-9.52148 L244.877,-9.57031 C244.877,-11.0189 244.56,-12.3617 243.925,-13.5986 C243.29,-14.8356 242.407,-15.8895 241.276,-16.7603 C240.145,-17.631 238.822,-18.2373 237.309,-18.5791 L237.309,-18.6768 C239.245,-19.279 240.779,-20.2718 241.911,-21.6553 C243.042,-23.0387 243.607,-24.6582 243.607,-26.5137 L243.607,-26.5625 C243.607,-28.3366 243.111,-29.9194 242.118,-31.311 C241.125,-32.7026 239.762,-33.8013 238.029,-34.6069 C236.295,-35.4126 234.314,-35.8154 232.084,-35.8154 C229.87,-35.8154 227.893,-35.4126 226.151,-34.6069 C224.41,-33.8013 223.043,-32.7026 222.05,-31.311 C221.057,-29.9194 220.561,-28.3366 220.561,-26.5625 L220.561,-26.5137 C220.561,-24.6582 221.13,-23.0387 222.27,-21.6553 C223.409,-20.2718 224.939,-19.279 226.859,-18.6768 L226.859,-18.5791 C225.362,-18.2373 224.044,-17.631 222.904,-16.7603 C221.765,-15.8895 220.878,-14.8356 220.243,-13.5986 C219.608,-12.3617 219.291,-11.0189 219.291,-9.57031 L219.291,-9.52148 C219.291,-7.55208 219.84,-5.80648 220.939,-4.28467 C222.038,-2.76286 223.547,-1.57064 225.468,-0.708008 C227.388,0.154622 229.594,0.585938 232.084,0.585938 M232.084,-3.24707 C230.473,-3.24707 229.04,-3.52783 227.787,-4.08936 C226.534,-4.65088 225.549,-5.42399 224.833,-6.40869 C224.117,-7.39339 223.759,-8.52051 223.759,-9.79004 L223.759,-9.83887 C223.759,-11.1247 224.113,-12.264 224.821,-13.2568 C225.529,-14.2497 226.509,-15.0309 227.763,-15.6006 C229.016,-16.1702 230.456,-16.4551 232.084,-16.4551 C233.712,-16.4551 235.152,-16.1702 236.405,-15.6006 C237.659,-15.0309 238.639,-14.2497 239.347,-13.2568 C240.055,-12.264 240.409,-11.1247 240.409,-9.83887 L240.409,-9.79004 C240.409,-8.52051 240.051,-7.39339 239.335,-6.40869 C238.619,-5.42399 237.638,-4.65088 236.393,-4.08936 C235.148,-3.52783 233.712,-3.24707 232.084,-3.24707 M232.084,-20.3125 C230.668,-20.3125 229.423,-20.5607 228.349,-21.0571 C227.274,-21.5535 226.436,-22.2412 225.834,-23.1201 C225.232,-23.999 224.931,-25.0081 224.931,-26.1475 L224.931,-26.1963 C224.931,-27.3356 225.232,-28.3447 225.834,-29.2236 C226.436,-30.1025 227.274,-30.7902 228.349,-31.2866 C229.423,-31.783 230.668,-32.0313 232.084,-32.0313 C233.5,-32.0313 234.745,-31.783 235.819,-31.2866 C236.894,-30.7902 237.732,-30.1025 238.334,-29.2236 C238.936,-28.3447 239.237,-27.3356 239.237,-26.1963 L239.237,-26.1475 C239.237,-25.0081 238.936,-23.999 238.334,-23.1201 C237.732,-22.2412 236.894,-21.5535 235.819,-21.0571 C234.745,-20.5607 233.5,-20.3125 232.084,-20.3125 "/>
  </g>
  <g stroke-width="1" font-style="normal" stroke-opacity="1" stroke-linecap="square" font-family=".AppleSystemUIFont" stroke="#000000" stroke-linejoin="bevel" fill="none" font-size="54.1667" transform="matrix(0.23994,0,0,0.23994,352.519,994.413)" font-weight="400"/>
  <g stroke-width="1" font-style="normal" stroke-opacity="1" stroke-linecap="square" font-family=".AppleSystemUIFont" stroke="#000000" stroke-linejoin="bevel" fill="none" font-size="54.1667" transform="matrix(0.999751,0,0,0.999751,222.63,580.297)" font-weight="400"/>
  <g stroke-width="1" font-style="normal" stroke-opacity="1" stroke-linecap="square" font-family=".AppleSystemUIFont" stroke="#000000" stroke-linejoin="bevel" fill="none" font-size="54.1667" transform="matrix(0.999751,0,0,0.999751,222.63,580.297)" font-weight="400"/>
  <g stroke-width="1" font-style="normal" stroke-opacity="1" stroke-linecap="square" font-family=".AppleSystemUIFont" stroke="#000000" stroke-linejoin="bevel" fill="none" font-size="54.1667" transform="matrix(11.8081,0,0,11.8081,222.63,580.297)" font-weight="400"/>
  <g stroke-width="1" font-style="normal" stroke-opacity="1" stroke-linecap="square" font-family=".AppleSystemUIFont" stroke="#000000" stroke-linejoin="bevel" fill="none" font-size="54.1667" transform="matrix(11.8081,0,0,11.8081,222.63,580.297)" font-weight="400"/>
  <g stroke-width="1" font-style="normal" stroke-opacity="1" stroke-linecap="square" font-family=".AppleSystemUIFont" stroke="#000000" stroke-linejoin="bevel" fill="none" font-size="54.1667" transform="matrix(11.8081,0,0,11.8081,222.63,580.297)" font-weight="400"/>
  <g stroke-width="1" font-style="normal" stroke-opacity="1" stroke-linecap="square" font-family=".AppleSystemUIFont" stroke="#000000" stroke-linejoin="bevel" fill="none" font-size="54.1667" transform="matrix(1,0,0,1,0,0)" font-weight="400"/>
 </g>
 <metadata>
  <rdf:RDF xmlns:dc="http://purl.org/dc/elements/1.1/" xmlns:rdf="http://www.w3.org/1999/02/22-rdf-syntax-ns#" xmlns:rdfs="http://www.w3.org/2000/01/rdf-schema#">
   <rdf:Description dc:format="image/svg+xml" dc:date="2024-07-17T10:30:51" dc:title="" dc:description="" dc:identifier="">
    <dc:creator>
     <rdf:Bag>
      <rdf:li>Carli Kooijman</rdf:li>
     </rdf:Bag>
    </dc:creator>
    <dc:publisher>
     <rdf:Bag>
      <rdf:li>QGIS 3.32.3-Lima</rdf:li>
     </rdf:Bag>
    </dc:publisher>
    <dc:subject>
     <rdf:Bag/>
    </dc:subject>
   </rdf:Description>
   <cc:Work rdf:about="">
    <dc:format>image/svg+xml</dc:format>
    <dc:title></dc:title>
    <dc:date>2024-07-17T10:30:51</dc:date>
    <dc:identifier></dc:identifier>
    <dc:description></dc:description>
    <dc:creator>
     <cc:Agent>
      <dc:title>Carli Kooijman</dc:title>
     </cc:Agent>
    </dc:creator>
    <dc:publisher>
     <cc:Agent>
      <dc:title>QGIS 3.32.3-Lima</dc:title>
     </cc:Agent>
    </dc:publisher>
   </cc:Work>
  </rdf:RDF>
 </metadata>
</svg>
