<?xml version='1.0' encoding='UTF-8' standalone='no'?>
<svg xmlns:inkscape="http://www.inkscape.org/namespaces/inkscape" xmlns="http://www.w3.org/2000/svg" baseProfile="tiny" version="1.2" width="296.926mm" height="209.973mm" xmlns:xlink="http://www.w3.org/1999/xlink" xmlns:cc="http://creativecommons.org/ns#" viewBox="0 0 3507 2480">
 <defs/>
 <g stroke-width="1" fill-rule="evenodd" inkscape:groupmode="layer" stroke-linecap="square" stroke="black" stroke-linejoin="bevel" fill="none" inkscape:label="Page" id="Page">
  <g stroke-width="1" font-style="normal" stroke-opacity="1" stroke-linecap="square" font-family=".AppleSystemUIFont" stroke="#000000" stroke-linejoin="bevel" fill="none" font-size="54.1667" transform="matrix(1,0,0,1,0,0)" font-weight="400"/>
  <g stroke-width="1" font-style="normal" stroke-opacity="1" stroke-linecap="square" font-family=".AppleSystemUIFont" stroke="#000000" stroke-linejoin="bevel" fill="none" font-size="54.1667" transform="matrix(1,0,0,1,0,0)" font-weight="400"/>
  <g stroke-width="1" font-style="normal" stroke-opacity="1" stroke-linecap="square" font-family=".AppleSystemUIFont" stroke="#000000" stroke-linejoin="bevel" fill="none" font-size="54.1667" transform="matrix(11.8081,0,0,11.8081,0,0)" font-weight="400"/>
  <g stroke-width="1" font-style="normal" stroke-opacity="1" stroke-linecap="square" font-family=".AppleSystemUIFont" stroke="#000000" stroke-linejoin="bevel" fill="none" font-size="54.1667" transform="matrix(0.999751,0,0,0.999751,0,0)" font-weight="400"/>
  <g font-style="normal" font-family=".AppleSystemUIFont" stroke="none" fill="#ffffff" fill-opacity="1" font-size="54.1667" transform="matrix(0.999751,0,0,0.999751,0,0)" font-weight="400">
   <path vector-effect="none" fill-rule="evenodd" d="M-2,-2 L3510,-2 L3510,2483 L-2,2483 L-2,-2"/>
  </g>
  <g stroke-width="1" font-style="normal" stroke-opacity="1" stroke-linecap="square" font-family=".AppleSystemUIFont" stroke="#000000" stroke-linejoin="bevel" fill="none" font-size="54.1667" transform="matrix(0.999751,0,0,0.999751,0,0)" font-weight="400"/>
  <g stroke-width="1" font-style="normal" stroke-opacity="1" stroke-linecap="square" font-family=".AppleSystemUIFont" stroke="#000000" stroke-linejoin="bevel" fill="none" font-size="54.1667" transform="matrix(11.8081,0,0,11.8081,0,0)" font-weight="400"/>
  <g stroke-width="1" font-style="normal" stroke-opacity="1" stroke-linecap="square" font-family=".AppleSystemUIFont" stroke="#000000" stroke-linejoin="bevel" fill="none" font-size="54.1667" transform="matrix(11.8081,0,0,11.8081,0,0)" font-weight="400"/>
  <g stroke-width="1" font-style="normal" stroke-opacity="1" stroke-linecap="square" font-family=".AppleSystemUIFont" stroke="#000000" stroke-linejoin="bevel" fill="none" font-size="54.1667" transform="matrix(1,0,0,1,0,0)" font-weight="400"/>
 </g>
 <defs/>
 <g stroke-width="1" fill-rule="evenodd" inkscape:groupmode="layer" stroke-linecap="square" stroke="black" stroke-linejoin="bevel" fill="none" inkscape:label="Legend" id="Legend">
  <g stroke-width="1" font-style="normal" stroke-opacity="1" stroke-linecap="square" font-family=".AppleSystemUIFont" stroke="#000000" stroke-linejoin="bevel" fill="none" font-size="54.1667" transform="matrix(1,0,0,1,0,0)" font-weight="400"/>
  <g stroke-width="1" font-style="normal" stroke-opacity="1" stroke-linecap="square" font-family=".AppleSystemUIFont" stroke="#000000" stroke-linejoin="bevel" fill="none" font-size="54.1667" transform="matrix(1,0,0,1,0,0)" font-weight="400"/>
  <g stroke-width="1" font-style="normal" stroke-opacity="1" stroke-linecap="square" font-family=".AppleSystemUIFont" stroke="#000000" stroke-linejoin="bevel" fill="none" font-size="54.1667" transform="matrix(11.8081,0,0,11.8081,222.63,368.617)" font-weight="400"/>
  <g stroke-width="1" font-style="normal" stroke-opacity="1" stroke-linecap="square" font-family=".AppleSystemUIFont" stroke="#000000" stroke-linejoin="bevel" fill="none" font-size="54.1667" transform="matrix(11.8081,0,0,11.8081,222.63,368.617)" font-weight="400"/>
  <g stroke-width="1" font-style="normal" stroke-opacity="1" stroke-linecap="square" font-family=".AppleSystemUIFont" stroke="#000000" stroke-linejoin="bevel" fill="none" font-size="54.1667" transform="matrix(11.8081,0,0,11.8081,222.63,368.617)" font-weight="400"/>
  <g font-style="normal" font-family=".AppleSystemUIFont" stroke="none" fill="#ffffff" fill-opacity="1" font-size="54.1667" transform="matrix(11.8081,0,0,11.8081,222.63,368.617)" font-weight="400">
   <path vector-effect="none" fill-rule="evenodd" d="M0,0 L66.5105,0 L66.5105,44.0918 L0,44.0918 L0,0"/>
  </g>
  <g stroke-width="1" font-style="normal" stroke-opacity="1" stroke-linecap="square" font-family=".AppleSystemUIFont" stroke="#000000" stroke-linejoin="bevel" fill="none" font-size="54.1667" transform="matrix(11.8081,0,0,11.8081,222.63,368.617)" font-weight="400"/>
  <g stroke-width="1" font-style="normal" stroke-opacity="1" stroke-linecap="square" font-family=".AppleSystemUIFont" stroke="#000000" stroke-linejoin="bevel" fill="none" font-size="54.1667" transform="matrix(0.999751,0,0,0.999751,222.63,368.617)" font-weight="400"/>
  <g stroke-width="1" font-style="normal" stroke-opacity="1" stroke-linecap="square" font-family=".AppleSystemUIFont" stroke="#000000" stroke-linejoin="bevel" fill="none" font-size="54.1667" transform="matrix(0.999751,0,0,0.999751,222.63,368.617)" font-weight="400"/>
  <g stroke-width="1" font-style="normal" stroke-opacity="1" stroke-linecap="square" font-family=".AppleSystemUIFont" stroke="#000000" stroke-linejoin="bevel" fill="none" font-size="54.1667" transform="matrix(0.23994,0,0,0.23994,246.246,479.343)" font-weight="400"/>
  <g font-style="normal" font-family=".AppleSystemUIFont" stroke="none" fill="#000000" fill-opacity="1" font-size="54.1667" transform="matrix(0.999751,0,0,0.999751,246.246,479.343)" font-weight="400">
   <path vector-effect="none" fill-rule="nonzero" d="M5.61523,-12.5732 L15.9668,-12.5732 C18.1803,-12.5732 20.1335,-13.0534 21.8262,-14.0137 C23.5189,-14.974 24.8494,-16.3086 25.8179,-18.0176 C26.7863,-19.7266 27.2705,-21.696 27.2705,-23.9258 L27.2705,-23.9746 C27.2705,-26.2044 26.7863,-28.1657 25.8179,-29.8584 C24.8494,-31.5511 23.5189,-32.8695 21.8262,-33.8135 C20.1335,-34.7575 18.1803,-35.2295 15.9668,-35.2295 L5.61523,-35.2295 L5.61523,-31.3232 L14.8438,-31.3232 C17.3665,-31.3232 19.3197,-30.6722 20.7031,-29.3701 C22.0866,-28.068 22.7783,-26.2533 22.7783,-23.9258 L22.7783,-23.877 C22.7783,-21.5658 22.0866,-19.755 20.7031,-18.4448 C19.3197,-17.1346 17.3665,-16.4795 14.8438,-16.4795 L5.61523,-16.4795 L5.61523,-12.5732 M3.41797,0 L7.8125,0 L7.8125,-35.2295 L3.41797,-35.2295 L3.41797,0 M46.4688,0.488281 C48.8125,0.488281 50.8633,-0.0488281 52.6211,-1.12305 C54.3789,-2.19727 55.7502,-3.71908 56.7349,-5.68848 C57.7196,-7.65788 58.2119,-9.99349 58.2119,-12.6953 L58.2119,-12.7441 C58.2119,-15.446 57.7196,-17.7775 56.7349,-19.7388 C55.7502,-21.7 54.3748,-23.2137 52.6089,-24.2798 C50.8429,-25.3459 48.7881,-25.8789 46.4443,-25.8789 C44.1169,-25.8789 42.0701,-25.3459 40.3042,-24.2798 C38.5382,-23.2137 37.1629,-21.7 36.1782,-19.7388 C35.1935,-17.7775 34.7012,-15.446 34.7012,-12.7441 L34.7012,-12.6953 C34.7012,-10.0098 35.1935,-7.67822 36.1782,-5.70068 C37.1629,-3.72314 38.5382,-2.19727 40.3042,-1.12305 C42.0701,-0.0488281 44.125,0.488281 46.4688,0.488281 M46.4932,-3.27148 C44.9958,-3.27148 43.6896,-3.64176 42.5747,-4.38232 C41.4598,-5.12288 40.5931,-6.1971 39.9746,-7.60498 C39.3561,-9.01286 39.0469,-10.7096 39.0469,-12.6953 L39.0469,-12.7441 C39.0469,-14.7298 39.3561,-16.4185 39.9746,-17.8101 C40.5931,-19.2017 41.4598,-20.2677 42.5747,-21.0083 C43.6896,-21.7489 44.9795,-22.1191 46.4443,-22.1191 C47.9417,-22.1191 49.2479,-21.7529 50.3628,-21.0205 C51.4777,-20.2881 52.3403,-19.222 52.9507,-17.8223 C53.561,-16.4225 53.8662,-14.7298 53.8662,-12.7441 L53.8662,-12.6953 C53.8662,-10.7096 53.561,-9.01286 52.9507,-7.60498 C52.3403,-6.1971 51.4858,-5.12288 50.3872,-4.38232 C49.2886,-3.64176 47.9906,-3.27148 46.4932,-3.27148 M62.8213,8.54492 L67.0693,8.54492 L67.0693,-4.24805 L67.167,-4.24805 C67.7041,-3.27148 68.3755,-2.4292 69.1812,-1.72119 C69.9868,-1.01318 70.9105,-0.467936 71.9521,-0.0854492 C72.9938,0.297038 74.1087,0.488281 75.2969,0.488281 C77.429,0.488281 79.2967,-0.0528971 80.8999,-1.13525 C82.5031,-2.21761 83.7563,-3.74349 84.6597,-5.71289 C85.563,-7.68229 86.0146,-10.0016 86.0146,-12.6709 L86.0146,-12.6953 C86.0146,-15.3646 85.5671,-17.688 84.6719,-19.6655 C83.7767,-21.6431 82.5194,-23.173 80.8999,-24.2554 C79.2804,-25.3377 77.3883,-25.8789 75.2236,-25.8789 C74.0192,-25.8789 72.9043,-25.6836 71.8789,-25.293 C70.8535,-24.9023 69.9461,-24.353 69.1567,-23.645 C68.3674,-22.937 67.7041,-22.0866 67.167,-21.0938 L67.0693,-21.0938 L67.0693,-25.3906 L62.8213,-25.3906 L62.8213,8.54492 M74.3936,-3.27148 C72.9613,-3.27148 71.6958,-3.66211 70.5972,-4.44336 C69.4985,-5.22461 68.6318,-6.31917 67.9971,-7.72705 C67.3623,-9.13493 67.0449,-10.7829 67.0449,-12.6709 L67.0449,-12.6953 C67.0449,-14.5996 67.3582,-16.2557 67.9849,-17.6636 C68.6115,-19.0715 69.4782,-20.166 70.585,-20.9473 C71.6917,-21.7285 72.9613,-22.1191 74.3936,-22.1191 C75.891,-22.1191 77.1849,-21.7407 78.2754,-20.9839 C79.3659,-20.2271 80.2041,-19.1447 80.79,-17.7368 C81.376,-16.3289 81.6689,-14.6484 81.6689,-12.6953 L81.6689,-12.6709 C81.6689,-10.7503 81.376,-9.0861 80.79,-7.67822 C80.2041,-6.27035 79.3659,-5.18392 78.2754,-4.41895 C77.1849,-3.65397 75.891,-3.27148 74.3936,-3.27148 M99.2852,0.488281 C100.571,0.488281 101.718,0.309245 102.728,-0.0488281 C103.737,-0.406901 104.603,-0.895182 105.328,-1.51367 C106.052,-2.13216 106.642,-2.83203 107.098,-3.61328 L107.195,-3.61328 L107.195,0 L111.443,0 L111.443,-25.3906 L107.195,-25.3906 L107.195,-10.4492 C107.195,-9.375 107.041,-8.39437 106.731,-7.50732 C106.422,-6.62028 105.975,-5.86344 105.389,-5.23682 C104.803,-4.61019 104.107,-4.12598 103.301,-3.78418 C102.496,-3.44238 101.588,-3.27148 100.579,-3.27148 C98.626,-3.27148 97.1652,-3.8208 96.1968,-4.91943 C95.2284,-6.01807 94.7441,-7.60091 94.7441,-9.66797 L94.7441,-25.3906 L90.4961,-25.3906 L90.4961,-8.91113 C90.4961,-6.99056 90.842,-5.32633 91.5337,-3.91846 C92.2254,-2.51058 93.2264,-1.42415 94.5366,-0.65918 C95.8468,0.105794 97.4297,0.488281 99.2852,0.488281 M117.51,0 L121.758,0 L121.758,-35.2295 L117.51,-35.2295 L117.51,0 M135.259,0.488281 C136.398,0.488281 137.476,0.297038 138.494,-0.0854492 C139.511,-0.467936 140.426,-1.00505 141.24,-1.69678 C142.054,-2.38851 142.705,-3.19824 143.193,-4.12598 L143.291,-4.12598 L143.291,0 L147.539,0 L147.539,-17.5537 C147.539,-19.2464 147.14,-20.7153 146.343,-21.9604 C145.545,-23.2056 144.418,-24.1699 142.961,-24.8535 C141.505,-25.5371 139.775,-25.8789 137.773,-25.8789 C135.788,-25.8789 134.071,-25.5412 132.622,-24.8657 C131.174,-24.1903 130.038,-23.2829 129.216,-22.1436 C128.394,-21.0042 127.918,-19.7347 127.788,-18.335 L127.764,-18.0664 L131.865,-18.0664 L131.914,-18.2861 C132.158,-19.4255 132.781,-20.3491 133.782,-21.0571 C134.783,-21.7651 136.097,-22.1191 137.725,-22.1191 C139.499,-22.1191 140.87,-21.6756 141.838,-20.7886 C142.807,-19.9015 143.291,-18.6849 143.291,-17.1387 L143.291,-9.64355 C143.291,-8.42285 142.978,-7.32422 142.351,-6.34766 C141.724,-5.37109 140.878,-4.60205 139.812,-4.04053 C138.746,-3.479 137.546,-3.19824 136.211,-3.19824 C134.681,-3.19824 133.456,-3.55632 132.537,-4.27246 C131.617,-4.98861 131.157,-5.95703 131.157,-7.17773 L131.157,-7.22656 C131.157,-8.41471 131.625,-9.36686 132.561,-10.083 C133.497,-10.7992 134.811,-11.2061 136.504,-11.3037 L145.415,-11.8408 L145.415,-15.1367 L136.016,-14.5996 C134.079,-14.4857 132.423,-14.1195 131.047,-13.501 C129.672,-12.8825 128.622,-12.0443 127.898,-10.9863 C127.174,-9.92839 126.812,-8.67513 126.812,-7.22656 L126.812,-7.17773 C126.812,-5.64779 127.166,-4.30501 127.874,-3.14941 C128.582,-1.99382 129.57,-1.09863 130.84,-0.463867 C132.109,0.170898 133.582,0.488281 135.259,0.488281 M161.526,0.488281 C161.95,0.488281 162.369,0.467936 162.784,0.427246 C163.199,0.386556 163.536,0.349935 163.797,0.317383 L163.797,-3.125 C163.618,-3.10872 163.41,-3.08838 163.174,-3.06396 C162.938,-3.03955 162.69,-3.02734 162.43,-3.02734 C161.29,-3.02734 160.428,-3.26742 159.842,-3.74756 C159.256,-4.2277 158.963,-5.14323 158.963,-6.49414 L158.963,-21.875 L163.797,-21.875 L163.797,-25.3906 L158.963,-25.3906 L158.963,-32.251 L154.568,-32.251 L154.568,-25.3906 L150.857,-25.3906 L150.857,-21.875 L154.568,-21.875 L154.568,-6.46973 C154.568,-4.0446 155.146,-2.27865 156.302,-1.17188 C157.457,-0.0651042 159.199,0.488281 161.526,0.488281 M168.934,0 L173.182,0 L173.182,-25.3906 L168.934,-25.3906 L168.934,0 M171.058,-29.6875 C171.806,-29.6875 172.437,-29.9479 172.95,-30.4688 C173.462,-30.9896 173.719,-31.6162 173.719,-32.3486 C173.719,-33.0973 173.462,-33.728 172.95,-34.2407 C172.437,-34.7534 171.806,-35.0098 171.058,-35.0098 C170.325,-35.0098 169.699,-34.7534 169.178,-34.2407 C168.657,-33.728 168.396,-33.0973 168.396,-32.3486 C168.396,-31.6162 168.657,-30.9896 169.178,-30.4688 C169.699,-29.9479 170.325,-29.6875 171.058,-29.6875 M189.828,0.488281 C192.172,0.488281 194.223,-0.0488281 195.98,-1.12305 C197.738,-2.19727 199.11,-3.71908 200.094,-5.68848 C201.079,-7.65788 201.571,-9.99349 201.571,-12.6953 L201.571,-12.7441 C201.571,-15.446 201.079,-17.7775 200.094,-19.7388 C199.11,-21.7 197.734,-23.2137 195.968,-24.2798 C194.202,-25.3459 192.147,-25.8789 189.804,-25.8789 C187.476,-25.8789 185.43,-25.3459 183.664,-24.2798 C181.898,-23.2137 180.522,-21.7 179.538,-19.7388 C178.553,-17.7775 178.061,-15.446 178.061,-12.7441 L178.061,-12.6953 C178.061,-10.0098 178.553,-7.67822 179.538,-5.70068 C180.522,-3.72314 181.898,-2.19727 183.664,-1.12305 C185.43,-0.0488281 187.484,0.488281 189.828,0.488281 M189.853,-3.27148 C188.355,-3.27148 187.049,-3.64176 185.934,-4.38232 C184.819,-5.12288 183.952,-6.1971 183.334,-7.60498 C182.715,-9.01286 182.406,-10.7096 182.406,-12.6953 L182.406,-12.7441 C182.406,-14.7298 182.715,-16.4185 183.334,-17.8101 C183.952,-19.2017 184.819,-20.2677 185.934,-21.0083 C187.049,-21.7489 188.339,-22.1191 189.804,-22.1191 C191.301,-22.1191 192.607,-21.7529 193.722,-21.0205 C194.837,-20.2881 195.7,-19.222 196.31,-17.8223 C196.92,-16.4225 197.226,-14.7298 197.226,-12.7441 L197.226,-12.6953 C197.226,-10.7096 196.92,-9.01286 196.31,-7.60498 C195.7,-6.1971 194.845,-5.12288 193.747,-4.38232 C192.648,-3.64176 191.35,-3.27148 189.853,-3.27148 M206.181,0 L210.429,0 L210.429,-14.9414 C210.429,-16.39 210.701,-17.6514 211.247,-18.7256 C211.792,-19.7998 212.561,-20.634 213.554,-21.228 C214.547,-21.8221 215.71,-22.1191 217.045,-22.1191 C218.998,-22.1191 220.459,-21.5698 221.427,-20.4712 C222.396,-19.3726 222.88,-17.7897 222.88,-15.7227 L222.88,0 L227.128,0 L227.128,-16.4795 C227.128,-19.3766 226.359,-21.6675 224.821,-23.3521 C223.283,-25.0366 221.122,-25.8789 218.339,-25.8789 C216.418,-25.8789 214.807,-25.4924 213.505,-24.7192 C212.203,-23.9461 211.21,-22.9655 210.526,-21.7773 L210.429,-21.7773 L210.429,-25.3906 L206.181,-25.3906 L206.181,0 M252.992,0.488281 C254.213,0.488281 255.332,0.292969 256.349,-0.0976563 C257.366,-0.488281 258.274,-1.0376 259.071,-1.74561 C259.869,-2.45361 260.528,-3.30404 261.049,-4.29688 L261.146,-4.29688 L261.146,0 L265.395,0 L265.395,-35.2295 L261.146,-35.2295 L261.146,-21.1426 L261.049,-21.1426 C260.528,-22.1191 259.861,-22.9614 259.047,-23.6694 C258.233,-24.3774 257.309,-24.9227 256.276,-25.3052 C255.242,-25.6877 254.123,-25.8789 252.919,-25.8789 C250.803,-25.8789 248.939,-25.3377 247.328,-24.2554 C245.717,-23.173 244.459,-21.6471 243.556,-19.6777 C242.653,-17.7083 242.201,-15.389 242.201,-12.7197 L242.201,-12.6953 C242.201,-10.026 242.649,-7.70264 243.544,-5.7251 C244.439,-3.74756 245.696,-2.21761 247.316,-1.13525 C248.935,-0.0528971 250.827,0.488281 252.992,0.488281 M253.822,-3.27148 C252.325,-3.27148 251.031,-3.6499 249.94,-4.40674 C248.85,-5.16357 248.012,-6.25 247.426,-7.66602 C246.84,-9.08203 246.547,-10.7585 246.547,-12.6953 L246.547,-12.7197 C246.547,-14.6566 246.84,-16.3249 247.426,-17.7246 C248.012,-19.1243 248.85,-20.2067 249.94,-20.9717 C251.031,-21.7367 252.325,-22.1191 253.822,-22.1191 C255.255,-22.1191 256.52,-21.7285 257.619,-20.9473 C258.717,-20.166 259.584,-19.0715 260.219,-17.6636 C260.854,-16.2557 261.171,-14.6077 261.171,-12.7197 L261.171,-12.6953 C261.171,-10.8073 260.858,-9.15527 260.231,-7.73926 C259.604,-6.32324 258.738,-5.22461 257.631,-4.44336 C256.524,-3.66211 255.255,-3.27148 253.822,-3.27148 M281.911,0.488281 C283.295,0.488281 284.58,0.297038 285.769,-0.0854492 C286.957,-0.467936 288.015,-1.00505 288.942,-1.69678 C289.87,-2.38851 290.631,-3.1901 291.225,-4.10156 C291.819,-5.01302 292.222,-5.98958 292.434,-7.03125 L292.482,-7.27539 L288.308,-7.27539 L288.234,-7.05566 C287.99,-6.32324 287.583,-5.6722 287.014,-5.10254 C286.444,-4.53288 285.736,-4.08529 284.89,-3.75977 C284.043,-3.43424 283.083,-3.27148 282.009,-3.27148 C280.479,-3.27148 279.152,-3.60921 278.029,-4.28467 C276.906,-4.96012 276.04,-5.93262 275.429,-7.20215 C274.819,-8.47168 274.514,-10.0016 274.514,-11.792 L274.514,-13.4277 C274.514,-15.3158 274.823,-16.9067 275.441,-18.2007 C276.06,-19.4946 276.906,-20.4712 277.98,-21.1304 C279.055,-21.7896 280.267,-22.1191 281.618,-22.1191 C282.969,-22.1191 284.165,-21.8058 285.207,-21.1792 C286.249,-20.5526 287.067,-19.5964 287.661,-18.3105 C288.255,-17.0247 288.552,-15.3971 288.552,-13.4277 L288.552,-11.792 L290.7,-14.8682 L272.341,-14.8682 L272.341,-11.5479 L292.8,-11.5479 L292.8,-13.1104 C292.8,-15.6494 292.352,-17.8792 291.457,-19.7998 C290.562,-21.7204 289.28,-23.2137 287.612,-24.2798 C285.944,-25.3459 283.954,-25.8789 281.643,-25.8789 C279.331,-25.8789 277.321,-25.3215 275.612,-24.2065 C273.903,-23.0916 272.577,-21.5373 271.633,-19.5435 C270.689,-17.5496 270.217,-15.2425 270.217,-12.6221 L270.217,-12.5977 C270.217,-9.94466 270.685,-7.63753 271.621,-5.67627 C272.556,-3.71501 273.899,-2.19727 275.649,-1.12305 C277.399,-0.0488281 279.486,0.488281 281.911,0.488281 M297.399,0 L301.647,0 L301.647,-14.9414 C301.647,-16.39 301.92,-17.6514 302.465,-18.7256 C303.011,-19.7998 303.78,-20.634 304.772,-21.228 C305.765,-21.8221 306.929,-22.1191 308.264,-22.1191 C310.217,-22.1191 311.678,-21.5698 312.646,-20.4712 C313.614,-19.3726 314.099,-17.7897 314.099,-15.7227 L314.099,0 L318.347,0 L318.347,-16.4795 C318.347,-19.3766 317.578,-21.6675 316.04,-23.3521 C314.501,-25.0366 312.341,-25.8789 309.558,-25.8789 C307.637,-25.8789 306.026,-25.4924 304.724,-24.7192 C303.422,-23.9461 302.429,-22.9655 301.745,-21.7773 L301.647,-21.7773 L301.647,-25.3906 L297.399,-25.3906 L297.399,0 M333.08,0.488281 C334.968,0.488281 336.657,0.166829 338.146,-0.476074 C339.635,-1.11898 340.807,-2.01009 341.662,-3.14941 C342.516,-4.28874 342.943,-5.59896 342.943,-7.08008 L342.943,-7.10449 C342.943,-8.30892 342.715,-9.34652 342.26,-10.2173 C341.804,-11.0881 341.068,-11.8327 340.05,-12.4512 C339.033,-13.0697 337.67,-13.5824 335.961,-13.9893 L331.933,-14.9658 C331.005,-15.1937 330.248,-15.4785 329.662,-15.8203 C329.076,-16.1621 328.649,-16.5649 328.38,-17.0288 C328.112,-17.4927 327.978,-18.0094 327.978,-18.5791 L327.978,-18.6035 C327.978,-19.3522 328.177,-20.0073 328.576,-20.5688 C328.974,-21.1304 329.548,-21.5658 330.297,-21.875 C331.046,-22.1842 331.933,-22.3389 332.958,-22.3389 C334.537,-22.3389 335.786,-21.9645 336.706,-21.2158 C337.625,-20.4671 338.166,-19.4743 338.329,-18.2373 L338.354,-18.0664 L342.406,-18.0664 L342.382,-18.3838 C342.284,-19.7998 341.841,-21.0734 341.051,-22.2046 C340.262,-23.3358 339.18,-24.231 337.804,-24.8901 C336.429,-25.5493 334.813,-25.8789 332.958,-25.8789 C331.135,-25.8789 329.52,-25.5615 328.112,-24.9268 C326.704,-24.292 325.605,-23.4131 324.816,-22.29 C324.027,-21.167 323.632,-19.873 323.632,-18.4082 L323.632,-18.3838 C323.632,-17.1631 323.892,-16.097 324.413,-15.1855 C324.934,-14.2741 325.719,-13.505 326.769,-12.8784 C327.819,-12.2518 329.141,-11.7432 330.736,-11.3525 L334.765,-10.376 C336.213,-10.0179 337.214,-9.56217 337.768,-9.00879 C338.321,-8.4554 338.598,-7.72298 338.598,-6.81152 L338.598,-6.78711 C338.598,-6.02214 338.378,-5.35889 337.938,-4.79736 C337.499,-4.23584 336.872,-3.80452 336.059,-3.50342 C335.245,-3.20231 334.26,-3.05176 333.104,-3.05176 C331.379,-3.05176 330.036,-3.40576 329.076,-4.11377 C328.116,-4.82178 327.506,-5.81055 327.245,-7.08008 L327.196,-7.32422 L322.948,-7.32422 L322.973,-7.10449 C323.152,-5.59082 323.66,-4.26432 324.499,-3.125 C325.337,-1.98568 326.48,-1.09863 327.929,-0.463867 C329.377,0.170898 331.094,0.488281 333.08,0.488281 M347.934,0 L352.182,0 L352.182,-25.3906 L347.934,-25.3906 L347.934,0 M350.058,-29.6875 C350.806,-29.6875 351.437,-29.9479 351.95,-30.4688 C352.462,-30.9896 352.719,-31.6162 352.719,-32.3486 C352.719,-33.0973 352.462,-33.728 351.95,-34.2407 C351.437,-34.7534 350.806,-35.0098 350.058,-35.0098 C349.325,-35.0098 348.699,-34.7534 348.178,-34.2407 C347.657,-33.728 347.396,-33.0973 347.396,-32.3486 C347.396,-31.6162 347.657,-30.9896 348.178,-30.4688 C348.699,-29.9479 349.325,-29.6875 350.058,-29.6875 M366.558,0.488281 C366.981,0.488281 367.4,0.467936 367.815,0.427246 C368.23,0.386556 368.568,0.349935 368.828,0.317383 L368.828,-3.125 C368.649,-3.10872 368.442,-3.08838 368.206,-3.06396 C367.97,-3.03955 367.721,-3.02734 367.461,-3.02734 C366.322,-3.02734 365.459,-3.26742 364.873,-3.74756 C364.287,-4.2277 363.994,-5.14323 363.994,-6.49414 L363.994,-21.875 L368.828,-21.875 L368.828,-25.3906 L363.994,-25.3906 L363.994,-32.251 L359.6,-32.251 L359.6,-25.3906 L355.889,-25.3906 L355.889,-21.875 L359.6,-21.875 L359.6,-6.46973 C359.6,-4.0446 360.177,-2.27865 361.333,-1.17188 C362.489,-0.0651042 364.23,0.488281 366.558,0.488281 M376.138,8.54492 C377.668,8.54492 378.962,8.30078 380.02,7.8125 C381.077,7.32422 381.981,6.56738 382.729,5.54199 C383.478,4.5166 384.154,3.19824 384.756,1.58691 L394.668,-25.3906 L390.2,-25.3906 L382.852,-3.27148 L383.755,-4.24805 L382.485,-4.24805 L383.389,-3.27148 L376.064,-25.3906 L371.523,-25.3906 L380.947,0.0244141 L380.435,1.46484 C379.93,2.89714 379.275,3.84928 378.469,4.32129 C377.664,4.79329 376.585,5.0293 375.234,5.0293 C374.974,5.0293 374.726,5.01302 374.49,4.98047 C374.254,4.94792 374.046,4.91536 373.867,4.88281 L373.867,8.34961 C374.144,8.39844 374.49,8.4432 374.905,8.48389 C375.32,8.52458 375.731,8.54492 376.138,8.54492 M417.76,8.54492 L421.324,8.54492 C420.445,7.51953 419.632,6.19303 418.883,4.56543 C418.134,2.93783 417.479,1.12712 416.917,-0.866699 C416.356,-2.86051 415.921,-4.93164 415.611,-7.08008 C415.302,-9.22852 415.147,-11.32 415.147,-13.3545 C415.147,-15.389 415.302,-17.4764 415.611,-19.6167 C415.921,-21.757 416.356,-23.8241 416.917,-25.8179 C417.479,-27.8117 418.134,-29.6224 418.883,-31.25 C419.632,-32.8776 420.445,-34.2041 421.324,-35.2295 L417.76,-35.2295 C416.181,-33.2113 414.879,-31.0669 413.854,-28.7964 C412.828,-26.5259 412.067,-24.1089 411.571,-21.5454 C411.074,-18.9819 410.826,-16.2516 410.826,-13.3545 C410.826,-10.4574 411.074,-7.72298 411.571,-5.15137 C412.067,-2.57975 412.824,-0.158691 413.841,2.11182 C414.859,4.38232 416.165,6.52669 417.76,8.54492 M425.399,8.54492 L429.647,8.54492 L429.647,-4.24805 L429.745,-4.24805 C430.282,-3.27148 430.954,-2.4292 431.759,-1.72119 C432.565,-1.01318 433.489,-0.467936 434.53,-0.0854492 C435.572,0.297038 436.687,0.488281 437.875,0.488281 C440.007,0.488281 441.875,-0.0528971 443.478,-1.13525 C445.081,-2.21761 446.334,-3.74349 447.238,-5.71289 C448.141,-7.68229 448.593,-10.0016 448.593,-12.6709 L448.593,-12.6953 C448.593,-15.3646 448.145,-17.688 447.25,-19.6655 C446.355,-21.6431 445.097,-23.173 443.478,-24.2554 C441.859,-25.3377 439.966,-25.8789 437.802,-25.8789 C436.597,-25.8789 435.482,-25.6836 434.457,-25.293 C433.432,-24.9023 432.524,-24.353 431.735,-23.645 C430.945,-22.937 430.282,-22.0866 429.745,-21.0938 L429.647,-21.0938 L429.647,-25.3906 L425.399,-25.3906 L425.399,8.54492 M436.972,-3.27148 C435.539,-3.27148 434.274,-3.66211 433.175,-4.44336 C432.077,-5.22461 431.21,-6.31917 430.575,-7.72705 C429.94,-9.13493 429.623,-10.7829 429.623,-12.6709 L429.623,-12.6953 C429.623,-14.5996 429.936,-16.2557 430.563,-17.6636 C431.19,-19.0715 432.056,-20.166 433.163,-20.9473 C434.27,-21.7285 435.539,-22.1191 436.972,-22.1191 C438.469,-22.1191 439.763,-21.7407 440.854,-20.9839 C441.944,-20.2271 442.782,-19.1447 443.368,-17.7368 C443.954,-16.3289 444.247,-14.6484 444.247,-12.6953 L444.247,-12.6709 C444.247,-10.7503 443.954,-9.0861 443.368,-7.67822 C442.782,-6.27035 441.944,-5.18392 440.854,-4.41895 C439.763,-3.65397 438.469,-3.27148 436.972,-3.27148 M463.646,0.488281 C465.029,0.488281 466.315,0.297038 467.503,-0.0854492 C468.691,-0.467936 469.749,-1.00505 470.677,-1.69678 C471.604,-2.38851 472.365,-3.1901 472.959,-4.10156 C473.554,-5.01302 473.956,-5.98958 474.168,-7.03125 L474.217,-7.27539 L470.042,-7.27539 L469.969,-7.05566 C469.725,-6.32324 469.318,-5.6722 468.748,-5.10254 C468.178,-4.53288 467.47,-4.08529 466.624,-3.75977 C465.778,-3.43424 464.817,-3.27148 463.743,-3.27148 C462.213,-3.27148 460.887,-3.60921 459.764,-4.28467 C458.641,-4.96012 457.774,-5.93262 457.164,-7.20215 C456.553,-8.47168 456.248,-10.0016 456.248,-11.792 L456.248,-13.4277 C456.248,-15.3158 456.557,-16.9067 457.176,-18.2007 C457.794,-19.4946 458.641,-20.4712 459.715,-21.1304 C460.789,-21.7896 462.002,-22.1191 463.353,-22.1191 C464.703,-22.1191 465.9,-21.8058 466.941,-21.1792 C467.983,-20.5526 468.801,-19.5964 469.395,-18.3105 C469.989,-17.0247 470.286,-15.3971 470.286,-13.4277 L470.286,-11.792 L472.435,-14.8682 L454.075,-14.8682 L454.075,-11.5479 L474.534,-11.5479 L474.534,-13.1104 C474.534,-15.6494 474.087,-17.8792 473.191,-19.7998 C472.296,-21.7204 471.014,-23.2137 469.346,-24.2798 C467.678,-25.3459 465.688,-25.8789 463.377,-25.8789 C461.066,-25.8789 459.056,-25.3215 457.347,-24.2065 C455.638,-23.0916 454.311,-21.5373 453.367,-19.5435 C452.423,-17.5496 451.951,-15.2425 451.951,-12.6221 L451.951,-12.5977 C451.951,-9.94466 452.419,-7.63753 453.355,-5.67627 C454.291,-3.71501 455.634,-2.19727 457.383,-1.12305 C459.133,-0.0488281 461.22,0.488281 463.646,0.488281 M479.134,0 L483.382,0 L483.382,-15.6738 C483.382,-16.9596 483.606,-18.0623 484.053,-18.9819 C484.501,-19.9015 485.136,-20.6055 485.958,-21.0938 C486.779,-21.582 487.736,-21.8262 488.826,-21.8262 C489.347,-21.8262 489.815,-21.8018 490.23,-21.7529 C490.645,-21.7041 490.934,-21.6471 491.097,-21.582 L491.097,-25.708 C490.934,-25.7406 490.702,-25.7772 490.401,-25.8179 C490.1,-25.8586 489.762,-25.8789 489.388,-25.8789 C487.955,-25.8789 486.718,-25.4476 485.677,-24.585 C484.635,-23.7223 483.903,-22.5586 483.479,-21.0938 L483.382,-21.0938 L483.382,-25.3906 L479.134,-25.3906 L479.134,0 M514.471,0.488281 C516.359,0.488281 518.047,0.166829 519.537,-0.476074 C521.026,-1.11898 522.198,-2.01009 523.052,-3.14941 C523.907,-4.28874 524.334,-5.59896 524.334,-7.08008 L524.334,-7.10449 C524.334,-8.30892 524.106,-9.34652 523.65,-10.2173 C523.195,-11.0881 522.458,-11.8327 521.441,-12.4512 C520.424,-13.0697 519.061,-13.5824 517.352,-13.9893 L513.323,-14.9658 C512.396,-15.1937 511.639,-15.4785 511.053,-15.8203 C510.467,-16.1621 510.04,-16.5649 509.771,-17.0288 C509.502,-17.4927 509.368,-18.0094 509.368,-18.5791 L509.368,-18.6035 C509.368,-19.3522 509.568,-20.0073 509.966,-20.5688 C510.365,-21.1304 510.939,-21.5658 511.688,-21.875 C512.436,-22.1842 513.323,-22.3389 514.349,-22.3389 C515.927,-22.3389 517.177,-21.9645 518.096,-21.2158 C519.016,-20.4671 519.557,-19.4743 519.72,-18.2373 L519.744,-18.0664 L523.797,-18.0664 L523.772,-18.3838 C523.675,-19.7998 523.231,-21.0734 522.442,-22.2046 C521.653,-23.3358 520.57,-24.231 519.195,-24.8901 C517.819,-25.5493 516.204,-25.8789 514.349,-25.8789 C512.526,-25.8789 510.91,-25.5615 509.502,-24.9268 C508.095,-24.292 506.996,-23.4131 506.207,-22.29 C505.417,-21.167 505.022,-19.873 505.022,-18.4082 L505.022,-18.3838 C505.022,-17.1631 505.283,-16.097 505.804,-15.1855 C506.325,-14.2741 507.11,-13.505 508.16,-12.8784 C509.209,-12.2518 510.532,-11.7432 512.127,-11.3525 L516.155,-10.376 C517.604,-10.0179 518.605,-9.56217 519.158,-9.00879 C519.712,-8.4554 519.988,-7.72298 519.988,-6.81152 L519.988,-6.78711 C519.988,-6.02214 519.769,-5.35889 519.329,-4.79736 C518.89,-4.23584 518.263,-3.80452 517.449,-3.50342 C516.635,-3.20231 515.651,-3.05176 514.495,-3.05176 C512.77,-3.05176 511.427,-3.40576 510.467,-4.11377 C509.507,-4.82178 508.896,-5.81055 508.636,-7.08008 L508.587,-7.32422 L504.339,-7.32422 L504.363,-7.10449 C504.542,-5.59082 505.051,-4.26432 505.889,-3.125 C506.727,-1.98568 507.871,-1.09863 509.319,-0.463867 C510.768,0.170898 512.485,0.488281 514.471,0.488281 M546.756,8.54492 L551.004,8.54492 L551.004,-25.3906 L546.756,-25.3906 L546.756,-21.0938 L546.658,-21.0938 C546.137,-22.0378 545.482,-22.8638 544.693,-23.5718 C543.903,-24.2798 543.004,-24.8332 541.995,-25.2319 C540.986,-25.6307 539.879,-25.8301 538.675,-25.8301 C536.526,-25.8301 534.638,-25.2889 533.011,-24.2065 C531.383,-23.1242 530.11,-21.6064 529.19,-19.6533 C528.27,-17.7002 527.811,-15.3971 527.811,-12.7441 L527.811,-12.7197 C527.811,-10.0667 528.262,-7.75146 529.166,-5.77393 C530.069,-3.79639 531.33,-2.26644 532.95,-1.18408 C534.569,-0.101725 536.445,0.439453 538.577,0.439453 C539.798,0.439453 540.925,0.252279 541.958,-0.12207 C542.992,-0.496419 543.908,-1.02539 544.705,-1.70898 C545.503,-2.39258 546.154,-3.19824 546.658,-4.12598 L546.756,-4.12598 L546.756,8.54492 M539.505,-3.32031 C538.007,-3.32031 536.705,-3.69873 535.599,-4.45557 C534.492,-5.2124 533.641,-6.29476 533.047,-7.70264 C532.453,-9.11051 532.156,-10.7829 532.156,-12.7197 L532.156,-12.7441 C532.156,-14.6484 532.453,-16.2964 533.047,-17.688 C533.641,-19.0796 534.492,-20.1579 535.599,-20.9229 C536.705,-21.6878 538.007,-22.0703 539.505,-22.0703 C540.937,-22.0703 542.199,-21.6838 543.289,-20.9106 C544.38,-20.1375 545.23,-19.0552 545.84,-17.6636 C546.451,-16.272 546.756,-14.6322 546.756,-12.7441 L546.756,-12.7197 C546.756,-10.8317 546.451,-9.17969 545.84,-7.76367 C545.23,-6.34766 544.384,-5.25309 543.301,-4.47998 C542.219,-3.70687 540.953,-3.32031 539.505,-3.32031 M565.504,0.488281 C566.79,0.488281 567.937,0.309245 568.946,-0.0488281 C569.955,-0.406901 570.822,-0.895182 571.546,-1.51367 C572.271,-2.13216 572.861,-2.83203 573.316,-3.61328 L573.414,-3.61328 L573.414,0 L577.662,0 L577.662,-25.3906 L573.414,-25.3906 L573.414,-10.4492 C573.414,-9.375 573.259,-8.39437 572.95,-7.50732 C572.641,-6.62028 572.193,-5.86344 571.607,-5.23682 C571.021,-4.61019 570.326,-4.12598 569.52,-3.78418 C568.714,-3.44238 567.807,-3.27148 566.798,-3.27148 C564.845,-3.27148 563.384,-3.8208 562.416,-4.91943 C561.447,-6.01807 560.963,-7.60091 560.963,-9.66797 L560.963,-25.3906 L556.715,-25.3906 L556.715,-8.91113 C556.715,-6.99056 557.061,-5.32633 557.752,-3.91846 C558.444,-2.51058 559.445,-1.42415 560.755,-0.65918 C562.066,0.105794 563.648,0.488281 565.504,0.488281 M590.931,0.488281 C592.07,0.488281 593.148,0.297038 594.166,-0.0854492 C595.183,-0.467936 596.098,-1.00505 596.912,-1.69678 C597.726,-2.38851 598.377,-3.19824 598.865,-4.12598 L598.963,-4.12598 L598.963,0 L603.211,0 L603.211,-17.5537 C603.211,-19.2464 602.812,-20.7153 602.015,-21.9604 C601.217,-23.2056 600.09,-24.1699 598.633,-24.8535 C597.177,-25.5371 595.447,-25.8789 593.445,-25.8789 C591.46,-25.8789 589.743,-25.5412 588.294,-24.8657 C586.845,-24.1903 585.71,-23.2829 584.888,-22.1436 C584.066,-21.0042 583.59,-19.7347 583.46,-18.335 L583.436,-18.0664 L587.537,-18.0664 L587.586,-18.2861 C587.83,-19.4255 588.453,-20.3491 589.454,-21.0571 C590.455,-21.7651 591.769,-22.1191 593.396,-22.1191 C595.171,-22.1191 596.542,-21.6756 597.51,-20.7886 C598.479,-19.9015 598.963,-18.6849 598.963,-17.1387 L598.963,-9.64355 C598.963,-8.42285 598.65,-7.32422 598.023,-6.34766 C597.396,-5.37109 596.55,-4.60205 595.484,-4.04053 C594.418,-3.479 593.217,-3.19824 591.883,-3.19824 C590.353,-3.19824 589.128,-3.55632 588.208,-4.27246 C587.289,-4.98861 586.829,-5.95703 586.829,-7.17773 L586.829,-7.22656 C586.829,-8.41471 587.297,-9.36686 588.233,-10.083 C589.169,-10.7992 590.483,-11.2061 592.176,-11.3037 L601.087,-11.8408 L601.087,-15.1367 L591.688,-14.5996 C589.751,-14.4857 588.095,-14.1195 586.719,-13.501 C585.344,-12.8825 584.294,-12.0443 583.57,-10.9863 C582.846,-9.92839 582.483,-8.67513 582.483,-7.22656 L582.483,-7.17773 C582.483,-5.64779 582.837,-4.30501 583.545,-3.14941 C584.253,-1.99382 585.242,-1.09863 586.512,-0.463867 C587.781,0.170898 589.254,0.488281 590.931,0.488281 M608.946,0 L613.194,0 L613.194,-15.6738 C613.194,-16.9596 613.418,-18.0623 613.866,-18.9819 C614.313,-19.9015 614.948,-20.6055 615.77,-21.0938 C616.592,-21.582 617.548,-21.8262 618.639,-21.8262 C619.16,-21.8262 619.627,-21.8018 620.042,-21.7529 C620.458,-21.7041 620.746,-21.6471 620.909,-21.582 L620.909,-25.708 C620.746,-25.7406 620.514,-25.7772 620.213,-25.8179 C619.912,-25.8586 619.575,-25.8789 619.2,-25.8789 C617.768,-25.8789 616.531,-25.4476 615.489,-24.585 C614.448,-23.7223 613.715,-22.5586 613.292,-21.0938 L613.194,-21.0938 L613.194,-25.3906 L608.946,-25.3906 L608.946,0 M633.427,0.488281 C634.81,0.488281 636.096,0.297038 637.284,-0.0854492 C638.472,-0.467936 639.53,-1.00505 640.458,-1.69678 C641.386,-2.38851 642.147,-3.1901 642.741,-4.10156 C643.335,-5.01302 643.738,-5.98958 643.949,-7.03125 L643.998,-7.27539 L639.823,-7.27539 L639.75,-7.05566 C639.506,-6.32324 639.099,-5.6722 638.529,-5.10254 C637.96,-4.53288 637.252,-4.08529 636.405,-3.75977 C635.559,-3.43424 634.599,-3.27148 633.524,-3.27148 C631.994,-3.27148 630.668,-3.60921 629.545,-4.28467 C628.422,-4.96012 627.555,-5.93262 626.945,-7.20215 C626.334,-8.47168 626.029,-10.0016 626.029,-11.792 L626.029,-13.4277 C626.029,-15.3158 626.339,-16.9067 626.957,-18.2007 C627.576,-19.4946 628.422,-20.4712 629.496,-21.1304 C630.57,-21.7896 631.783,-22.1191 633.134,-22.1191 C634.485,-22.1191 635.681,-21.8058 636.723,-21.1792 C637.764,-20.5526 638.582,-19.5964 639.176,-18.3105 C639.77,-17.0247 640.067,-15.3971 640.067,-13.4277 L640.067,-11.792 L642.216,-14.8682 L623.856,-14.8682 L623.856,-11.5479 L644.315,-11.5479 L644.315,-13.1104 C644.315,-15.6494 643.868,-17.8792 642.973,-19.7998 C642.077,-21.7204 640.796,-23.2137 639.127,-24.2798 C637.459,-25.3459 635.469,-25.8789 633.158,-25.8789 C630.847,-25.8789 628.837,-25.3215 627.128,-24.2065 C625.419,-23.0916 624.092,-21.5373 623.148,-19.5435 C622.204,-17.5496 621.732,-15.2425 621.732,-12.6221 L621.732,-12.5977 C621.732,-9.94466 622.2,-7.63753 623.136,-5.67627 C624.072,-3.71501 625.415,-2.19727 627.165,-1.12305 C628.914,-0.0488281 631.002,0.488281 633.427,0.488281 M659.851,0 L664.099,0 L664.099,-35.2295 L659.851,-35.2295 L659.851,0 M675.891,0 L680.822,0 L669.055,-14.9658 L666.223,-12.1338 L675.891,0 M663.146,-8.66699 L668.103,-13.4033 L668.444,-13.4033 L680.48,-25.3906 L675.329,-25.3906 L664.196,-14.1846 L663.146,-14.1846 L663.146,-8.66699 M684.118,0 L688.366,0 L688.366,-15.918 C688.366,-17.1061 688.618,-18.1641 689.123,-19.0918 C689.628,-20.0195 690.315,-20.756 691.186,-21.3013 C692.057,-21.8465 693.054,-22.1191 694.177,-22.1191 C695.235,-22.1191 696.15,-21.9076 696.923,-21.4844 C697.696,-21.0612 698.299,-20.4671 698.73,-19.7021 C699.161,-18.9372 699.377,-18.042 699.377,-17.0166 L699.377,0 L703.625,0 L703.625,-16.1377 C703.625,-17.2933 703.869,-18.3228 704.357,-19.2261 C704.846,-20.1294 705.521,-20.8374 706.384,-21.3501 C707.246,-21.8628 708.239,-22.1191 709.362,-22.1191 C710.485,-22.1191 711.438,-21.8994 712.219,-21.46 C713,-21.0205 713.598,-20.3857 714.013,-19.5557 C714.428,-18.7256 714.636,-17.7246 714.636,-16.5527 L714.636,0 L718.884,0 L718.884,-17.5293 C718.884,-19.222 718.542,-20.6909 717.858,-21.936 C717.175,-23.1812 716.215,-24.1496 714.978,-24.8413 C713.741,-25.533 712.284,-25.8789 710.607,-25.8789 C709.419,-25.8789 708.308,-25.6836 707.275,-25.293 C706.241,-24.9023 705.33,-24.3449 704.541,-23.6206 C703.751,-22.8963 703.12,-22.0215 702.648,-20.9961 L702.551,-20.9961 C702.193,-22.0378 701.672,-22.9207 700.988,-23.645 C700.305,-24.3693 699.495,-24.9227 698.559,-25.3052 C697.623,-25.6877 696.577,-25.8789 695.422,-25.8789 C693.794,-25.8789 692.37,-25.4924 691.149,-24.7192 C689.929,-23.9461 689.034,-22.9329 688.464,-21.6797 L688.366,-21.6797 L688.366,-25.3906 L684.118,-25.3906 L684.118,0 M726.4,8.54492 C727.995,6.54297 729.302,4.40267 730.319,2.12402 C731.336,-0.154622 732.093,-2.57975 732.589,-5.15137 C733.086,-7.72298 733.334,-10.4574 733.334,-13.3545 C733.334,-16.2516 733.086,-18.9819 732.589,-21.5454 C732.093,-24.1089 731.336,-26.5259 730.319,-28.7964 C729.302,-31.0669 727.995,-33.2113 726.4,-35.2295 L722.836,-35.2295 C723.715,-34.2041 724.529,-32.8776 725.277,-31.25 C726.026,-29.6224 726.681,-27.8117 727.243,-25.8179 C727.804,-23.8241 728.24,-21.757 728.549,-19.6167 C728.858,-17.4764 729.013,-15.389 729.013,-13.3545 C729.013,-11.32 728.858,-9.23258 728.549,-7.09229 C728.24,-4.95199 727.804,-2.88086 727.243,-0.878906 C726.681,1.12305 726.026,2.93783 725.277,4.56543 C724.529,6.19303 723.715,7.51953 722.836,8.54492 L726.4,8.54492"/>
  </g>
  <g stroke-width="1" font-style="normal" stroke-opacity="1" stroke-linecap="square" font-family=".AppleSystemUIFont" stroke="#000000" stroke-linejoin="bevel" fill="none" font-size="54.1667" transform="matrix(0.23994,0,0,0.23994,246.246,479.343)" font-weight="400"/>
  <g stroke-width="1" font-style="normal" stroke-opacity="1" stroke-linecap="square" font-family=".AppleSystemUIFont" stroke="#000000" stroke-linejoin="bevel" fill="none" font-size="54.1667" transform="matrix(0.999751,0,0,0.999751,222.63,368.617)" font-weight="400"/>
  <g stroke-width="1" font-style="normal" stroke-opacity="1" stroke-linecap="square" font-family=".AppleSystemUIFont" stroke="#000000" stroke-linejoin="bevel" fill="none" font-size="54.1667" transform="matrix(11.8081,0,0,11.8081,222.63,368.617)" font-weight="400"/>
  <g stroke-width="3.07087" font-style="normal" stroke-opacity="1" stroke-linecap="square" font-family=".AppleSystemUIFont" stroke="#232323" stroke-linejoin="bevel" fill="#def5e5" fill-opacity="1" font-size="54.1667" transform="matrix(0.999751,0,0,0.999751,246.246,511.397)" font-weight="400">
   <path vector-effect="none" fill-rule="evenodd" d="M0,0 L83,0 L83,47 L0,47 L0,0"/>
  </g>
  <g stroke-width="1" font-style="normal" stroke-opacity="1" stroke-linecap="square" font-family=".AppleSystemUIFont" stroke="#000000" stroke-linejoin="bevel" fill="none" font-size="54.1667" transform="matrix(11.8081,0,0,11.8081,222.63,368.617)" font-weight="400"/>
  <g stroke-width="1" font-style="normal" stroke-opacity="1" stroke-linecap="square" font-family=".AppleSystemUIFont" stroke="#000000" stroke-linejoin="bevel" fill="none" font-size="54.1667" transform="matrix(0.999751,0,0,0.999751,222.63,368.617)" font-weight="400"/>
  <g stroke-width="1" font-style="normal" stroke-opacity="1" stroke-linecap="square" font-family=".AppleSystemUIFont" stroke="#000000" stroke-linejoin="bevel" fill="none" font-size="54.1667" transform="matrix(0.23994,0,0,0.23994,352.519,552.789)" font-weight="400"/>
  <g font-style="normal" font-family=".AppleSystemUIFont" stroke="none" fill="#000000" fill-opacity="1" font-size="54.1667" transform="matrix(0.999751,0,0,0.999751,352.519,552.789)" font-weight="400">
   <path vector-effect="none" fill-rule="nonzero" d="M15.1367,0.585938 C17.8385,0.585938 20.1579,-0.154622 22.0947,-1.63574 C24.0316,-3.11686 25.5168,-5.21647 26.5503,-7.93457 C27.5838,-10.6527 28.1006,-13.8753 28.1006,-17.6025 L28.1006,-17.6514 C28.1006,-21.3786 27.5838,-24.6012 26.5503,-27.3193 C25.5168,-30.0374 24.0316,-32.133 22.0947,-33.606 C20.1579,-35.0789 17.8385,-35.8154 15.1367,-35.8154 C12.4349,-35.8154 10.1196,-35.0789 8.19092,-33.606 C6.26221,-32.133 4.78516,-30.0374 3.75977,-27.3193 C2.73438,-24.6012 2.22168,-21.3786 2.22168,-17.6514 L2.22168,-17.6025 C2.22168,-13.8753 2.73438,-10.6527 3.75977,-7.93457 C4.78516,-5.21647 6.26221,-3.11686 8.19092,-1.63574 C10.1196,-0.154622 12.4349,0.585938 15.1367,0.585938 M15.1367,-3.24707 C13.3464,-3.24707 11.8164,-3.82894 10.5469,-4.99268 C9.27734,-6.15641 8.30892,-7.8125 7.6416,-9.96094 C6.97428,-12.1094 6.64063,-14.6566 6.64063,-17.6025 L6.64063,-17.6514 C6.64063,-20.5973 6.97428,-23.1405 7.6416,-25.2808 C8.30892,-27.4211 9.27734,-29.069 10.5469,-30.2246 C11.8164,-31.3802 13.3464,-31.958 15.1367,-31.958 C16.9271,-31.958 18.4611,-31.3802 19.7388,-30.2246 C21.0164,-29.069 21.993,-27.4211 22.6685,-25.2808 C23.3439,-23.1405 23.6816,-20.5973 23.6816,-17.6514 L23.6816,-17.6025 C23.6816,-14.6566 23.3439,-12.1094 22.6685,-9.96094 C21.993,-7.8125 21.0164,-6.15641 19.7388,-4.99268 C18.4611,-3.82894 16.9271,-3.24707 15.1367,-3.24707 M44.1553,-12.3047 L59.7803,-12.3047 L59.7803,-16.2598 L44.1553,-16.2598 L44.1553,-12.3047 M78.4922,0 L83.1064,0 L98.7803,-31.1523 L98.7803,-35.2295 L75.4648,-35.2295 L75.4648,-31.3232 L94.4346,-31.3232 L94.4346,-31.2256 L78.4922,0 M115.449,0.585938 C118.151,0.585938 120.47,-0.154622 122.407,-1.63574 C124.344,-3.11686 125.829,-5.21647 126.863,-7.93457 C127.896,-10.6527 128.413,-13.8753 128.413,-17.6025 L128.413,-17.6514 C128.413,-21.3786 127.896,-24.6012 126.863,-27.3193 C125.829,-30.0374 124.344,-32.133 122.407,-33.606 C120.47,-35.0789 118.151,-35.8154 115.449,-35.8154 C112.747,-35.8154 110.432,-35.0789 108.503,-33.606 C106.575,-32.133 105.098,-30.0374 104.072,-27.3193 C103.047,-24.6012 102.534,-21.3786 102.534,-17.6514 L102.534,-17.6025 C102.534,-13.8753 103.047,-10.6527 104.072,-7.93457 C105.098,-5.21647 106.575,-3.11686 108.503,-1.63574 C110.432,-0.154622 112.747,0.585938 115.449,0.585938 M115.449,-3.24707 C113.659,-3.24707 112.129,-3.82894 110.859,-4.99268 C109.59,-6.15641 108.621,-7.8125 107.954,-9.96094 C107.287,-12.1094 106.953,-14.6566 106.953,-17.6025 L106.953,-17.6514 C106.953,-20.5973 107.287,-23.1405 107.954,-25.2808 C108.621,-27.4211 109.59,-29.069 110.859,-30.2246 C112.129,-31.3802 113.659,-31.958 115.449,-31.958 C117.24,-31.958 118.774,-31.3802 120.051,-30.2246 C121.329,-29.069 122.306,-27.4211 122.981,-25.2808 C123.656,-23.1405 123.994,-20.5973 123.994,-17.6514 L123.994,-17.6025 C123.994,-14.6566 123.656,-12.1094 122.981,-9.96094 C122.306,-7.8125 121.329,-6.15641 120.051,-4.99268 C118.774,-3.82894 117.24,-3.24707 115.449,-3.24707 M147.081,0.585938 C149.441,0.585938 151.541,0.142415 153.38,-0.744629 C155.219,-1.63167 156.668,-2.84831 157.726,-4.39453 C158.784,-5.94076 159.313,-7.69043 159.313,-9.64355 L159.313,-9.69238 C159.313,-12.1989 158.519,-14.2131 156.932,-15.7349 C155.345,-17.2567 153.266,-18.1234 150.694,-18.335 L150.694,-18.4326 C152.159,-18.7419 153.453,-19.2708 154.576,-20.0195 C155.699,-20.7682 156.578,-21.7041 157.213,-22.8271 C157.848,-23.9502 158.165,-25.236 158.165,-26.6846 L158.165,-26.7334 C158.165,-28.5238 157.705,-30.0985 156.786,-31.4575 C155.866,-32.8166 154.572,-33.8826 152.904,-34.6558 C151.236,-35.4289 149.278,-35.8154 147.032,-35.8154 C144.835,-35.8154 142.894,-35.4167 141.209,-34.6191 C139.525,-33.8216 138.174,-32.7067 137.157,-31.2744 C136.139,-29.8421 135.533,-28.1657 135.338,-26.2451 L135.313,-26.001 L139.537,-26.001 L139.562,-26.2451 C139.692,-27.4333 140.082,-28.4587 140.733,-29.3213 C141.384,-30.1839 142.251,-30.8472 143.333,-31.311 C144.416,-31.7749 145.649,-32.0068 147.032,-32.0068 C148.465,-32.0068 149.681,-31.779 150.682,-31.3232 C151.683,-30.8675 152.444,-30.2083 152.965,-29.3457 C153.486,-28.4831 153.746,-27.4333 153.746,-26.1963 L153.746,-26.1475 C153.746,-24.9756 153.445,-23.9299 152.843,-23.0103 C152.241,-22.0907 151.402,-21.3664 150.328,-20.8374 C149.254,-20.3084 148.017,-20.0439 146.617,-20.0439 L142.394,-20.0439 L142.394,-16.333 L146.813,-16.333 C149.286,-16.333 151.244,-15.7511 152.684,-14.5874 C154.125,-13.4237 154.845,-11.7594 154.845,-9.59473 L154.845,-9.5459 C154.845,-8.30892 154.519,-7.21436 153.868,-6.26221 C153.217,-5.31006 152.31,-4.56543 151.146,-4.02832 C149.982,-3.49121 148.627,-3.22266 147.081,-3.22266 C145.519,-3.22266 144.143,-3.47087 142.955,-3.96729 C141.767,-4.4637 140.819,-5.15137 140.111,-6.03027 C139.403,-6.90918 138.984,-7.92643 138.854,-9.08203 L138.829,-9.32617 L134.605,-9.32617 L134.63,-9.0332 C134.793,-7.17773 135.399,-5.52572 136.449,-4.07715 C137.499,-2.62858 138.927,-1.48926 140.733,-0.65918 C142.54,0.170898 144.656,0.585938 147.081,0.585938 "/>
  </g>
  <g stroke-width="1" font-style="normal" stroke-opacity="1" stroke-linecap="square" font-family=".AppleSystemUIFont" stroke="#000000" stroke-linejoin="bevel" fill="none" font-size="54.1667" transform="matrix(0.23994,0,0,0.23994,352.519,552.789)" font-weight="400"/>
  <g stroke-width="1" font-style="normal" stroke-opacity="1" stroke-linecap="square" font-family=".AppleSystemUIFont" stroke="#000000" stroke-linejoin="bevel" fill="none" font-size="54.1667" transform="matrix(0.999751,0,0,0.999751,222.63,368.617)" font-weight="400"/>
  <g stroke-width="1" font-style="normal" stroke-opacity="1" stroke-linecap="square" font-family=".AppleSystemUIFont" stroke="#000000" stroke-linejoin="bevel" fill="none" font-size="54.1667" transform="matrix(11.8081,0,0,11.8081,222.63,368.617)" font-weight="400"/>
  <g stroke-width="3.07087" font-style="normal" stroke-opacity="1" stroke-linecap="square" font-family=".AppleSystemUIFont" stroke="#232323" stroke-linejoin="bevel" fill="#4bc2ad" fill-opacity="1" font-size="54.1667" transform="matrix(0.999751,0,0,0.999751,246.246,588.15)" font-weight="400">
   <path vector-effect="none" fill-rule="evenodd" d="M0,0 L83,0 L83,47 L0,47 L0,0"/>
  </g>
  <g stroke-width="1" font-style="normal" stroke-opacity="1" stroke-linecap="square" font-family=".AppleSystemUIFont" stroke="#000000" stroke-linejoin="bevel" fill="none" font-size="54.1667" transform="matrix(11.8081,0,0,11.8081,222.63,368.617)" font-weight="400"/>
  <g stroke-width="1" font-style="normal" stroke-opacity="1" stroke-linecap="square" font-family=".AppleSystemUIFont" stroke="#000000" stroke-linejoin="bevel" fill="none" font-size="54.1667" transform="matrix(0.999751,0,0,0.999751,222.63,368.617)" font-weight="400"/>
  <g stroke-width="1" font-style="normal" stroke-opacity="1" stroke-linecap="square" font-family=".AppleSystemUIFont" stroke="#000000" stroke-linejoin="bevel" fill="none" font-size="54.1667" transform="matrix(0.23994,0,0,0.23994,352.519,629.77)" font-weight="400"/>
  <g font-style="normal" font-family=".AppleSystemUIFont" stroke="none" fill="#000000" fill-opacity="1" font-size="54.1667" transform="matrix(0.999751,0,0,0.999751,352.519,629.77)" font-weight="400">
   <path vector-effect="none" fill-rule="nonzero" d="M4.88281,0 L9.49707,0 L25.1709,-31.1523 L25.1709,-35.2295 L1.85547,-35.2295 L1.85547,-31.3232 L20.8252,-31.3232 L20.8252,-31.2256 L4.88281,0 M41.8398,0.585938 C44.5417,0.585938 46.861,-0.154622 48.7979,-1.63574 C50.7347,-3.11686 52.2199,-5.21647 53.2534,-7.93457 C54.2869,-10.6527 54.8037,-13.8753 54.8037,-17.6025 L54.8037,-17.6514 C54.8037,-21.3786 54.2869,-24.6012 53.2534,-27.3193 C52.2199,-30.0374 50.7347,-32.133 48.7979,-33.606 C46.861,-35.0789 44.5417,-35.8154 41.8398,-35.8154 C39.138,-35.8154 36.8228,-35.0789 34.894,-33.606 C32.9653,-32.133 31.4883,-30.0374 30.4629,-27.3193 C29.4375,-24.6012 28.9248,-21.3786 28.9248,-17.6514 L28.9248,-17.6025 C28.9248,-13.8753 29.4375,-10.6527 30.4629,-7.93457 C31.4883,-5.21647 32.9653,-3.11686 34.894,-1.63574 C36.8228,-0.154622 39.138,0.585938 41.8398,0.585938 M41.8398,-3.24707 C40.0495,-3.24707 38.5195,-3.82894 37.25,-4.99268 C35.9805,-6.15641 35.012,-7.8125 34.3447,-9.96094 C33.6774,-12.1094 33.3438,-14.6566 33.3438,-17.6025 L33.3438,-17.6514 C33.3438,-20.5973 33.6774,-23.1405 34.3447,-25.2808 C35.012,-27.4211 35.9805,-29.069 37.25,-30.2246 C38.5195,-31.3802 40.0495,-31.958 41.8398,-31.958 C43.6302,-31.958 45.1642,-31.3802 46.4419,-30.2246 C47.7196,-29.069 48.6961,-27.4211 49.3716,-25.2808 C50.047,-23.1405 50.3848,-20.5973 50.3848,-17.6514 L50.3848,-17.6025 C50.3848,-14.6566 50.047,-12.1094 49.3716,-9.96094 C48.6961,-7.8125 47.7196,-6.15641 46.4419,-4.99268 C45.1642,-3.82894 43.6302,-3.24707 41.8398,-3.24707 M73.4717,0.585938 C75.8317,0.585938 77.9313,0.142415 79.7705,-0.744629 C81.6097,-1.63167 83.0583,-2.84831 84.1162,-4.39453 C85.1742,-5.94076 85.7031,-7.69043 85.7031,-9.64355 L85.7031,-9.69238 C85.7031,-12.1989 84.9097,-14.2131 83.3228,-15.7349 C81.7358,-17.2567 79.6566,-18.1234 77.085,-18.335 L77.085,-18.4326 C78.5498,-18.7419 79.8438,-19.2708 80.9668,-20.0195 C82.0898,-20.7682 82.9688,-21.7041 83.6035,-22.8271 C84.2383,-23.9502 84.5557,-25.236 84.5557,-26.6846 L84.5557,-26.7334 C84.5557,-28.5238 84.0959,-30.0985 83.1763,-31.4575 C82.2567,-32.8166 80.9627,-33.8826 79.2944,-34.6558 C77.6261,-35.4289 75.6689,-35.8154 73.4229,-35.8154 C71.2256,-35.8154 69.2847,-35.4167 67.6001,-34.6191 C65.9155,-33.8216 64.5646,-32.7067 63.5474,-31.2744 C62.5301,-29.8421 61.9238,-28.1657 61.7285,-26.2451 L61.7041,-26.001 L65.9277,-26.001 L65.9521,-26.2451 C66.0824,-27.4333 66.473,-28.4587 67.124,-29.3213 C67.7751,-30.1839 68.6418,-30.8472 69.7241,-31.311 C70.8065,-31.7749 72.0394,-32.0068 73.4229,-32.0068 C74.8551,-32.0068 76.0718,-31.779 77.0728,-31.3232 C78.0737,-30.8675 78.8346,-30.2083 79.3555,-29.3457 C79.8763,-28.4831 80.1367,-27.4333 80.1367,-26.1963 L80.1367,-26.1475 C80.1367,-24.9756 79.8356,-23.9299 79.2334,-23.0103 C78.6312,-22.0907 77.793,-21.3664 76.7188,-20.8374 C75.6445,-20.3084 74.4076,-20.0439 73.0078,-20.0439 L68.7842,-20.0439 L68.7842,-16.333 L73.2031,-16.333 C75.6771,-16.333 77.6343,-15.7511 79.0747,-14.5874 C80.5151,-13.4237 81.2354,-11.7594 81.2354,-9.59473 L81.2354,-9.5459 C81.2354,-8.30892 80.9098,-7.21436 80.2588,-6.26221 C79.6077,-5.31006 78.7004,-4.56543 77.5366,-4.02832 C76.3729,-3.49121 75.0179,-3.22266 73.4717,-3.22266 C71.9092,-3.22266 70.5339,-3.47087 69.3457,-3.96729 C68.1576,-4.4637 67.2095,-5.15137 66.5015,-6.03027 C65.7935,-6.90918 65.3743,-7.92643 65.2441,-9.08203 L65.2197,-9.32617 L60.9961,-9.32617 L61.0205,-9.0332 C61.1833,-7.17773 61.7896,-5.52572 62.8394,-4.07715 C63.8892,-2.62858 65.3174,-1.48926 67.124,-0.65918 C68.9307,0.170898 71.0465,0.585938 73.4717,0.585938 M102.171,-12.3047 L117.796,-12.3047 L117.796,-16.2598 L102.171,-16.2598 L102.171,-12.3047 M143.466,0 L147.714,0 L147.714,-35.2295 L143.417,-35.2295 L134.042,-28.4912 L134.042,-24.0723 L143.368,-30.5664 L143.466,-30.5664 L143.466,0 M169.319,0.585938 C171.728,0.585938 173.868,0.0691732 175.74,-0.964355 C177.612,-1.99788 179.089,-3.4139 180.171,-5.2124 C181.254,-7.0109 181.795,-9.06576 181.795,-11.377 L181.795,-11.4258 C181.795,-13.6556 181.286,-15.6494 180.269,-17.4072 C179.252,-19.165 177.864,-20.5485 176.106,-21.5576 C174.349,-22.5667 172.347,-23.0713 170.101,-23.0713 C168.506,-23.0713 167.057,-22.8149 165.755,-22.3022 C164.453,-21.7896 163.334,-21.106 162.398,-20.2515 C161.462,-19.397 160.758,-18.4489 160.286,-17.4072 L159.773,-17.4072 L159.773,-11.4258 L161.238,-11.4258 L161.238,-11.4502 C161.238,-12.9476 161.592,-14.2822 162.3,-15.4541 C163.008,-16.626 163.977,-17.5456 165.206,-18.2129 C166.434,-18.8802 167.814,-19.2139 169.344,-19.2139 C170.89,-19.2139 172.265,-18.8761 173.47,-18.2007 C174.674,-17.5252 175.618,-16.5934 176.302,-15.4053 C176.985,-14.2171 177.327,-12.8581 177.327,-11.3281 L177.327,-11.2793 C177.327,-9.79818 176.969,-8.4554 176.253,-7.25098 C175.537,-6.04655 174.568,-5.09033 173.348,-4.38232 C172.127,-3.67432 170.768,-3.32031 169.271,-3.32031 C167.773,-3.32031 166.414,-3.68245 165.193,-4.40674 C163.973,-5.13102 163.008,-6.10758 162.3,-7.33643 C161.592,-8.56527 161.238,-9.92839 161.238,-11.4258 L160.188,-17.2119 C160.188,-17.3747 160.188,-17.5334 160.188,-17.688 C160.188,-17.8426 160.197,-18.0013 160.213,-18.1641 C160.278,-20.638 160.632,-22.9167 161.275,-25 C161.918,-27.0833 162.915,-28.7598 164.266,-30.0293 C165.617,-31.2988 167.382,-31.9336 169.563,-31.9336 C170.768,-31.9336 171.846,-31.7424 172.798,-31.3599 C173.75,-30.9774 174.56,-30.4362 175.228,-29.7363 C175.895,-29.0365 176.399,-28.1982 176.741,-27.2217 L176.839,-26.9531 L181.307,-26.9531 L181.233,-27.2705 C180.843,-28.9795 180.11,-30.4769 179.036,-31.7627 C177.962,-33.0485 176.623,-34.0454 175.02,-34.7534 C173.417,-35.4614 171.614,-35.8154 169.612,-35.8154 C166.748,-35.8154 164.294,-35.0749 162.251,-33.5938 C160.209,-32.1126 158.646,-29.9683 157.564,-27.1606 C156.482,-24.353 155.94,-20.9717 155.94,-17.0166 L155.94,-16.9678 C155.94,-13.6963 156.327,-10.9416 157.1,-8.70361 C157.873,-6.46566 158.907,-4.66309 160.201,-3.2959 C161.495,-1.92871 162.931,-0.939941 164.51,-0.32959 C166.089,0.280762 167.692,0.585938 169.319,0.585938 M200.043,0.585938 C202.745,0.585938 205.064,-0.154622 207.001,-1.63574 C208.938,-3.11686 210.423,-5.21647 211.457,-7.93457 C212.49,-10.6527 213.007,-13.8753 213.007,-17.6025 L213.007,-17.6514 C213.007,-21.3786 212.49,-24.6012 211.457,-27.3193 C210.423,-30.0374 208.938,-32.133 207.001,-33.606 C205.064,-35.0789 202.745,-35.8154 200.043,-35.8154 C197.341,-35.8154 195.026,-35.0789 193.097,-33.606 C191.168,-32.133 189.691,-30.0374 188.666,-27.3193 C187.641,-24.6012 187.128,-21.3786 187.128,-17.6514 L187.128,-17.6025 C187.128,-13.8753 187.641,-10.6527 188.666,-7.93457 C189.691,-5.21647 191.168,-3.11686 193.097,-1.63574 C195.026,-0.154622 197.341,0.585938 200.043,0.585938 M200.043,-3.24707 C198.253,-3.24707 196.723,-3.82894 195.453,-4.99268 C194.184,-6.15641 193.215,-7.8125 192.548,-9.96094 C191.881,-12.1094 191.547,-14.6566 191.547,-17.6025 L191.547,-17.6514 C191.547,-20.5973 191.881,-23.1405 192.548,-25.2808 C193.215,-27.4211 194.184,-29.069 195.453,-30.2246 C196.723,-31.3802 198.253,-31.958 200.043,-31.958 C201.833,-31.958 203.367,-31.3802 204.645,-30.2246 C205.923,-29.069 206.899,-27.4211 207.575,-25.2808 C208.25,-23.1405 208.588,-20.5973 208.588,-17.6514 L208.588,-17.6025 C208.588,-14.6566 208.25,-12.1094 207.575,-9.96094 C206.899,-7.8125 205.923,-6.15641 204.645,-4.99268 C203.367,-3.82894 201.833,-3.24707 200.043,-3.24707 M231.163,0.585938 C233.572,0.585938 235.712,0.0691732 237.584,-0.964355 C239.456,-1.99788 240.933,-3.4139 242.015,-5.2124 C243.097,-7.0109 243.639,-9.06576 243.639,-11.377 L243.639,-11.4258 C243.639,-13.6556 243.13,-15.6494 242.113,-17.4072 C241.096,-19.165 239.708,-20.5485 237.95,-21.5576 C236.192,-22.5667 234.19,-23.0713 231.944,-23.0713 C230.349,-23.0713 228.901,-22.8149 227.599,-22.3022 C226.297,-21.7896 225.178,-21.106 224.242,-20.2515 C223.306,-19.397 222.602,-18.4489 222.13,-17.4072 L221.617,-17.4072 L221.617,-11.4258 L223.082,-11.4258 L223.082,-11.4502 C223.082,-12.9476 223.436,-14.2822 224.144,-15.4541 C224.852,-16.626 225.82,-17.5456 227.049,-18.2129 C228.278,-18.8802 229.658,-19.2139 231.188,-19.2139 C232.734,-19.2139 234.109,-18.8761 235.313,-18.2007 C236.518,-17.5252 237.462,-16.5934 238.146,-15.4053 C238.829,-14.2171 239.171,-12.8581 239.171,-11.3281 L239.171,-11.2793 C239.171,-9.79818 238.813,-8.4554 238.097,-7.25098 C237.381,-6.04655 236.412,-5.09033 235.191,-4.38232 C233.971,-3.67432 232.612,-3.32031 231.114,-3.32031 C229.617,-3.32031 228.258,-3.68245 227.037,-4.40674 C225.816,-5.13102 224.852,-6.10758 224.144,-7.33643 C223.436,-8.56527 223.082,-9.92839 223.082,-11.4258 L222.032,-17.2119 C222.032,-17.3747 222.032,-17.5334 222.032,-17.688 C222.032,-17.8426 222.04,-18.0013 222.057,-18.1641 C222.122,-20.638 222.476,-22.9167 223.119,-25 C223.762,-27.0833 224.758,-28.7598 226.109,-30.0293 C227.46,-31.2988 229.226,-31.9336 231.407,-31.9336 C232.612,-31.9336 233.69,-31.7424 234.642,-31.3599 C235.594,-30.9774 236.404,-30.4362 237.071,-29.7363 C237.739,-29.0365 238.243,-28.1982 238.585,-27.2217 L238.683,-26.9531 L243.15,-26.9531 L243.077,-27.2705 C242.687,-28.9795 241.954,-30.4769 240.88,-31.7627 C239.806,-33.0485 238.467,-34.0454 236.864,-34.7534 C235.261,-35.4614 233.458,-35.8154 231.456,-35.8154 C228.591,-35.8154 226.138,-35.0749 224.095,-33.5938 C222.053,-32.1126 220.49,-29.9683 219.408,-27.1606 C218.325,-24.353 217.784,-20.9717 217.784,-17.0166 L217.784,-16.9678 C217.784,-13.6963 218.171,-10.9416 218.944,-8.70361 C219.717,-6.46566 220.75,-4.66309 222.044,-3.2959 C223.338,-1.92871 224.775,-0.939941 226.354,-0.32959 C227.932,0.280762 229.535,0.585938 231.163,0.585938 "/>
  </g>
  <g stroke-width="1" font-style="normal" stroke-opacity="1" stroke-linecap="square" font-family=".AppleSystemUIFont" stroke="#000000" stroke-linejoin="bevel" fill="none" font-size="54.1667" transform="matrix(0.23994,0,0,0.23994,352.519,629.77)" font-weight="400"/>
  <g stroke-width="1" font-style="normal" stroke-opacity="1" stroke-linecap="square" font-family=".AppleSystemUIFont" stroke="#000000" stroke-linejoin="bevel" fill="none" font-size="54.1667" transform="matrix(0.999751,0,0,0.999751,222.63,368.617)" font-weight="400"/>
  <g stroke-width="1" font-style="normal" stroke-opacity="1" stroke-linecap="square" font-family=".AppleSystemUIFont" stroke="#000000" stroke-linejoin="bevel" fill="none" font-size="54.1667" transform="matrix(11.8081,0,0,11.8081,222.63,368.617)" font-weight="400"/>
  <g stroke-width="3.07087" font-style="normal" stroke-opacity="1" stroke-linecap="square" font-family=".AppleSystemUIFont" stroke="#232323" stroke-linejoin="bevel" fill="#357ba3" fill-opacity="1" font-size="54.1667" transform="matrix(0.999751,0,0,0.999751,246.246,664.902)" font-weight="400">
   <path vector-effect="none" fill-rule="evenodd" d="M0,0 L83,0 L83,47 L0,47 L0,0"/>
  </g>
  <g stroke-width="1" font-style="normal" stroke-opacity="1" stroke-linecap="square" font-family=".AppleSystemUIFont" stroke="#000000" stroke-linejoin="bevel" fill="none" font-size="54.1667" transform="matrix(11.8081,0,0,11.8081,222.63,368.617)" font-weight="400"/>
  <g stroke-width="1" font-style="normal" stroke-opacity="1" stroke-linecap="square" font-family=".AppleSystemUIFont" stroke="#000000" stroke-linejoin="bevel" fill="none" font-size="54.1667" transform="matrix(0.999751,0,0,0.999751,222.63,368.617)" font-weight="400"/>
  <g stroke-width="1" font-style="normal" stroke-opacity="1" stroke-linecap="square" font-family=".AppleSystemUIFont" stroke="#000000" stroke-linejoin="bevel" fill="none" font-size="54.1667" transform="matrix(0.23994,0,0,0.23994,352.519,705.751)" font-weight="400"/>
  <g font-style="normal" font-family=".AppleSystemUIFont" stroke="none" fill="#000000" fill-opacity="1" font-size="54.1667" transform="matrix(0.999751,0,0,0.999751,352.519,705.751)" font-weight="400">
   <path vector-effect="none" fill-rule="nonzero" d="M11.8408,0 L16.0889,0 L16.0889,-35.2295 L11.792,-35.2295 L2.41699,-28.4912 L2.41699,-24.0723 L11.7432,-30.5664 L11.8408,-30.5664 L11.8408,0 M37.6943,0.585938 C40.1032,0.585938 42.2435,0.0691732 44.1152,-0.964355 C45.987,-1.99788 47.464,-3.4139 48.5464,-5.2124 C49.6287,-7.0109 50.1699,-9.06576 50.1699,-11.377 L50.1699,-11.4258 C50.1699,-13.6556 49.6613,-15.6494 48.644,-17.4072 C47.6268,-19.165 46.2393,-20.5485 44.4814,-21.5576 C42.7236,-22.5667 40.7217,-23.0713 38.4756,-23.0713 C36.8805,-23.0713 35.432,-22.8149 34.1299,-22.3022 C32.8278,-21.7896 31.7088,-21.106 30.7729,-20.2515 C29.8371,-19.397 29.1331,-18.4489 28.6611,-17.4072 L28.1484,-17.4072 L28.1484,-11.4258 L29.6133,-11.4258 L29.6133,-11.4502 C29.6133,-12.9476 29.9673,-14.2822 30.6753,-15.4541 C31.3833,-16.626 32.3517,-17.5456 33.5806,-18.2129 C34.8094,-18.8802 36.1888,-19.2139 37.7188,-19.2139 C39.265,-19.2139 40.6403,-18.8761 41.8447,-18.2007 C43.0492,-17.5252 43.9932,-16.5934 44.6768,-15.4053 C45.3604,-14.2171 45.7021,-12.8581 45.7021,-11.3281 L45.7021,-11.2793 C45.7021,-9.79818 45.3441,-8.4554 44.6279,-7.25098 C43.9118,-6.04655 42.9434,-5.09033 41.7227,-4.38232 C40.502,-3.67432 39.1429,-3.32031 37.6455,-3.32031 C36.1481,-3.32031 34.7891,-3.68245 33.5684,-4.40674 C32.3477,-5.13102 31.3833,-6.10758 30.6753,-7.33643 C29.9673,-8.56527 29.6133,-9.92839 29.6133,-11.4258 L28.5635,-17.2119 C28.5635,-17.3747 28.5635,-17.5334 28.5635,-17.688 C28.5635,-17.8426 28.5716,-18.0013 28.5879,-18.1641 C28.653,-20.638 29.007,-22.9167 29.6499,-25 C30.2928,-27.0833 31.2897,-28.7598 32.6406,-30.0293 C33.9915,-31.2988 35.7575,-31.9336 37.9385,-31.9336 C39.1429,-31.9336 40.2212,-31.7424 41.1733,-31.3599 C42.1255,-30.9774 42.9352,-30.4362 43.6025,-29.7363 C44.2699,-29.0365 44.7744,-28.1982 45.1162,-27.2217 L45.2139,-26.9531 L49.6816,-26.9531 L49.6084,-27.2705 C49.2178,-28.9795 48.4854,-30.4769 47.4111,-31.7627 C46.3369,-33.0485 44.9982,-34.0454 43.395,-34.7534 C41.7918,-35.4614 39.9893,-35.8154 37.9873,-35.8154 C35.1227,-35.8154 32.6691,-35.0749 30.6265,-33.5938 C28.5838,-32.1126 27.0213,-29.9683 25.939,-27.1606 C24.8566,-24.353 24.3154,-20.9717 24.3154,-17.0166 L24.3154,-16.9678 C24.3154,-13.6963 24.702,-10.9416 25.4751,-8.70361 C26.2482,-6.46566 27.2817,-4.66309 28.5757,-3.2959 C29.8696,-1.92871 31.306,-0.939941 32.8848,-0.32959 C34.4635,0.280762 36.0667,0.585938 37.6943,0.585938 M68.418,0.585938 C71.1198,0.585938 73.4391,-0.154622 75.376,-1.63574 C77.3128,-3.11686 78.798,-5.21647 79.8315,-7.93457 C80.8651,-10.6527 81.3818,-13.8753 81.3818,-17.6025 L81.3818,-17.6514 C81.3818,-21.3786 80.8651,-24.6012 79.8315,-27.3193 C78.798,-30.0374 77.3128,-32.133 75.376,-33.606 C73.4391,-35.0789 71.1198,-35.8154 68.418,-35.8154 C65.7161,-35.8154 63.4009,-35.0789 61.4722,-33.606 C59.5435,-32.133 58.0664,-30.0374 57.041,-27.3193 C56.0156,-24.6012 55.5029,-21.3786 55.5029,-17.6514 L55.5029,-17.6025 C55.5029,-13.8753 56.0156,-10.6527 57.041,-7.93457 C58.0664,-5.21647 59.5435,-3.11686 61.4722,-1.63574 C63.4009,-0.154622 65.7161,0.585938 68.418,0.585938 M68.418,-3.24707 C66.6276,-3.24707 65.0977,-3.82894 63.8281,-4.99268 C62.5586,-6.15641 61.5902,-7.8125 60.9229,-9.96094 C60.2555,-12.1094 59.9219,-14.6566 59.9219,-17.6025 L59.9219,-17.6514 C59.9219,-20.5973 60.2555,-23.1405 60.9229,-25.2808 C61.5902,-27.4211 62.5586,-29.069 63.8281,-30.2246 C65.0977,-31.3802 66.6276,-31.958 68.418,-31.958 C70.2083,-31.958 71.7424,-31.3802 73.02,-30.2246 C74.2977,-29.069 75.2743,-27.4211 75.9497,-25.2808 C76.6252,-23.1405 76.9629,-20.5973 76.9629,-17.6514 L76.9629,-17.6025 C76.9629,-14.6566 76.6252,-12.1094 75.9497,-9.96094 C75.2743,-7.8125 74.2977,-6.15641 73.02,-4.99268 C71.7424,-3.82894 70.2083,-3.24707 68.418,-3.24707 M99.5381,0.585938 C101.947,0.585938 104.087,0.0691732 105.959,-0.964355 C107.831,-1.99788 109.308,-3.4139 110.39,-5.2124 C111.472,-7.0109 112.014,-9.06576 112.014,-11.377 L112.014,-11.4258 C112.014,-13.6556 111.505,-15.6494 110.488,-17.4072 C109.471,-19.165 108.083,-20.5485 106.325,-21.5576 C104.567,-22.5667 102.565,-23.0713 100.319,-23.0713 C98.7243,-23.0713 97.2757,-22.8149 95.9736,-22.3022 C94.6715,-21.7896 93.5526,-21.106 92.6167,-20.2515 C91.6808,-19.397 90.9769,-18.4489 90.5049,-17.4072 L89.9922,-17.4072 L89.9922,-11.4258 L91.457,-11.4258 L91.457,-11.4502 C91.457,-12.9476 91.811,-14.2822 92.519,-15.4541 C93.2271,-16.626 94.1955,-17.5456 95.4243,-18.2129 C96.6532,-18.8802 98.0326,-19.2139 99.5625,-19.2139 C101.109,-19.2139 102.484,-18.8761 103.688,-18.2007 C104.893,-17.5252 105.837,-16.5934 106.521,-15.4053 C107.204,-14.2171 107.546,-12.8581 107.546,-11.3281 L107.546,-11.2793 C107.546,-9.79818 107.188,-8.4554 106.472,-7.25098 C105.756,-6.04655 104.787,-5.09033 103.566,-4.38232 C102.346,-3.67432 100.987,-3.32031 99.4893,-3.32031 C97.9919,-3.32031 96.6328,-3.68245 95.4121,-4.40674 C94.1914,-5.13102 93.2271,-6.10758 92.519,-7.33643 C91.811,-8.56527 91.457,-9.92839 91.457,-11.4258 L90.4072,-17.2119 C90.4072,-17.3747 90.4072,-17.5334 90.4072,-17.688 C90.4072,-17.8426 90.4154,-18.0013 90.4316,-18.1641 C90.4967,-20.638 90.8507,-22.9167 91.4937,-25 C92.1366,-27.0833 93.1335,-28.7598 94.4844,-30.0293 C95.8353,-31.2988 97.6012,-31.9336 99.7822,-31.9336 C100.987,-31.9336 102.065,-31.7424 103.017,-31.3599 C103.969,-30.9774 104.779,-30.4362 105.446,-29.7363 C106.114,-29.0365 106.618,-28.1982 106.96,-27.2217 L107.058,-26.9531 L111.525,-26.9531 L111.452,-27.2705 C111.062,-28.9795 110.329,-30.4769 109.255,-31.7627 C108.181,-33.0485 106.842,-34.0454 105.239,-34.7534 C103.636,-35.4614 101.833,-35.8154 99.8311,-35.8154 C96.9665,-35.8154 94.5129,-35.0749 92.4702,-33.5938 C90.4276,-32.1126 88.8651,-29.9683 87.7827,-27.1606 C86.7004,-24.353 86.1592,-20.9717 86.1592,-17.0166 L86.1592,-16.9678 C86.1592,-13.6963 86.5457,-10.9416 87.3188,-8.70361 C88.092,-6.46566 89.1255,-4.66309 90.4194,-3.2959 C91.7134,-1.92871 93.1497,-0.939941 94.7285,-0.32959 C96.3073,0.280762 97.9105,0.585938 99.5381,0.585938 M128.624,-12.3047 L144.249,-12.3047 L144.249,-16.2598 L128.624,-16.2598 L128.624,-12.3047 M160.935,0 L184.177,0 L184.177,-3.90625 L165.671,-3.90625 L166.965,-2.68555 L166.965,-5.39551 L165.671,-2.68555 L175.339,-12.5977 C177.504,-14.8112 179.18,-16.6707 180.368,-18.1763 C181.556,-19.6818 182.39,-21.0368 182.871,-22.2412 C183.351,-23.4456 183.591,-24.6908 183.591,-25.9766 L183.591,-26.0254 C183.591,-27.8646 183.115,-29.5247 182.163,-31.0059 C181.21,-32.487 179.904,-33.6589 178.244,-34.5215 C176.584,-35.3841 174.688,-35.8154 172.556,-35.8154 C170.375,-35.8154 168.385,-35.3556 166.586,-34.436 C164.788,-33.5164 163.36,-32.255 162.302,-30.6519 C161.244,-29.0487 160.715,-27.2298 160.715,-25.1953 L160.715,-25.0488 L164.963,-25.0488 L164.963,-25.1709 C164.963,-26.4404 165.297,-27.5879 165.964,-28.6133 C166.631,-29.6387 167.543,-30.4565 168.698,-31.0669 C169.854,-31.6772 171.164,-31.9824 172.629,-31.9824 C173.915,-31.9824 175.05,-31.7179 176.035,-31.189 C177.019,-30.66 177.792,-29.9316 178.354,-29.0039 C178.916,-28.0762 179.196,-27.0101 179.196,-25.8057 L179.196,-25.7568 C179.196,-24.7803 179.038,-23.8607 178.72,-22.998 C178.403,-22.1354 177.825,-21.1629 176.987,-20.0806 C176.149,-18.9982 174.932,-17.627 173.337,-15.9668 L160.935,-3.02734 L160.935,0 M192.898,0 L197.513,0 L213.187,-31.1523 L213.187,-35.2295 L189.871,-35.2295 L189.871,-31.3232 L208.841,-31.3232 L208.841,-31.2256 L192.898,0 M230.196,-35.8154 C227.787,-35.8154 225.647,-35.2987 223.775,-34.2651 C221.904,-33.2316 220.427,-31.8156 219.344,-30.0171 C218.262,-28.2186 217.721,-26.1637 217.721,-23.8525 L217.721,-23.8037 C217.721,-21.5739 218.229,-19.5801 219.247,-17.8223 C220.264,-16.0645 221.655,-14.681 223.421,-13.6719 C225.187,-12.6628 227.185,-12.1582 229.415,-12.1582 C231.01,-12.1582 232.463,-12.4146 233.773,-12.9272 C235.083,-13.4399 236.202,-14.1235 237.13,-14.978 C238.058,-15.8325 238.757,-16.7806 239.229,-17.8223 L239.742,-17.8223 L239.742,-23.8037 L238.277,-23.8037 L238.277,-23.7793 C238.277,-22.2819 237.923,-20.9473 237.215,-19.7754 C236.507,-18.6035 235.543,-17.6839 234.322,-17.0166 C233.102,-16.3493 231.718,-16.0156 230.172,-16.0156 C228.626,-16.0156 227.25,-16.3534 226.046,-17.0288 C224.841,-17.7043 223.897,-18.6361 223.214,-19.8242 C222.53,-21.0124 222.188,-22.3714 222.188,-23.9014 L222.188,-23.9502 C222.188,-25.4313 222.547,-26.7741 223.263,-27.9785 C223.979,-29.1829 224.947,-30.1392 226.168,-30.8472 C227.389,-31.5552 228.748,-31.9092 230.245,-31.9092 C231.759,-31.9092 233.122,-31.547 234.334,-30.8228 C235.547,-30.0985 236.507,-29.126 237.215,-27.9053 C237.923,-26.6846 238.277,-25.3174 238.277,-23.8037 L239.327,-18.0176 C239.327,-17.8548 239.327,-17.6961 239.327,-17.5415 C239.327,-17.3869 239.319,-17.2282 239.303,-17.0654 C239.238,-14.6077 238.884,-12.3332 238.241,-10.2417 C237.598,-8.15023 236.605,-6.46973 235.262,-5.2002 C233.919,-3.93066 232.149,-3.2959 229.952,-3.2959 C228.748,-3.2959 227.669,-3.48714 226.717,-3.86963 C225.765,-4.25212 224.959,-4.79736 224.3,-5.50537 C223.641,-6.21338 223.132,-7.04753 222.774,-8.00781 L222.677,-8.27637 L218.209,-8.27637 L218.282,-7.95898 C218.673,-6.25 219.405,-4.75667 220.479,-3.479 C221.554,-2.20133 222.896,-1.20443 224.508,-0.488281 C226.119,0.227865 227.918,0.585938 229.903,0.585938 C232.784,0.585938 235.242,-0.154622 237.276,-1.63574 C239.311,-3.11686 240.869,-5.26123 241.952,-8.06885 C243.034,-10.8765 243.575,-14.2578 243.575,-18.2129 L243.575,-18.2617 C243.575,-21.5332 243.189,-24.2879 242.416,-26.5259 C241.642,-28.7638 240.609,-30.5664 239.315,-31.9336 C238.021,-33.3008 236.585,-34.2896 235.006,-34.8999 C233.427,-35.5103 231.824,-35.8154 230.196,-35.8154 M265.729,0 L269.978,0 L269.978,-7.32422 L274.958,-7.32422 L274.958,-11.1816 L269.978,-11.1816 L269.978,-35.2295 L263.483,-35.2295 C262.458,-33.6344 261.429,-32.0394 260.395,-30.4443 C259.361,-28.8493 258.332,-27.2542 257.307,-25.6592 C256.281,-24.0641 255.252,-22.4691 254.218,-20.874 C253.185,-19.279 252.151,-17.6839 251.118,-16.0889 C250.084,-14.4938 249.055,-12.8988 248.029,-11.3037 L248.029,-7.32422 L265.729,-7.32422 L265.729,0 M252.375,-11.1816 L252.375,-11.2793 C253.254,-12.6302 254.133,-13.9771 255.012,-15.3198 C255.891,-16.6626 256.774,-18.0094 257.661,-19.3604 C258.548,-20.7113 259.431,-22.0581 260.31,-23.4009 C261.188,-24.7437 262.067,-26.0864 262.946,-27.4292 C263.825,-28.772 264.704,-30.1188 265.583,-31.4697 L265.729,-31.4697 L265.729,-11.1816 L252.375,-11.1816"/>
  </g>
  <g stroke-width="1" font-style="normal" stroke-opacity="1" stroke-linecap="square" font-family=".AppleSystemUIFont" stroke="#000000" stroke-linejoin="bevel" fill="none" font-size="54.1667" transform="matrix(0.23994,0,0,0.23994,352.519,705.751)" font-weight="400"/>
  <g stroke-width="1" font-style="normal" stroke-opacity="1" stroke-linecap="square" font-family=".AppleSystemUIFont" stroke="#000000" stroke-linejoin="bevel" fill="none" font-size="54.1667" transform="matrix(0.999751,0,0,0.999751,222.63,368.617)" font-weight="400"/>
  <g stroke-width="1" font-style="normal" stroke-opacity="1" stroke-linecap="square" font-family=".AppleSystemUIFont" stroke="#000000" stroke-linejoin="bevel" fill="none" font-size="54.1667" transform="matrix(11.8081,0,0,11.8081,222.63,368.617)" font-weight="400"/>
  <g stroke-width="3.07087" font-style="normal" stroke-opacity="1" stroke-linecap="square" font-family=".AppleSystemUIFont" stroke="#232323" stroke-linejoin="bevel" fill="#3e356b" fill-opacity="1" font-size="54.1667" transform="matrix(0.999751,0,0,0.999751,246.246,741.655)" font-weight="400">
   <path vector-effect="none" fill-rule="evenodd" d="M0,0 L83,0 L83,47 L0,47 L0,0"/>
  </g>
  <g stroke-width="1" font-style="normal" stroke-opacity="1" stroke-linecap="square" font-family=".AppleSystemUIFont" stroke="#000000" stroke-linejoin="bevel" fill="none" font-size="54.1667" transform="matrix(11.8081,0,0,11.8081,222.63,368.617)" font-weight="400"/>
  <g stroke-width="1" font-style="normal" stroke-opacity="1" stroke-linecap="square" font-family=".AppleSystemUIFont" stroke="#000000" stroke-linejoin="bevel" fill="none" font-size="54.1667" transform="matrix(0.999751,0,0,0.999751,222.63,368.617)" font-weight="400"/>
  <g stroke-width="1" font-style="normal" stroke-opacity="1" stroke-linecap="square" font-family=".AppleSystemUIFont" stroke="#000000" stroke-linejoin="bevel" fill="none" font-size="54.1667" transform="matrix(0.23994,0,0,0.23994,352.519,782.732)" font-weight="400"/>
  <g font-style="normal" font-family=".AppleSystemUIFont" stroke="none" fill="#000000" fill-opacity="1" font-size="54.1667" transform="matrix(0.999751,0,0,0.999751,352.519,782.732)" font-weight="400">
   <path vector-effect="none" fill-rule="nonzero" d="M2.85645,0 L26.0986,0 L26.0986,-3.90625 L7.59277,-3.90625 L8.88672,-2.68555 L8.88672,-5.39551 L7.59277,-2.68555 L17.2607,-12.5977 C19.4255,-14.8112 21.1019,-16.6707 22.29,-18.1763 C23.4782,-19.6818 24.3123,-21.0368 24.7925,-22.2412 C25.2726,-23.4456 25.5127,-24.6908 25.5127,-25.9766 L25.5127,-26.0254 C25.5127,-27.8646 25.0366,-29.5247 24.0845,-31.0059 C23.1323,-32.487 21.8262,-33.6589 20.166,-34.5215 C18.5059,-35.3841 16.6097,-35.8154 14.4775,-35.8154 C12.2965,-35.8154 10.3068,-35.3556 8.5083,-34.436 C6.7098,-33.5164 5.28158,-32.255 4.22363,-30.6519 C3.16569,-29.0487 2.63672,-27.2298 2.63672,-25.1953 L2.63672,-25.0488 L6.88477,-25.0488 L6.88477,-25.1709 C6.88477,-26.4404 7.21842,-27.5879 7.88574,-28.6133 C8.55306,-29.6387 9.46452,-30.4565 10.6201,-31.0669 C11.7757,-31.6772 13.0859,-31.9824 14.5508,-31.9824 C15.8366,-31.9824 16.9718,-31.7179 17.9565,-31.189 C18.9412,-30.66 19.7144,-29.9316 20.2759,-29.0039 C20.8374,-28.0762 21.1182,-27.0101 21.1182,-25.8057 L21.1182,-25.7568 C21.1182,-24.7803 20.9595,-23.8607 20.6421,-22.998 C20.3247,-22.1354 19.7469,-21.1629 18.9087,-20.0806 C18.0705,-18.9982 16.8538,-17.627 15.2588,-15.9668 L2.85645,-3.02734 L2.85645,0 M34.8203,0 L39.4346,0 L55.1084,-31.1523 L55.1084,-35.2295 L31.793,-35.2295 L31.793,-31.3232 L50.7627,-31.3232 L50.7627,-31.2256 L34.8203,0 M72.1182,-35.8154 C69.7093,-35.8154 67.569,-35.2987 65.6973,-34.2651 C63.8255,-33.2316 62.3485,-31.8156 61.2661,-30.0171 C60.1838,-28.2186 59.6426,-26.1637 59.6426,-23.8525 L59.6426,-23.8037 C59.6426,-21.5739 60.1512,-19.5801 61.1685,-17.8223 C62.1857,-16.0645 63.5773,-14.681 65.3433,-13.6719 C67.1092,-12.6628 69.1071,-12.1582 71.3369,-12.1582 C72.932,-12.1582 74.3846,-12.4146 75.6948,-12.9272 C77.005,-13.4399 78.124,-14.1235 79.0518,-14.978 C79.9795,-15.8325 80.6794,-16.7806 81.1514,-17.8223 L81.6641,-17.8223 L81.6641,-23.8037 L80.1992,-23.8037 L80.1992,-23.7793 C80.1992,-22.2819 79.8452,-20.9473 79.1372,-19.7754 C78.4292,-18.6035 77.4648,-17.6839 76.2441,-17.0166 C75.0234,-16.3493 73.64,-16.0156 72.0938,-16.0156 C70.5475,-16.0156 69.1722,-16.3534 67.9678,-17.0288 C66.7633,-17.7043 65.8193,-18.6361 65.1357,-19.8242 C64.4521,-21.0124 64.1104,-22.3714 64.1104,-23.9014 L64.1104,-23.9502 C64.1104,-25.4313 64.4684,-26.7741 65.1846,-27.9785 C65.9007,-29.1829 66.8691,-30.1392 68.0898,-30.8472 C69.3105,-31.5552 70.6696,-31.9092 72.167,-31.9092 C73.6807,-31.9092 75.0438,-31.547 76.2563,-30.8228 C77.4689,-30.0985 78.4292,-29.126 79.1372,-27.9053 C79.8452,-26.6846 80.1992,-25.3174 80.1992,-23.8037 L81.249,-18.0176 C81.249,-17.8548 81.249,-17.6961 81.249,-17.5415 C81.249,-17.3869 81.2409,-17.2282 81.2246,-17.0654 C81.1595,-14.6077 80.8055,-12.3332 80.1626,-10.2417 C79.5197,-8.15023 78.5269,-6.46973 77.1841,-5.2002 C75.8413,-3.93066 74.0713,-3.2959 71.874,-3.2959 C70.6696,-3.2959 69.5913,-3.48714 68.6392,-3.86963 C67.687,-4.25212 66.8813,-4.79736 66.2222,-5.50537 C65.563,-6.21338 65.0544,-7.04753 64.6963,-8.00781 L64.5986,-8.27637 L60.1309,-8.27637 L60.2041,-7.95898 C60.5947,-6.25 61.3271,-4.75667 62.4014,-3.479 C63.4756,-2.20133 64.8184,-1.20443 66.4297,-0.488281 C68.041,0.227865 69.8395,0.585938 71.8252,0.585938 C74.7061,0.585938 77.1637,-0.154622 79.1982,-1.63574 C81.2327,-3.11686 82.7912,-5.26123 83.8735,-8.06885 C84.9559,-10.8765 85.4971,-14.2578 85.4971,-18.2129 L85.4971,-18.2617 C85.4971,-21.5332 85.1105,-24.2879 84.3374,-26.5259 C83.5643,-28.7638 82.5308,-30.5664 81.2368,-31.9336 C79.9429,-33.3008 78.5065,-34.2896 76.9277,-34.8999 C75.349,-35.5103 73.7458,-35.8154 72.1182,-35.8154 M107.651,0 L111.899,0 L111.899,-7.32422 L116.88,-7.32422 L116.88,-11.1816 L111.899,-11.1816 L111.899,-35.2295 L105.405,-35.2295 C104.38,-33.6344 103.35,-32.0394 102.317,-30.4443 C101.283,-28.8493 100.254,-27.2542 99.2285,-25.6592 C98.2031,-24.0641 97.1737,-22.4691 96.1401,-20.874 C95.1066,-19.279 94.0731,-17.6839 93.0396,-16.0889 C92.006,-14.4938 90.9766,-12.8988 89.9512,-11.3037 L89.9512,-7.32422 L107.651,-7.32422 L107.651,0 M94.2969,-11.1816 L94.2969,-11.2793 C95.1758,-12.6302 96.0547,-13.9771 96.9336,-15.3198 C97.8125,-16.6626 98.6955,-18.0094 99.5825,-19.3604 C100.47,-20.7113 101.353,-22.0581 102.231,-23.4009 C103.11,-24.7437 103.989,-26.0864 104.868,-27.4292 C105.747,-28.772 106.626,-30.1188 107.505,-31.4697 L107.651,-31.4697 L107.651,-11.1816 L94.2969,-11.1816 M132.108,-12.3047 L147.733,-12.3047 L147.733,-16.2598 L132.108,-16.2598 L132.108,-12.3047 M181.167,0 L185.415,0 L185.415,-7.32422 L190.396,-7.32422 L190.396,-11.1816 L185.415,-11.1816 L185.415,-35.2295 L178.921,-35.2295 C177.896,-33.6344 176.866,-32.0394 175.833,-30.4443 C174.799,-28.8493 173.77,-27.2542 172.744,-25.6592 C171.719,-24.0641 170.689,-22.4691 169.656,-20.874 C168.622,-19.279 167.589,-17.6839 166.555,-16.0889 C165.522,-14.4938 164.492,-12.8988 163.467,-11.3037 L163.467,-7.32422 L181.167,-7.32422 L181.167,0 M167.813,-11.1816 L167.813,-11.2793 C168.691,-12.6302 169.57,-13.9771 170.449,-15.3198 C171.328,-16.6626 172.211,-18.0094 173.098,-19.3604 C173.985,-20.7113 174.868,-22.0581 175.747,-23.4009 C176.626,-24.7437 177.505,-26.0864 178.384,-27.4292 C179.263,-28.772 180.142,-30.1188 181.021,-31.4697 L181.167,-31.4697 L181.167,-11.1816 L167.813,-11.1816 M203.56,0 L207.808,0 L207.808,-35.2295 L203.511,-35.2295 L194.136,-28.4912 L194.136,-24.0723 L203.462,-30.5664 L203.56,-30.5664 L203.56,0 M227.975,0.585938 C230.465,0.585938 232.674,0.154622 234.603,-0.708008 C236.532,-1.57064 238.041,-2.76286 239.132,-4.28467 C240.222,-5.80648 240.768,-7.55208 240.768,-9.52148 L240.768,-9.57031 C240.768,-11.0189 240.45,-12.3617 239.815,-13.5986 C239.181,-14.8356 238.298,-15.8895 237.167,-16.7603 C236.035,-17.631 234.713,-18.2373 233.199,-18.5791 L233.199,-18.6768 C235.136,-19.279 236.67,-20.2718 237.801,-21.6553 C238.932,-23.0387 239.498,-24.6582 239.498,-26.5137 L239.498,-26.5625 C239.498,-28.3366 239.002,-29.9194 238.009,-31.311 C237.016,-32.7026 235.653,-33.8013 233.919,-34.6069 C232.186,-35.4126 230.204,-35.8154 227.975,-35.8154 C225.761,-35.8154 223.784,-35.4126 222.042,-34.6069 C220.3,-33.8013 218.933,-32.7026 217.94,-31.311 C216.948,-29.9194 216.451,-28.3366 216.451,-26.5625 L216.451,-26.5137 C216.451,-24.6582 217.021,-23.0387 218.16,-21.6553 C219.299,-20.2718 220.829,-19.279 222.75,-18.6768 L222.75,-18.5791 C221.253,-18.2373 219.934,-17.631 218.795,-16.7603 C217.656,-15.8895 216.769,-14.8356 216.134,-13.5986 C215.499,-12.3617 215.182,-11.0189 215.182,-9.57031 L215.182,-9.52148 C215.182,-7.55208 215.731,-5.80648 216.83,-4.28467 C217.928,-2.76286 219.438,-1.57064 221.358,-0.708008 C223.279,0.154622 225.484,0.585938 227.975,0.585938 M227.975,-3.24707 C226.363,-3.24707 224.931,-3.52783 223.678,-4.08936 C222.424,-4.65088 221.44,-5.42399 220.724,-6.40869 C220.007,-7.39339 219.649,-8.52051 219.649,-9.79004 L219.649,-9.83887 C219.649,-11.1247 220.003,-12.264 220.711,-13.2568 C221.419,-14.2497 222.4,-15.0309 223.653,-15.6006 C224.907,-16.1702 226.347,-16.4551 227.975,-16.4551 C229.602,-16.4551 231.043,-16.1702 232.296,-15.6006 C233.549,-15.0309 234.53,-14.2497 235.238,-13.2568 C235.946,-12.264 236.3,-11.1247 236.3,-9.83887 L236.3,-9.79004 C236.3,-8.52051 235.942,-7.39339 235.226,-6.40869 C234.509,-5.42399 233.529,-4.65088 232.284,-4.08936 C231.039,-3.52783 229.602,-3.24707 227.975,-3.24707 M227.975,-20.3125 C226.559,-20.3125 225.313,-20.5607 224.239,-21.0571 C223.165,-21.5535 222.327,-22.2412 221.725,-23.1201 C221.122,-23.999 220.821,-25.0081 220.821,-26.1475 L220.821,-26.1963 C220.821,-27.3356 221.122,-28.3447 221.725,-29.2236 C222.327,-30.1025 223.165,-30.7902 224.239,-31.2866 C225.313,-31.783 226.559,-32.0313 227.975,-32.0313 C229.391,-32.0313 230.636,-31.783 231.71,-31.2866 C232.784,-30.7902 233.622,-30.1025 234.225,-29.2236 C234.827,-28.3447 235.128,-27.3356 235.128,-26.1963 L235.128,-26.1475 C235.128,-25.0081 234.827,-23.999 234.225,-23.1201 C233.622,-22.2412 232.784,-21.5535 231.71,-21.0571 C230.636,-20.5607 229.391,-20.3125 227.975,-20.3125 M259.434,0.585938 C262.135,0.585938 264.455,-0.154622 266.392,-1.63574 C268.328,-3.11686 269.814,-5.21647 270.847,-7.93457 C271.881,-10.6527 272.397,-13.8753 272.397,-17.6025 L272.397,-17.6514 C272.397,-21.3786 271.881,-24.6012 270.847,-27.3193 C269.814,-30.0374 268.328,-32.133 266.392,-33.606 C264.455,-35.0789 262.135,-35.8154 259.434,-35.8154 C256.732,-35.8154 254.417,-35.0789 252.488,-33.606 C250.559,-32.133 249.082,-30.0374 248.057,-27.3193 C247.031,-24.6012 246.519,-21.3786 246.519,-17.6514 L246.519,-17.6025 C246.519,-13.8753 247.031,-10.6527 248.057,-7.93457 C249.082,-5.21647 250.559,-3.11686 252.488,-1.63574 C254.417,-0.154622 256.732,0.585938 259.434,0.585938 M259.434,-3.24707 C257.643,-3.24707 256.113,-3.82894 254.844,-4.99268 C253.574,-6.15641 252.606,-7.8125 251.938,-9.96094 C251.271,-12.1094 250.938,-14.6566 250.938,-17.6025 L250.938,-17.6514 C250.938,-20.5973 251.271,-23.1405 251.938,-25.2808 C252.606,-27.4211 253.574,-29.069 254.844,-30.2246 C256.113,-31.3802 257.643,-31.958 259.434,-31.958 C261.224,-31.958 262.758,-31.3802 264.036,-30.2246 C265.313,-29.069 266.29,-27.4211 266.965,-25.2808 C267.641,-23.1405 267.979,-20.5973 267.979,-17.6514 L267.979,-17.6025 C267.979,-14.6566 267.641,-12.1094 266.965,-9.96094 C266.29,-7.8125 265.313,-6.15641 264.036,-4.99268 C262.758,-3.82894 261.224,-3.24707 259.434,-3.24707 "/>
  </g>
  <g stroke-width="1" font-style="normal" stroke-opacity="1" stroke-linecap="square" font-family=".AppleSystemUIFont" stroke="#000000" stroke-linejoin="bevel" fill="none" font-size="54.1667" transform="matrix(0.23994,0,0,0.23994,352.519,782.732)" font-weight="400"/>
  <g stroke-width="1" font-style="normal" stroke-opacity="1" stroke-linecap="square" font-family=".AppleSystemUIFont" stroke="#000000" stroke-linejoin="bevel" fill="none" font-size="54.1667" transform="matrix(0.999751,0,0,0.999751,222.63,368.617)" font-weight="400"/>
  <g stroke-width="1" font-style="normal" stroke-opacity="1" stroke-linecap="square" font-family=".AppleSystemUIFont" stroke="#000000" stroke-linejoin="bevel" fill="none" font-size="54.1667" transform="matrix(11.8081,0,0,11.8081,222.63,368.617)" font-weight="400"/>
  <g stroke-width="3.07087" font-style="normal" stroke-opacity="1" stroke-linecap="square" font-family=".AppleSystemUIFont" stroke="#232323" stroke-linejoin="bevel" fill="#0b0405" fill-opacity="1" font-size="54.1667" transform="matrix(0.999751,0,0,0.999751,246.246,818.407)" font-weight="400">
   <path vector-effect="none" fill-rule="evenodd" d="M0,0 L83,0 L83,47 L0,47 L0,0"/>
  </g>
  <g stroke-width="1" font-style="normal" stroke-opacity="1" stroke-linecap="square" font-family=".AppleSystemUIFont" stroke="#000000" stroke-linejoin="bevel" fill="none" font-size="54.1667" transform="matrix(11.8081,0,0,11.8081,222.63,368.617)" font-weight="400"/>
  <g stroke-width="1" font-style="normal" stroke-opacity="1" stroke-linecap="square" font-family=".AppleSystemUIFont" stroke="#000000" stroke-linejoin="bevel" fill="none" font-size="54.1667" transform="matrix(0.999751,0,0,0.999751,222.63,368.617)" font-weight="400"/>
  <g stroke-width="1" font-style="normal" stroke-opacity="1" stroke-linecap="square" font-family=".AppleSystemUIFont" stroke="#000000" stroke-linejoin="bevel" fill="none" font-size="54.1667" transform="matrix(0.23994,0,0,0.23994,352.519,859.713)" font-weight="400"/>
  <g font-style="normal" font-family=".AppleSystemUIFont" stroke="none" fill="#000000" fill-opacity="1" font-size="54.1667" transform="matrix(0.999751,0,0,0.999751,352.519,859.713)" font-weight="400">
   <path vector-effect="none" fill-rule="nonzero" d="M19.6045,0 L23.8525,0 L23.8525,-7.32422 L28.833,-7.32422 L28.833,-11.1816 L23.8525,-11.1816 L23.8525,-35.2295 L17.3584,-35.2295 C16.333,-33.6344 15.3035,-32.0394 14.27,-30.4443 C13.2365,-28.8493 12.207,-27.2542 11.1816,-25.6592 C10.1563,-24.0641 9.12679,-22.4691 8.09326,-20.874 C7.05973,-19.279 6.0262,-17.6839 4.99268,-16.0889 C3.95915,-14.4938 2.92969,-12.8988 1.9043,-11.3037 L1.9043,-7.32422 L19.6045,-7.32422 L19.6045,0 M6.25,-11.1816 L6.25,-11.2793 C7.12891,-12.6302 8.00781,-13.9771 8.88672,-15.3198 C9.76563,-16.6626 10.6486,-18.0094 11.5356,-19.3604 C12.4227,-20.7113 13.3057,-22.0581 14.1846,-23.4009 C15.0635,-24.7437 15.9424,-26.0864 16.8213,-27.4292 C17.7002,-28.772 18.5791,-30.1188 19.458,-31.4697 L19.6045,-31.4697 L19.6045,-11.1816 L6.25,-11.1816 M41.9971,0 L46.2451,0 L46.2451,-35.2295 L41.9482,-35.2295 L32.5732,-28.4912 L32.5732,-24.0723 L41.8994,-30.5664 L41.9971,-30.5664 L41.9971,0 M66.4121,0.585938 C68.9023,0.585938 71.1118,0.154622 73.0405,-0.708008 C74.9692,-1.57064 76.4788,-2.76286 77.5693,-4.28467 C78.6598,-5.80648 79.2051,-7.55208 79.2051,-9.52148 L79.2051,-9.57031 C79.2051,-11.0189 78.8877,-12.3617 78.2529,-13.5986 C77.6182,-14.8356 76.7352,-15.8895 75.604,-16.7603 C74.4728,-17.631 73.1504,-18.2373 71.6367,-18.5791 L71.6367,-18.6768 C73.5736,-19.279 75.1076,-20.2718 76.2388,-21.6553 C77.37,-23.0387 77.9355,-24.6582 77.9355,-26.5137 L77.9355,-26.5625 C77.9355,-28.3366 77.4391,-29.9194 76.4463,-31.311 C75.4535,-32.7026 74.0903,-33.8013 72.3569,-34.6069 C70.6235,-35.4126 68.6419,-35.8154 66.4121,-35.8154 C64.1986,-35.8154 62.221,-35.4126 60.4795,-34.6069 C58.738,-33.8013 57.3708,-32.7026 56.3779,-31.311 C55.3851,-29.9194 54.8887,-28.3366 54.8887,-26.5625 L54.8887,-26.5137 C54.8887,-24.6582 55.4583,-23.0387 56.5977,-21.6553 C57.737,-20.2718 59.2669,-19.279 61.1875,-18.6768 L61.1875,-18.5791 C59.6901,-18.2373 58.3717,-17.631 57.2324,-16.7603 C56.0931,-15.8895 55.2061,-14.8356 54.5713,-13.5986 C53.9365,-12.3617 53.6191,-11.0189 53.6191,-9.57031 L53.6191,-9.52148 C53.6191,-7.55208 54.1685,-5.80648 55.2671,-4.28467 C56.3657,-2.76286 57.8753,-1.57064 59.7959,-0.708008 C61.7165,0.154622 63.9219,0.585938 66.4121,0.585938 M66.4121,-3.24707 C64.8008,-3.24707 63.3685,-3.52783 62.1152,-4.08936 C60.862,-4.65088 59.8773,-5.42399 59.1611,-6.40869 C58.445,-7.39339 58.0869,-8.52051 58.0869,-9.79004 L58.0869,-9.83887 C58.0869,-11.1247 58.4409,-12.264 59.1489,-13.2568 C59.8569,-14.2497 60.8376,-15.0309 62.0908,-15.6006 C63.3441,-16.1702 64.7845,-16.4551 66.4121,-16.4551 C68.0397,-16.4551 69.4801,-16.1702 70.7334,-15.6006 C71.9867,-15.0309 72.9673,-14.2497 73.6753,-13.2568 C74.3833,-12.264 74.7373,-11.1247 74.7373,-9.83887 L74.7373,-9.79004 C74.7373,-8.52051 74.3792,-7.39339 73.6631,-6.40869 C72.9469,-5.42399 71.9663,-4.65088 70.7212,-4.08936 C69.4761,-3.52783 68.0397,-3.24707 66.4121,-3.24707 M66.4121,-20.3125 C64.9961,-20.3125 63.751,-20.5607 62.6768,-21.0571 C61.6025,-21.5535 60.7643,-22.2412 60.1621,-23.1201 C59.5599,-23.999 59.2588,-25.0081 59.2588,-26.1475 L59.2588,-26.1963 C59.2588,-27.3356 59.5599,-28.3447 60.1621,-29.2236 C60.7643,-30.1025 61.6025,-30.7902 62.6768,-31.2866 C63.751,-31.783 64.9961,-32.0313 66.4121,-32.0313 C67.8281,-32.0313 69.0732,-31.783 70.1475,-31.2866 C71.2217,-30.7902 72.0599,-30.1025 72.6621,-29.2236 C73.2643,-28.3447 73.5654,-27.3356 73.5654,-26.1963 L73.5654,-26.1475 C73.5654,-25.0081 73.2643,-23.999 72.6621,-23.1201 C72.0599,-22.2412 71.2217,-21.5535 70.1475,-21.0571 C69.0732,-20.5607 67.8281,-20.3125 66.4121,-20.3125 M97.8711,0.585938 C100.573,0.585938 102.892,-0.154622 104.829,-1.63574 C106.766,-3.11686 108.251,-5.21647 109.285,-7.93457 C110.318,-10.6527 110.835,-13.8753 110.835,-17.6025 L110.835,-17.6514 C110.835,-21.3786 110.318,-24.6012 109.285,-27.3193 C108.251,-30.0374 106.766,-32.133 104.829,-33.606 C102.892,-35.0789 100.573,-35.8154 97.8711,-35.8154 C95.1693,-35.8154 92.854,-35.0789 90.9253,-33.606 C88.9966,-32.133 87.5195,-30.0374 86.4941,-27.3193 C85.4688,-24.6012 84.9561,-21.3786 84.9561,-17.6514 L84.9561,-17.6025 C84.9561,-13.8753 85.4688,-10.6527 86.4941,-7.93457 C87.5195,-5.21647 88.9966,-3.11686 90.9253,-1.63574 C92.854,-0.154622 95.1693,0.585938 97.8711,0.585938 M97.8711,-3.24707 C96.0807,-3.24707 94.5508,-3.82894 93.2813,-4.99268 C92.0117,-6.15641 91.0433,-7.8125 90.376,-9.96094 C89.7087,-12.1094 89.375,-14.6566 89.375,-17.6025 L89.375,-17.6514 C89.375,-20.5973 89.7087,-23.1405 90.376,-25.2808 C91.0433,-27.4211 92.0117,-29.069 93.2813,-30.2246 C94.5508,-31.3802 96.0807,-31.958 97.8711,-31.958 C99.6615,-31.958 101.195,-31.3802 102.473,-30.2246 C103.751,-29.069 104.727,-27.4211 105.403,-25.2808 C106.078,-23.1405 106.416,-20.5973 106.416,-17.6514 L106.416,-17.6025 C106.416,-14.6566 106.078,-12.1094 105.403,-9.96094 C104.727,-7.8125 103.751,-6.15641 102.473,-4.99268 C101.195,-3.82894 99.6615,-3.24707 97.8711,-3.24707 M126.89,-12.3047 L142.515,-12.3047 L142.515,-16.2598 L126.89,-16.2598 L126.89,-12.3047 M171.944,0.585938 C174.353,0.585938 176.493,0.0691732 178.365,-0.964355 C180.237,-1.99788 181.714,-3.4139 182.796,-5.2124 C183.879,-7.0109 184.42,-9.06576 184.42,-11.377 L184.42,-11.4258 C184.42,-13.6556 183.911,-15.6494 182.894,-17.4072 C181.877,-19.165 180.489,-20.5485 178.731,-21.5576 C176.974,-22.5667 174.972,-23.0713 172.726,-23.0713 C171.131,-23.0713 169.682,-22.8149 168.38,-22.3022 C167.078,-21.7896 165.959,-21.106 165.023,-20.2515 C164.087,-19.397 163.383,-18.4489 162.911,-17.4072 L162.398,-17.4072 L162.398,-11.4258 L163.863,-11.4258 L163.863,-11.4502 C163.863,-12.9476 164.217,-14.2822 164.925,-15.4541 C165.633,-16.626 166.602,-17.5456 167.831,-18.2129 C169.059,-18.8802 170.439,-19.2139 171.969,-19.2139 C173.515,-19.2139 174.89,-18.8761 176.095,-18.2007 C177.299,-17.5252 178.243,-16.5934 178.927,-15.4053 C179.61,-14.2171 179.952,-12.8581 179.952,-11.3281 L179.952,-11.2793 C179.952,-9.79818 179.594,-8.4554 178.878,-7.25098 C178.162,-6.04655 177.193,-5.09033 175.973,-4.38232 C174.752,-3.67432 173.393,-3.32031 171.896,-3.32031 C170.398,-3.32031 169.039,-3.68245 167.818,-4.40674 C166.598,-5.13102 165.633,-6.10758 164.925,-7.33643 C164.217,-8.56527 163.863,-9.92839 163.863,-11.4258 L162.813,-17.2119 C162.813,-17.3747 162.813,-17.5334 162.813,-17.688 C162.813,-17.8426 162.822,-18.0013 162.838,-18.1641 C162.903,-20.638 163.257,-22.9167 163.9,-25 C164.543,-27.0833 165.54,-28.7598 166.891,-30.0293 C168.242,-31.2988 170.007,-31.9336 172.188,-31.9336 C173.393,-31.9336 174.471,-31.7424 175.423,-31.3599 C176.375,-30.9774 177.185,-30.4362 177.853,-29.7363 C178.52,-29.0365 179.024,-28.1982 179.366,-27.2217 L179.464,-26.9531 L183.932,-26.9531 L183.858,-27.2705 C183.468,-28.9795 182.735,-30.4769 181.661,-31.7627 C180.587,-33.0485 179.248,-34.0454 177.645,-34.7534 C176.042,-35.4614 174.239,-35.8154 172.237,-35.8154 C169.373,-35.8154 166.919,-35.0749 164.876,-33.5938 C162.834,-32.1126 161.271,-29.9683 160.189,-27.1606 C159.107,-24.353 158.565,-20.9717 158.565,-17.0166 L158.565,-16.9678 C158.565,-13.6963 158.952,-10.9416 159.725,-8.70361 C160.498,-6.46566 161.532,-4.66309 162.826,-3.2959 C164.12,-1.92871 165.556,-0.939941 167.135,-0.32959 C168.714,0.280762 170.317,0.585938 171.944,0.585938 M202.521,0.585938 C205.012,0.585938 207.221,0.154622 209.15,-0.708008 C211.079,-1.57064 212.588,-2.76286 213.679,-4.28467 C214.769,-5.80648 215.314,-7.55208 215.314,-9.52148 L215.314,-9.57031 C215.314,-11.0189 214.997,-12.3617 214.362,-13.5986 C213.728,-14.8356 212.845,-15.8895 211.713,-16.7603 C210.582,-17.631 209.26,-18.2373 207.746,-18.5791 L207.746,-18.6768 C209.683,-19.279 211.217,-20.2718 212.348,-21.6553 C213.479,-23.0387 214.045,-24.6582 214.045,-26.5137 L214.045,-26.5625 C214.045,-28.3366 213.549,-29.9194 212.556,-31.311 C211.563,-32.7026 210.2,-33.8013 208.466,-34.6069 C206.733,-35.4126 204.751,-35.8154 202.521,-35.8154 C200.308,-35.8154 198.33,-35.4126 196.589,-34.6069 C194.847,-33.8013 193.48,-32.7026 192.487,-31.311 C191.494,-29.9194 190.998,-28.3366 190.998,-26.5625 L190.998,-26.5137 C190.998,-24.6582 191.568,-23.0387 192.707,-21.6553 C193.846,-20.2718 195.376,-19.279 197.297,-18.6768 L197.297,-18.5791 C195.799,-18.2373 194.481,-17.631 193.342,-16.7603 C192.202,-15.8895 191.315,-14.8356 190.681,-13.5986 C190.046,-12.3617 189.729,-11.0189 189.729,-9.57031 L189.729,-9.52148 C189.729,-7.55208 190.278,-5.80648 191.376,-4.28467 C192.475,-2.76286 193.985,-1.57064 195.905,-0.708008 C197.826,0.154622 200.031,0.585938 202.521,0.585938 M202.521,-3.24707 C200.91,-3.24707 199.478,-3.52783 198.225,-4.08936 C196.971,-4.65088 195.987,-5.42399 195.271,-6.40869 C194.554,-7.39339 194.196,-8.52051 194.196,-9.79004 L194.196,-9.83887 C194.196,-11.1247 194.55,-12.264 195.258,-13.2568 C195.966,-14.2497 196.947,-15.0309 198.2,-15.6006 C199.453,-16.1702 200.894,-16.4551 202.521,-16.4551 C204.149,-16.4551 205.59,-16.1702 206.843,-15.6006 C208.096,-15.0309 209.077,-14.2497 209.785,-13.2568 C210.493,-12.264 210.847,-11.1247 210.847,-9.83887 L210.847,-9.79004 C210.847,-8.52051 210.489,-7.39339 209.772,-6.40869 C209.056,-5.42399 208.076,-4.65088 206.831,-4.08936 C205.585,-3.52783 204.149,-3.24707 202.521,-3.24707 M202.521,-20.3125 C201.105,-20.3125 199.86,-20.5607 198.786,-21.0571 C197.712,-21.5535 196.874,-22.2412 196.271,-23.1201 C195.669,-23.999 195.368,-25.0081 195.368,-26.1475 L195.368,-26.1963 C195.368,-27.3356 195.669,-28.3447 196.271,-29.2236 C196.874,-30.1025 197.712,-30.7902 198.786,-31.2866 C199.86,-31.783 201.105,-32.0313 202.521,-32.0313 C203.938,-32.0313 205.183,-31.783 206.257,-31.2866 C207.331,-30.7902 208.169,-30.1025 208.771,-29.2236 C209.374,-28.3447 209.675,-27.3356 209.675,-26.1963 L209.675,-26.1475 C209.675,-25.0081 209.374,-23.999 208.771,-23.1201 C208.169,-22.2412 207.331,-21.5535 206.257,-21.0571 C205.183,-20.5607 203.938,-20.3125 202.521,-20.3125 M220.7,0 L243.942,0 L243.942,-3.90625 L225.437,-3.90625 L226.73,-2.68555 L226.73,-5.39551 L225.437,-2.68555 L235.104,-12.5977 C237.269,-14.8112 238.946,-16.6707 240.134,-18.1763 C241.322,-19.6818 242.156,-21.0368 242.636,-22.2412 C243.116,-23.4456 243.356,-24.6908 243.356,-25.9766 L243.356,-26.0254 C243.356,-27.8646 242.88,-29.5247 241.928,-31.0059 C240.976,-32.487 239.67,-33.6589 238.01,-34.5215 C236.35,-35.3841 234.453,-35.8154 232.321,-35.8154 C230.14,-35.8154 228.151,-35.3556 226.352,-34.436 C224.554,-33.5164 223.125,-32.255 222.067,-30.6519 C221.009,-29.0487 220.48,-27.2298 220.48,-25.1953 L220.48,-25.0488 L224.729,-25.0488 L224.729,-25.1709 C224.729,-26.4404 225.062,-27.5879 225.729,-28.6133 C226.397,-29.6387 227.308,-30.4565 228.464,-31.0669 C229.619,-31.6772 230.93,-31.9824 232.395,-31.9824 C233.68,-31.9824 234.816,-31.7179 235.8,-31.189 C236.785,-30.66 237.558,-29.9316 238.12,-29.0039 C238.681,-28.0762 238.962,-27.0101 238.962,-25.8057 L238.962,-25.7568 C238.962,-24.7803 238.803,-23.8607 238.486,-22.998 C238.168,-22.1354 237.591,-21.1629 236.752,-20.0806 C235.914,-18.9982 234.698,-17.627 233.103,-15.9668 L220.7,-3.02734 L220.7,0 M252.664,0 L257.278,0 L272.952,-31.1523 L272.952,-35.2295 L249.637,-35.2295 L249.637,-31.3232 L268.606,-31.3232 L268.606,-31.2256 L252.664,0"/>
  </g>
  <g stroke-width="1" font-style="normal" stroke-opacity="1" stroke-linecap="square" font-family=".AppleSystemUIFont" stroke="#000000" stroke-linejoin="bevel" fill="none" font-size="54.1667" transform="matrix(0.23994,0,0,0.23994,352.519,859.713)" font-weight="400"/>
  <g stroke-width="1" font-style="normal" stroke-opacity="1" stroke-linecap="square" font-family=".AppleSystemUIFont" stroke="#000000" stroke-linejoin="bevel" fill="none" font-size="54.1667" transform="matrix(0.999751,0,0,0.999751,222.63,368.617)" font-weight="400"/>
  <g stroke-width="1" font-style="normal" stroke-opacity="1" stroke-linecap="square" font-family=".AppleSystemUIFont" stroke="#000000" stroke-linejoin="bevel" fill="none" font-size="54.1667" transform="matrix(0.999751,0,0,0.999751,222.63,368.617)" font-weight="400"/>
  <g stroke-width="1" font-style="normal" stroke-opacity="1" stroke-linecap="square" font-family=".AppleSystemUIFont" stroke="#000000" stroke-linejoin="bevel" fill="none" font-size="54.1667" transform="matrix(11.8081,0,0,11.8081,222.63,368.617)" font-weight="400"/>
  <g stroke-width="1" font-style="normal" stroke-opacity="1" stroke-linecap="square" font-family=".AppleSystemUIFont" stroke="#000000" stroke-linejoin="bevel" fill="none" font-size="54.1667" transform="matrix(11.8081,0,0,11.8081,222.63,368.617)" font-weight="400"/>
  <g stroke-width="1" font-style="normal" stroke-opacity="1" stroke-linecap="square" font-family=".AppleSystemUIFont" stroke="#000000" stroke-linejoin="bevel" fill="none" font-size="54.1667" transform="matrix(11.8081,0,0,11.8081,222.63,368.617)" font-weight="400"/>
  <g stroke-width="1" font-style="normal" stroke-opacity="1" stroke-linecap="square" font-family=".AppleSystemUIFont" stroke="#000000" stroke-linejoin="bevel" fill="none" font-size="54.1667" transform="matrix(1,0,0,1,0,0)" font-weight="400"/>
 </g>
 <metadata>
  <rdf:RDF xmlns:dc="http://purl.org/dc/elements/1.1/" xmlns:rdf="http://www.w3.org/1999/02/22-rdf-syntax-ns#" xmlns:rdfs="http://www.w3.org/2000/01/rdf-schema#">
   <rdf:Description dc:format="image/svg+xml" dc:date="2024-07-17T10:30:51" dc:title="" dc:description="" dc:identifier="">
    <dc:creator>
     <rdf:Bag>
      <rdf:li>Carli Kooijman</rdf:li>
     </rdf:Bag>
    </dc:creator>
    <dc:publisher>
     <rdf:Bag>
      <rdf:li>QGIS 3.32.3-Lima</rdf:li>
     </rdf:Bag>
    </dc:publisher>
    <dc:subject>
     <rdf:Bag/>
    </dc:subject>
   </rdf:Description>
   <cc:Work rdf:about="">
    <dc:format>image/svg+xml</dc:format>
    <dc:title></dc:title>
    <dc:date>2024-07-17T10:30:51</dc:date>
    <dc:identifier></dc:identifier>
    <dc:description></dc:description>
    <dc:creator>
     <cc:Agent>
      <dc:title>Carli Kooijman</dc:title>
     </cc:Agent>
    </dc:creator>
    <dc:publisher>
     <cc:Agent>
      <dc:title>QGIS 3.32.3-Lima</dc:title>
     </cc:Agent>
    </dc:publisher>
   </cc:Work>
  </rdf:RDF>
 </metadata>
</svg>
